{
.appVersion = "3170";
.formatVersion = 3;
DisplayStrings = (
u,
b,
"̒/commaaccentbelow ̧ç",
"̦ț",
"̧̦̣",
"̧cçņ",
"a/a.alt1/a.alt2/a.alt3/a.alt4/a.alt5/a.alt6",
"/x.alt3"
);
axes = (
{
name = Weight;
tag = wght;
}
);
customParameters = (
{
name = glyphOrder;
value = (
.notdef,
.null,
CR,
space,
space.alt1,
space.alt2,
space.alt3,
space.alt4,
space.alt5,
space.alt6,
nbspace,
thinspace,
A,
A.alt1,
A.alt2,
A.alt3,
A.alt4,
A.alt5,
A.alt6,
B,
B.alt1,
B.alt2,
B.alt3,
B.alt4,
B.alt5,
B.alt6,
C,
C.alt1,
C.alt2,
C.alt3,
C.alt4,
C.alt5,
C.alt6,
D,
D.alt1,
D.alt2,
D.alt3,
D.alt4,
D.alt5,
D.alt6,
E,
E.alt1,
E.alt2,
E.alt3,
E.alt4,
E.alt5,
E.alt6,
F,
F.alt1,
F.alt2,
F.alt3,
F.alt4,
F.alt5,
F.alt6,
G,
G.alt1,
G.alt2,
G.alt3,
G.alt4,
G.alt5,
G.alt6,
H,
H.alt1,
H.alt2,
H.alt3,
H.alt4,
H.alt5,
H.alt6,
I,
I.alt1,
I.alt2,
I.alt3,
I.alt4,
I.alt5,
I.alt6,
J,
J.alt1,
J.alt2,
J.alt3,
J.alt4,
J.alt5,
J.alt6,
K,
K.alt1,
K.alt2,
K.alt3,
K.alt4,
K.alt5,
K.alt6,
L,
L.alt1,
L.alt2,
L.alt3,
L.alt4,
L.alt5,
L.alt6,
M,
M.alt1,
M.alt2,
M.alt3,
M.alt4,
M.alt5,
M.alt6,
N,
N.alt1,
N.alt2,
N.alt3,
N.alt4,
N.alt5,
N.alt6,
O,
O.alt1,
O.alt2,
O.alt3,
O.alt4,
O.alt5,
O.alt6,
P,
P.alt1,
P.alt2,
P.alt3,
P.alt4,
P.alt5,
P.alt6,
Q,
Q.alt1,
Q.alt2,
Q.alt3,
Q.alt4,
Q.alt5,
Q.alt6,
R,
R.alt1,
R.alt2,
R.alt3,
R.alt4,
R.alt5,
R.alt6,
S,
S.alt1,
S.alt2,
S.alt3,
S.alt4,
S.alt5,
S.alt6,
T,
T.alt1,
T.alt2,
T.alt3,
T.alt4,
T.alt5,
T.alt6,
U,
U.alt1,
U.alt2,
U.alt3,
U.alt4,
U.alt5,
U.alt6,
V,
V.alt1,
V.alt2,
V.alt3,
V.alt4,
V.alt5,
V.alt6,
W,
W.alt1,
W.alt2,
W.alt3,
W.alt4,
W.alt5,
W.alt6,
X,
X.alt1,
X.alt2,
X.alt3,
X.alt4,
X.alt5,
X.alt6,
Y,
Y.alt1,
Y.alt2,
Y.alt3,
Y.alt4,
Y.alt5,
Y.alt6,
Z,
Z.alt1,
Z.alt2,
Z.alt3,
Z.alt4,
Z.alt5,
Z.alt6,
AE,
Eth,
IJ,
Eng,
OE,
Thorn,
Germandbls,
a,
a.alt1,
a.alt2,
a.alt3,
a.alt4,
a.alt5,
a.alt6,
b,
b.alt1,
b.alt2,
b.alt3,
b.alt4,
b.alt5,
b.alt6,
c,
c.alt1,
c.alt2,
c.alt3,
c.alt4,
c.alt5,
c.alt6,
d,
d.alt1,
d.alt2,
d.alt3,
d.alt4,
d.alt5,
d.alt6,
e,
e.alt1,
e.alt2,
e.alt3,
e.alt4,

glyphs = (
{
color = 6;
glyphname = .notdef;
lastChange = "2023-01-19 12:13:54 +0000";
layers = (
{
background = {
shapes = (
{
closed = 1;
nodes = (
(326,688,o),
(429,699,o),
(508,697,c),
(499,486,o),
(495,292,o),
(494,80,c),
(360,79,o),
(245,78,o),
(175,74,c),
(176,271,o),
(183,545,o),
(190,688,c)
);
},
{
closed = 1;
nodes = (
(95,7,o),
(113,-7,o),
(134,-7,cs),
(136,-7,ls),
(144,-7,o),
(151,-7,o),
(157,-6,cs),
(306,4,o),
(423,5,o),
(535,4,cs),
(555,4,o),
(575,17,o),
(575,43,cs),
(575,230,o),
(581,544,o),
(593,736,cs),
(594,758,o),
(575,774,o),
(552,774,cs),
(393,773,o),
(258,772,o),
(152,766,cs),
(131,766,o),
(111,753,o),
(111,727,cs),
(99,489,o),
(95,271,o),
(95,32,cs)
);
},
{
closed = 1;
nodes = (
(299,512,o),
(295,437,o),
(291,200,cs),
(291,175,o),
(309,162,o),
(332,162,cs),
(352,162,o),
(372,174,o),
(372,201,cs),
(376,437,o),
(381,511,o),
(387,571,cs),
(388,597,o),
(369,611,o),
(347,611,cs),
(328,611,o),
(308,597,o),
(306,571,cs)
);
}
);
};
layerId = m01;
shapes = (
{
closed = 1;
nodes = (
(326,688,o),
(429,699,o),
(508,697,c),
(499,505,o),
(495,313,o),
(494,80,c),
(328,79,o),
(237,77,o),
(175,74,c),
(176,256,o),
(183,533,o),
(190,688,c)
);
},
{
closed = 1;
nodes = (
(95,8,o),
(112,-9,o),
(134,-7,cs),
(254,1,o),
(388,5,o),
(535,4,cs),
(558,4,o),
(575,20,o),
(575,43,cs),
(575,269,o),
(583,572,o),
(593,736,cs),
(594,757,o),
(576,774,o),
(552,774,cs),
(334,773,o),
(236,771,o),
(152,766,cs),
(128,766,o),
(111,750,o),
(111,727,cs),
(100,507,o),
(95,292,o),
(95,32,cs)
);
},
{
closed = 1;
nodes = (
(299,518,o),
(290,285,o),
(291,200,cs),
(291,177,o),
(307,162,o),
(332,162,cs),
(356,162,o),
(372,178,o),
(372,201,cs),
(371,268,o),
(381,503,o),
(387,571,cs),
(388,595,o),
(372,611,o),
(347,611,cs),
(325,611,o),
(308,594,o),
(306,571,cs)
);
}
);
width = 678;
},
{
background = {
shapes = (
{
closed = 1;
nodes = (
(326,688,o),
(429,699,o),
(508,697,c),
(499,486,o),
(495,292,o),
(494,80,c),
(360,79,o),
(245,78,o),
(175,74,c),
(176,271,o),
(183,545,o),
(190,688,c)
);
},
{
closed = 1;
nodes = (
(95,7,o),
(113,-7,o),
(134,-7,cs),
(136,-7,ls),
(144,-7,o),
(151,-7,o),
(157,-6,cs),
(306,4,o),
(423,5,o),
(535,4,cs),
(555,4,o),
(575,17,o),
(575,43,cs),
(575,230,o),
(581,544,o),
(593,736,cs),
(594,758,o),
(575,774,o),
(552,774,cs),
(393,773,o),
(258,772,o),
(152,766,cs),
(131,766,o),
(111,753,o),
(111,727,cs),
(99,489,o),
(95,271,o),
(95,32,cs)
);
},
{
closed = 1;
nodes = (
(299,512,o),
(295,437,o),
(291,200,cs),
(291,175,o),
(309,162,o),
(332,162,cs),
(352,162,o),
(372,174,o),
(372,201,cs),
(376,437,o),
(381,511,o),
(387,571,cs),
(388,597,o),
(369,611,o),
(347,611,cs),
(328,611,o),
(308,597,o),
(306,571,cs)
);
}
);
};
layerId = m002;
shapes = (
{
closed = 1;
nodes = (
(326,688,o),
(429,699,o),
(508,697,c),
(499,505,o),
(495,313,o),
(494,80,c),
(328,79,o),
(237,77,o),
(175,74,c),
(176,256,o),
(183,533,o),
(190,688,c)
);
},
{
closed = 1;
nodes = (
(95,8,o),
(112,-9,o),
(134,-7,cs),
(254,1,o),
(388,5,o),
(535,4,cs),
(558,4,o),
(575,20,o),
(575,43,cs),
(575,269,o),
(583,572,o),
(593,736,cs),
(594,757,o),
(576,774,o),
(552,774,cs),
(334,773,o),
(236,771,o),
(152,766,cs),
(128,766,o),
(111,750,o),
(111,727,cs),
(100,507,o),
(95,292,o),
(95,32,cs)
);
},
{
closed = 1;
nodes = (
(299,518,o),
(290,285,o),
(291,200,cs),
(291,177,o),
(307,162,o),
(332,162,cs),
(356,162,o),
(372,178,o),
(372,201,cs),
(371,268,o),
(381,503,o),
(387,571,cs),
(388,595,o),
(372,611,o),
(347,611,cs),
(325,611,o),
(308,594,o),
(306,571,cs)
);
}
);
width = 678;
},
{
background = {
shapes = (
{
closed = 1;
nodes = (
(326,688,o),
(429,699,o),
(508,697,c),
(499,486,o),
(495,292,o),
(494,80,c),
(360,79,o),
(245,78,o),
(175,74,c),
(176,271,o),
(183,545,o),
(190,688,c)
);
},
{
closed = 1;
nodes = (
(95,7,o),
(113,-7,o),
(134,-7,cs),
(136,-7,ls),
(144,-7,o),
(151,-7,o),
(157,-6,cs),
(306,4,o),
(423,5,o),
(535,4,cs),
(555,4,o),
(575,17,o),
(575,43,cs),
(575,230,o),
(581,544,o),
(593,736,cs),
(594,758,o),
(575,774,o),
(552,774,cs),
(393,773,o),
(258,772,o),
(152,766,cs),
(131,766,o),
(111,753,o),
(111,727,cs),
(99,489,o),
(95,271,o),
(95,32,cs)
);
},
{
closed = 1;
nodes = (
(299,512,o),
(295,437,o),
(291,200,cs),
(291,175,o),
(309,162,o),
(332,162,cs),
(352,162,o),
(372,174,o),
(372,201,cs),
(376,437,o),
(381,511,o),
(387,571,cs),
(388,597,o),
(369,611,o),
(347,611,cs),
(328,611,o),
(308,597,o),
(306,571,cs)
);
}
);
};
layerId = m003;
shapes = (
{
closed = 1;
nodes = (
(326,688,o),
(429,699,o),
(508,697,c),
(499,505,o),
(495,313,o),
(494,80,c),
(328,79,o),
(237,77,o),
(175,74,c),
(176,256,o),
(183,533,o),
(190,688,c)
);
},
{
closed = 1;
nodes = (
(95,8,o),
(112,-9,o),
(134,-7,cs),
(254,1,o),
(388,5,o),
(535,4,cs),
(558,4,o),
(575,20,o),
(575,43,cs),
(575,269,o),
(583,572,o),
(593,736,cs),
(594,757,o),
(576,774,o),
(552,774,cs),
(334,773,o),
(236,771,o),
(152,766,cs),
(128,766,o),
(111,750,o),
(111,727,cs),
(100,507,o),
(95,292,o),
(95,32,cs)
);
},
{
closed = 1;
nodes = (
(299,518,o),
(290,285,o),
(291,200,cs),
(291,177,o),
(307,162,o),
(332,162,cs),
(356,162,o),
(372,178,o),
(372,201,cs),
(371,268,o),
(381,503,o),
(387,571,cs),
(388,595,o),
(372,611,o),
(347,611,cs),
(325,611,o),
(308,594,o),
(306,571,cs)
);
}
);
width = 678;
}
);
},
{
color = 4;
glyphname = A;
lastChange = "2023-01-19 20:04:04 +0000";
layers = (
{
anchors = (
{
name = bottom;
pos = (358,0);
},
{
name = ogonek;
pos = (652,10);
},
{
name = top;
pos = (384,764);
}
);
layerId = m01;
shapes = (
{
closed = 1;
nodes = (
(162,253,o),
(286,513,o),
(385,737,c),
(442,591,o),
(563,276,o),
(662,5,cs),
(665,-4,o),
(666,-15,o),
(684,-17,cs),
(693,-18,o),
(703,-14,o),
(703,-3,cs),
(703,8,o),
(685,41,o),
(680,55,cs),
(604,260,o),
(427,712,o),
(405,768,cs),
(400,782,o),
(396,789,o),
(388,788,cs),
(373,787,o),
(371,776,o),
(366,765,cs),
(242,476,o),
(148,287,o),
(48,55,cs),
(37,29,o),
(33,21,o),
(30,13,cs),
(24,-3,o),
(33,-10,o),
(39,-12,cs),
(51,-15,o),
(58,-8,o),
(61,0,cs)
);
},
{
closed = 1;
nodes = (
(162,305,o),
(162,297,cs),
(162,284,o),
(155,286,o),
(175,288,cs),
(286,302,o),
(441,304,o),
(556,304,cs),
(577,304,o),
(606,302,o),
(606,319,cs),
(606,331,o),
(598,341,o),
(584,339,cs),
(555,335,o),
(533,332,o),
(476,332,cs),
(354,332,o),
(231,325,o),
(188,316,cs),
(166,311,o)
);
}
);
width = 734;
},
{
anchors = (
{
name = bottom;
pos = (367,0);
},
{
name = ogonek;
pos = (668,10);
},
{
name = top;
pos = (393,764);
}
);
layerId = m002;
shapes = (
{
closed = 1;
nodes = (
(185,230,o),
(293,438,o),
(392,657,c),
(449,511,o),
(556,226,o),
(647,2,cs),
(654,-15,o),
(673,-19,o),
(684,-19,cs),
(703,-19,o),
(722,-4,o),
(722,26,cs),
(722,37,o),
(713,55,o),
(707,69,cs),
(637,243,o),
(454,708,o),
(434,760,cs),
(427,778,o),
(411,789,o),
(394,789,cs),
(381,789,o),
(366,782,o),
(360,769,cs),
(244,524,o),
(123,290,o),
(32,58,cs),
(22,32,o),
(22,28,o),
(22,25,cs),
(22,1,o),
(44,-15,o),
(65,-15,cs),
(81,-15,o),
(95,-6,o),
(102,14,cs)
);
},
{
closed = 1;
nodes = (
(140,312,o),
(140,289,cs),
(140,266,o),
(171,243,o),
(191,245,cs),
(302,259,o),
(428,259,o),
(543,259,cs),
(581,259,o),
(639,262,o),
(639,302,cs),
(639,325,o),
(620,348,o),
(594,344,cs),
(565,339,o),
(517,336,o),
(462,338,cs),
(340,343,o),
(235,335,o),
(192,326,cs),
(170,321,o)
);
}
);
width = 752;
},
{
anchors = (
{
name = bottom;
pos = (385,0);
},
{
name = ogonek;
pos = (700,10);
},
{
name = top;
pos = (411,764);
}
);
layerId = m003;
shapes = (
{
closed = 1;
nodes = (
(253,190,o),
(307,382,o),
(406,591,c),
(463,445,o),
(509,176,o),
(589,24,cs),
(609,-15,o),
(641,-19,o),
(684,-19,cs),
(745,-19,o),
(783,13,o),
(783,43,cs),
(783,54,o),
(776,75,o),
(768,89,cs),
(698,213,o),
(550,691,o),
(539,719,cs),
(523,761,o),
(475,789,o),
(408,789,cs),
(355,789,o),
(316,764,o),
(287,707,cs),
(204,546,o),
(118,356,o),
(27,124,cs),
(17,98,o),
(5,67,o),
(5,38,cs),
(5,14,o),
(24,-15,o),
(85,-15,cs),
(161,-15,o),
(191,4,o),
(206,49,cs)
);
},
{
closed = 1;
nodes = (
(179,315,o),
(179,262,cs),
(179,219,o),
(204,177,o),
(224,179,cs),
(335,193,o),
(402,189,o),
(517,189,cs),
(589,189,o),
(734,215,o),
(734,301,cs),
(734,346,o),
(706,368,o),
(666,364,cs),
(637,361,o),
(491,346,o),
(476,348,cs),
(355,364,o),
(299,350,o),
(256,341,cs),
(234,336,o)
);
}
);
width = 788;
}
);
unicode = 65;
},
{
color = 6;
glyphname = A.alt1;
lastChange = "2023-01-19 20:04:04 +0000";
layers = (
{
anchors = (
{
name = bottom;
pos = (346,0);
},
{
name = ogonek;
pos = (629,10);
},
{
name = top;
pos = (372,764);
}
);
layerId = m01;
shapes = (
{
closed = 1;
nodes = (
(271,437,o),
(371,640,c),
(404,511,o),
(558,123,o),
(598,11,cs),
(607,-10,o),
(620,-19,o),
(637,-19,cs),
(658,-19,o),
(678,-1,o),
(678,20,cs),
(678,24,o),
(677,28,o),
(676,32,cs),
(644,119,o),
(517,442,o),
(468,599,cs),
(451,653,o),
(436,707,o),
(422,761,cs),
(418,780,o),
(400,790,o),
(383,790,cs),
(364,790,o),
(355,783,o),
(344,764,cs),
(260,616,o),
(181,399,o),
(108,224,cs),
(70,136,o),
(37,68,o),
(27,49,cs),
(11,20,o),
(32,-12,o),
(64,-12,cs),
(77,-12,o),
(90,-6,o),
(97,8,cs),
(202,218,o)
);
},
{
closed = 1;
nodes = (
(143,302,o),
(143,288,cs),
(143,265,o),
(152,243,o),
(200,248,cs),
(306,258,o),
(422,257,o),
(553,254,cs),
(581,253,o),
(606,260,o),
(606,292,cs),
(606,313,o),
(588,333,o),
(566,332,cs),
(435,326,o),
(303,339,o),
(173,320,cs),
(152,317,o)
);
}
);
width = 709;
},
{
anchors = (
{
name = bottom;
pos = (346,0);
},
{
name = ogonek;
pos = (629,10);
},
{
name = top;
pos = (372,764);
}
);
layerId = m002;
shapes = (
{
closed = 1;
nodes = (
(271,437,o),
(371,640,c),
(404,511,o),
(558,123,o),
(598,11,cs),
(607,-10,o),
(620,-19,o),
(637,-19,cs),
(658,-19,o),
(678,-1,o),
(678,20,cs),
(678,24,o),
(677,28,o),
(676,32,cs),
(644,119,o),
(517,442,o),
(468,599,cs),
(451,653,o),
(436,707,o),
(422,761,cs),
(418,780,o),
(400,790,o),
(383,790,cs),
(364,790,o),
(355,783,o),
(344,764,cs),
(260,616,o),
(181,399,o),
(108,224,cs),
(70,136,o),
(37,68,o),
(27,49,cs),
(11,20,o),
(32,-12,o),
(64,-12,cs),
(77,-12,o),
(90,-6,o),
(97,8,cs),
(202,218,o)
);
},
{
closed = 1;
nodes = (
(143,302,o),
(143,288,cs),
(143,265,o),
(152,243,o),
(200,248,cs),
(306,258,o),
(422,257,o),
(553,254,cs),
(581,253,o),
(606,260,o),
(606,292,cs),
(606,313,o),
(588,333,o),
(566,332,cs),
(435,326,o),
(303,339,o),
(173,320,cs),
(152,317,o)
);
}
);
width = 709;
},
{
anchors = (
{
name = bottom;
pos = (346,0);
},
{
name = ogonek;
pos = (629,10);
},
{
name = top;
pos = (372,764);
}
);
layerId = m003;
shapes = (
{
closed = 1;
nodes = (
(271,437,o),
(371,640,c),
(404,511,o),
(558,123,o),
(598,11,cs),
(607,-10,o),
(620,-19,o),
(637,-19,cs),
(658,-19,o),
(678,-1,o),
(678,20,cs),
(678,24,o),
(677,28,o),
(676,32,cs),
(644,119,o),
(517,442,o),
(468,599,cs),
(451,653,o),
(436,707,o),
(422,761,cs),
(418,780,o),
(400,790,o),
(383,790,cs),
(364,790,o),
(355,783,o),
(344,764,cs),
(260,616,o),
(181,399,o),
(108,224,cs),
(70,136,o),
(37,68,o),
(27,49,cs),
(11,20,o),
(32,-12,o),
(64,-12,cs),
(77,-12,o),
(90,-6,o),
(97,8,cs),
(202,218,o)
);
},
{
closed = 1;
nodes = (
(143,302,o),
(143,288,cs),
(143,265,o),
(152,243,o),
(200,248,cs),
(306,258,o),
(422,257,o),
(553,254,cs),
(581,253,o),
(606,260,o),
(606,292,cs),
(606,313,o),
(588,333,o),
(566,332,cs),
(435,326,o),
(303,339,o),
(173,320,cs),
(152,317,o)
);
}
);
width = 709;
}
);
metricLeft = A;
metricRight = A;
},
{
color = 6;
glyphname = A.alt2;
lastChange = "2023-01-19 20:04:04 +0000";
layers = (
{
anchors = (
{
name = bottom;
pos = (361,0);
},
{
name = ogonek;
pos = (656,10);
},
{
name = top;
pos = (387,764);
}
);
layerId = m01;
shapes = (
{
closed = 1;
nodes = (
(204,202,o),
(304,417,o),
(398,646,c),
(438,524,o),
(475,405,o),
(516,289,cs),
(551,188,o),
(590,90,o),
(635,-5,cs),
(641,-18,o),
(656,-24,o),
(670,-24,cs),
(696,-24,o),
(708,-5,o),
(708,16,cs),
(708,32,o),
(701,48,o),
(691,68,cs),
(662,123,o),
(629,208,o),
(597,297,cs),
(554,418,o),
(461,713,o),
(444,746,cs),
(432,769,o),
(419,784,o),
(401,784,cs),
(387,784,o),
(371,774,o),
(363,756,cs),
(256,503,o),
(123,221,o),
(27,33,cs),
(9,1,o),
(36,-28,o),
(65,-28,cs),
(77,-28,o),
(89,-22,o),
(97,-8,cs)
);
},
{
closed = 1;
nodes = (
(328,248,o),
(479,251,o),
(545,248,cs),
(572,248,o),
(585,265,o),
(585,285,cs),
(585,306,o),
(572,326,o),
(545,326,cs),
(470,329,o),
(317,325,o),
(209,314,cs),
(187,312,o),
(168,296,o),
(168,274,cs),
(169,254,o),
(186,234,o),
(209,236,cs)
);
}
);
width = 739;
},
{
anchors = (
{
name = bottom;
pos = (361,0);
},
{
name = ogonek;
pos = (656,10);
},
{
name = top;
pos = (387,764);
}
);
layerId = m002;
shapes = (
{
closed = 1;
nodes = (
(204,202,o),
(304,417,o),
(398,646,c),
(438,524,o),
(475,405,o),
(516,289,cs),
(551,188,o),
(590,90,o),
(635,-5,cs),
(641,-18,o),
(656,-24,o),
(670,-24,cs),
(696,-24,o),
(708,-5,o),
(708,16,cs),
(708,32,o),
(701,48,o),
(691,68,cs),
(662,123,o),
(629,208,o),
(597,297,cs),
(554,418,o),
(461,713,o),
(444,746,cs),
(432,769,o),
(419,784,o),
(401,784,cs),
(387,784,o),
(371,774,o),
(363,756,cs),
(256,503,o),
(123,221,o),
(27,33,cs),
(9,1,o),
(36,-28,o),
(65,-28,cs),
(77,-28,o),
(89,-22,o),
(97,-8,cs)
);
},
{
closed = 1;
nodes = (
(328,248,o),
(479,251,o),
(545,248,cs),
(572,248,o),
(585,265,o),
(585,285,cs),
(585,306,o),
(572,326,o),
(545,326,cs),
(470,329,o),
(317,325,o),
(209,314,cs),
(187,312,o),
(168,296,o),
(168,274,cs),
(169,254,o),
(186,234,o),
(209,236,cs)
);
}
);
width = 739;
},
{
anchors = (
{
name = bottom;
pos = (361,0);
},
{
name = ogonek;
pos = (656,10);
},
{
name = top;
pos = (387,764);
}
);
layerId = m003;
shapes = (
{
closed = 1;
nodes = (
(204,202,o),
(304,417,o),
(398,646,c),
(438,524,o),
(475,405,o),
(516,289,cs),
(551,188,o),
(590,90,o),
(635,-5,cs),
(641,-18,o),
(656,-24,o),
(670,-24,cs),
(696,-24,o),
(708,-5,o),
(708,16,cs),
(708,32,o),
(701,48,o),
(691,68,cs),
(662,123,o),
(629,208,o),
(597,297,cs),
(554,418,o),
(461,713,o),
(444,746,cs),
(432,769,o),
(419,784,o),
(401,784,cs),
(387,784,o),
(371,774,o),
(363,756,cs),
(256,503,o),
(123,221,o),
(27,33,cs),
(9,1,o),
(36,-28,o),
(65,-28,cs),
(77,-28,o),
(89,-22,o),
(97,-8,cs)
);
},
{
closed = 1;
nodes = (
(328,248,o),
(479,251,o),
(545,248,cs),
(572,248,o),
(585,265,o),
(585,285,cs),
(585,306,o),
(572,326,o),
(545,326,cs),
(470,329,o),
(317,325,o),
(209,314,cs),
(187,312,o),
(168,296,o),
(168,274,cs),
(169,254,o),
(186,234,o),
(209,236,cs)
);
}
);
width = 739;
}
);
metricLeft = A;
metricRight = A;
},
{
color = 6;
glyphname = A.alt3;
lastChange = "2023-01-19 20:04:04 +0000";
layers = (
{
anchors = (
{
name = bottom;
pos = (375,0);
},
{
name = ogonek;
pos = (682,10);
},
{
name = top;
pos = (401,764);
}
);
layerId = m01;
shapes = (
{
closed = 1;
nodes = (
(194,209,o),
(287,428,o),
(373,648,c),
(453,411,o),
(565,172,o),
(662,0,cs),
(669,-12,o),
(683,-20,o),
(697,-20,cs),
(704,-20,o),
(711,-18,o),
(717,-14,cs),
(730,-6,o),
(737,7,o),
(737,21,cs),
(737,28,o),
(735,35,o),
(732,41,cs),
(606,256,o),
(501,509,o),
(427,724,cs),
(417,754,o),
(406,785,o),
(378,785,cs),
(360,785,o),
(346,775,o),
(338,755,cs),
(309,686,o),
(105,207,o),
(27,32,cs),
(24,25,o),
(21,18,o),
(21,12,cs),
(21,-11,o),
(43,-28,o),
(65,-28,cs),
(77,-28,o),
(90,-23,o),
(97,-8,cs)
);
},
{
closed = 1;
nodes = (
(277,249,o),
(310,251,o),
(344,251,cs),
(409,251,o),
(471,247,o),
(540,239,cs),
(566,236,o),
(579,259,o),
(579,280,cs),
(579,300,o),
(566,310,o),
(540,314,cs),
(501,320,o),
(411,329,o),
(327,329,cs),
(256,329,o),
(202,320,o),
(202,288,cs),
(202,267,o),
(220,246,o),
(243,247,cs)
);
}
);
width = 768;
},
{
anchors = (
{
name = bottom;
pos = (375,0);
},
{
name = ogonek;
pos = (682,10);
},
{
name = top;
pos = (401,764);
}
);
layerId = m002;
shapes = (
{
closed = 1;
nodes = (
(194,209,o),
(287,428,o),
(373,648,c),
(453,411,o),
(565,172,o),
(662,0,cs),
(669,-12,o),
(683,-20,o),
(697,-20,cs),
(704,-20,o),
(711,-18,o),
(717,-14,cs),
(730,-6,o),
(737,7,o),
(737,21,cs),
(737,28,o),
(735,35,o),
(732,41,cs),
(606,256,o),
(501,509,o),
(427,724,cs),
(417,754,o),
(406,785,o),
(378,785,cs),
(360,785,o),
(346,775,o),
(338,755,cs),
(309,686,o),
(105,207,o),
(27,32,cs),
(24,25,o),
(21,18,o),
(21,12,cs),
(21,-11,o),
(43,-28,o),
(65,-28,cs),
(77,-28,o),
(90,-23,o),
(97,-8,cs)
);
},
{
closed = 1;
nodes = (
(277,249,o),
(310,251,o),
(344,251,cs),
(409,251,o),
(471,247,o),
(540,239,cs),
(566,236,o),
(579,259,o),
(579,280,cs),
(579,300,o),
(566,310,o),
(540,314,cs),
(501,320,o),
(411,329,o),
(327,329,cs),
(256,329,o),
(202,320,o),
(202,288,cs),
(202,267,o),
(220,246,o),
(243,247,cs)
);
}
);
width = 768;
},
{
anchors = (
{
name = bottom;
pos = (375,0);
},
{
name = ogonek;
pos = (682,10);
},
{
name = top;
pos = (401,764);
}
);
layerId = m003;
shapes = (
{
closed = 1;
nodes = (
(194,209,o),
(287,428,o),
(373,648,c),
(453,411,o),
(565,172,o),
(662,0,cs),
(669,-12,o),
(683,-20,o),
(697,-20,cs),
(704,-20,o),
(711,-18,o),
(717,-14,cs),
(730,-6,o),
(737,7,o),
(737,21,cs),
(737,28,o),
(735,35,o),
(732,41,cs),
(606,256,o),
(501,509,o),
(427,724,cs),
(417,754,o),
(406,785,o),
(378,785,cs),
(360,785,o),
(346,775,o),
(338,755,cs),
(309,686,o),
(105,207,o),
(27,32,cs),
(24,25,o),
(21,18,o),
(21,12,cs),
(21,-11,o),
(43,-28,o),
(65,-28,cs),
(77,-28,o),
(90,-23,o),
(97,-8,cs)
);
},
{
closed = 1;
nodes = (
(277,249,o),
(310,251,o),
(344,251,cs),
(409,251,o),
(471,247,o),
(540,239,cs),
(566,236,o),
(579,259,o),
(579,280,cs),
(579,300,o),
(566,310,o),
(540,314,cs),
(501,320,o),
(411,329,o),
(327,329,cs),
(256,329,o),
(202,320,o),
(202,288,cs),
(202,267,o),
(220,246,o),
(243,247,cs)
);
}
);
width = 768;
}
);
metricLeft = A;
metricRight = A;
},
{
color = 6;
glyphname = A.alt4;
lastChange = "2023-01-19 20:04:04 +0000";
layers = (
{
anchors = (
{
name = bottom;
pos = (382,0);
},
{
name = ogonek;
pos = (694,10);
},
{
name = top;
pos = (408,764);
}
);
layerId = m01;
shapes = (
{
closed = 1;
nodes = (
(197,216,o),
(287,429,o),
(372,652,c),
(454,427,o),
(575,170,o),
(675,1,cs),
(682,-12,o),
(696,-20,o),
(711,-20,cs),
(730,-20,o),
(750,-1,o),
(750,22,cs),
(750,28,o),
(749,35,o),
(745,41,cs),
(658,193,o),
(480,542,o),
(413,766,c),
(408,785,o),
(391,795,o),
(374,795,cs),
(357,795,o),
(341,785,o),
(334,766,cs),
(238,509,o),
(93,187,o),
(28,51,cs),
(24,44,o),
(22,37,o),
(22,31,cs),
(22,8,o),
(44,-10,o),
(66,-10,cs),
(78,-10,o),
(90,-4,o),
(98,10,c)
);
},
{
closed = 1;
nodes = (
(346,245,o),
(549,252,o),
(573,254,cs),
(598,256,o),
(621,264,o),
(621,294,cs),
(621,315,o),
(604,334,o),
(581,333,cs),
(487,327,o),
(394,323,o),
(220,323,cs),
(194,323,o),
(181,303,o),
(181,283,cs),
(181,262,o),
(194,245,o),
(220,245,cs)
);
}
);
width = 781;
},
{
anchors = (
{
name = bottom;
pos = (382,0);
},
{
name = ogonek;
pos = (694,10);
},
{
name = top;
pos = (408,764);
}
);
layerId = m002;
shapes = (
{
closed = 1;
nodes = (
(197,216,o),
(287,429,o),
(372,652,c),
(454,427,o),
(575,170,o),
(675,1,cs),
(682,-12,o),
(696,-20,o),
(711,-20,cs),
(730,-20,o),
(750,-1,o),
(750,22,cs),
(750,28,o),
(749,35,o),
(745,41,cs),
(658,193,o),
(480,542,o),
(413,766,c),
(408,785,o),
(391,795,o),
(374,795,cs),
(357,795,o),
(341,785,o),
(334,766,cs),
(238,509,o),
(93,187,o),
(28,51,cs),
(24,44,o),
(22,37,o),
(22,31,cs),
(22,8,o),
(44,-10,o),
(66,-10,cs),
(78,-10,o),
(90,-4,o),
(98,10,c)
);
},
{
closed = 1;
nodes = (
(346,245,o),
(549,252,o),
(573,254,cs),
(598,256,o),
(621,264,o),
(621,294,cs),
(621,315,o),
(604,334,o),
(581,333,cs),
(487,327,o),
(394,323,o),
(220,323,cs),
(194,323,o),
(181,303,o),
(181,283,cs),
(181,262,o),
(194,245,o),
(220,245,cs)
);
}
);
width = 781;
},
{
anchors = (
{
name = bottom;
pos = (382,0);
},
{
name = ogonek;
pos = (694,10);
},
{
name = top;
pos = (408,764);
}
);
layerId = m003;
shapes = (
{
closed = 1;
nodes = (
(197,216,o),
(287,429,o),
(372,652,c),
(454,427,o),
(575,170,o),
(675,1,cs),
(682,-12,o),
(696,-20,o),
(711,-20,cs),
(730,-20,o),
(750,-1,o),
(750,22,cs),
(750,28,o),
(749,35,o),
(745,41,cs),
(658,193,o),
(480,542,o),
(413,766,c),
(408,785,o),
(391,795,o),
(374,795,cs),
(357,795,o),
(341,785,o),
(334,766,cs),
(238,509,o),
(93,187,o),
(28,51,cs),
(24,44,o),
(22,37,o),
(22,31,cs),
(22,8,o),
(44,-10,o),
(66,-10,cs),
(78,-10,o),
(90,-4,o),
(98,10,c)
);
},
{
closed = 1;
nodes = (
(346,245,o),
(549,252,o),
(573,254,cs),
(598,256,o),
(621,264,o),
(621,294,cs),
(621,315,o),
(604,334,o),
(581,333,cs),
(487,327,o),
(394,323,o),
(220,323,cs),
(194,323,o),
(181,303,o),
(181,283,cs),
(181,262,o),
(194,245,o),
(220,245,cs)
);
}
);
width = 781;
}
);
metricLeft = A;
metricRight = A;
},
{
color = 6;
glyphname = A.alt5;
lastChange = "2023-01-19 20:04:04 +0000";
layers = (
{
anchors = (
{
name = bottom;
pos = (393,0);
},
{
name = ogonek;
pos = (715,10);
},
{
name = top;
pos = (419,764);
}
);
layerId = m01;
shapes = (
{
closed = 1;
nodes = (
(197,216,o),
(299,431,o),
(399,655,c),
(469,478,o),
(605,206,o),
(694,11,cs),
(702,-7,o),
(717,-15,o),
(733,-15,cs),
(755,-15,o),
(773,1,o),
(773,23,cs),
(773,29,o),
(771,35,o),
(768,42,cs),
(682,237,o),
(512,560,o),
(447,744,cs),
(438,769,o),
(421,787,o),
(403,787,cs),
(386,787,o),
(373,780,o),
(367,766,cs),
(323,672,o),
(278,578,o),
(27,43,cs),
(24,36,o),
(21,30,o),
(21,23,cs),
(21,1,o),
(43,-17,o),
(65,-17,cs),
(77,-17,o),
(90,-12,o),
(97,3,cs)
);
},
{
closed = 1;
nodes = (
(338,254,o),
(462,260,o),
(606,260,cs),
(638,260,o),
(670,267,o),
(670,299,cs),
(670,321,o),
(652,340,o),
(629,340,cs),
(519,339,o),
(239,325,o),
(215,323,cs),
(184,320,o),
(165,313,o),
(165,281,cs),
(165,259,o),
(181,242,o),
(205,243,cs)
);
}
);
width = 804;
},
{
anchors = (
{
name = bottom;
pos = (393,0);
},
{
name = ogonek;
pos = (715,10);
},
{
name = top;
pos = (419,764);
}
);
layerId = m002;
shapes = (
{
closed = 1;
nodes = (
(197,216,o),
(299,431,o),
(399,655,c),
(469,478,o),
(605,206,o),
(694,11,cs),
(702,-7,o),
(717,-15,o),
(733,-15,cs),
(755,-15,o),
(773,1,o),
(773,23,cs),
(773,29,o),
(771,35,o),
(768,42,cs),
(682,237,o),
(512,560,o),
(447,744,cs),
(438,769,o),
(421,787,o),
(403,787,cs),
(386,787,o),
(373,780,o),
(367,766,cs),
(323,672,o),
(278,578,o),
(27,43,cs),
(24,36,o),
(21,30,o),
(21,23,cs),
(21,1,o),
(43,-17,o),
(65,-17,cs),
(77,-17,o),
(90,-12,o),
(97,3,cs)
);
},
{
closed = 1;
nodes = (
(338,254,o),
(462,260,o),
(606,260,cs),
(638,260,o),
(670,267,o),
(670,299,cs),
(670,321,o),
(652,340,o),
(629,340,cs),
(519,339,o),
(239,325,o),
(215,323,cs),
(184,320,o),
(165,313,o),
(165,281,cs),
(165,259,o),
(181,242,o),
(205,243,cs)
);
}
);
width = 804;
},
{
anchors = (
{
name = bottom;
pos = (393,0);
},
{
name = ogonek;
pos = (715,10);
},
{
name = top;
pos = (419,764);
}
);
layerId = m003;
shapes = (
{
closed = 1;
nodes = (
(197,216,o),
(299,431,o),
(399,655,c),
(469,478,o),
(605,206,o),
(694,11,cs),
(702,-7,o),
(717,-15,o),
(733,-15,cs),
(755,-15,o),
(773,1,o),
(773,23,cs),
(773,29,o),
(771,35,o),
(768,42,cs),
(682,237,o),
(512,560,o),
(447,744,cs),
(438,769,o),
(421,787,o),
(403,787,cs),
(386,787,o),
(373,780,o),
(367,766,cs),
(323,672,o),
(278,578,o),
(27,43,cs),
(24,36,o),
(21,30,o),
(21,23,cs),
(21,1,o),
(43,-17,o),
(65,-17,cs),
(77,-17,o),
(90,-12,o),
(97,3,cs)
);
},
{
closed = 1;
nodes = (
(338,254,o),
(462,260,o),
(606,260,cs),
(638,260,o),
(670,267,o),
(670,299,cs),
(670,321,o),
(652,340,o),
(629,340,cs),
(519,339,o),
(239,325,o),
(215,323,cs),
(184,320,o),
(165,313,o),
(165,281,cs),
(165,259,o),
(181,242,o),
(205,243,cs)
);
}
);
width = 804;
}
);
metricLeft = A;
metricRight = A;
},
{
color = 6;
glyphname = A.alt6;
lastChange = "2023-01-19 20:04:04 +0000";
layers = (
{
anchors = (
{
name = bottom;
pos = (365,0);
},
{
name = ogonek;
pos = (663,10);
},
{
name = top;
pos = (391,764);
}
);
layerId = m01;
shapes = (
{
closed = 1;
nodes = (
(213,208,o),
(313,408,o),
(410,637,c),
(474,417,o),
(555,206,o),
(641,8,cs),
(648,-7,o),
(662,-11,o),
(675,-11,cs),
(693,-11,o),
(716,4,o),
(716,21,cs),
(716,34,o),
(714,43,o),
(709,55,cs),
(602,295,o),
(508,567,o),
(455,748,cs),
(450,767,o),
(432,777,o),
(414,777,cs),
(401,777,o),
(387,771,o),
(381,758,cs),
(268,498,o),
(168,297,o),
(28,45,cs),
(24,38,o),
(22,31,o),
(22,25,cs),
(22,2,o),
(44,-16,o),
(66,-16,cs),
(78,-16,o),
(90,-10,o),
(98,4,cs)
);
},
{
closed = 1;
nodes = (
(290,255,o),
(349,257,o),
(409,257,cs),
(455,257,o),
(575,254,o),
(621,249,cs),
(648,246,o),
(673,257,o),
(673,286,cs),
(673,309,o),
(655,324,o),
(632,326,cs),
(555,332,o),
(477,335,o),
(399,335,cs),
(372,335,o),
(284,333,o),
(240,330,cs),
(215,328,o),
(190,313,o),
(190,289,cs),
(190,268,o),
(208,250,o),
(231,252,cs)
);
}
);
width = 747;
},
{
anchors = (
{
name = bottom;
pos = (365,0);
},
{
name = ogonek;
pos = (663,10);
},
{
name = top;
pos = (391,764);
}
);
layerId = m002;
shapes = (
{
closed = 1;
nodes = (
(213,208,o),
(313,408,o),
(410,637,c),
(474,417,o),
(555,206,o),
(641,8,cs),
(648,-7,o),
(662,-11,o),
(675,-11,cs),
(693,-11,o),
(716,4,o),
(716,21,cs),
(716,34,o),
(714,43,o),
(709,55,cs),
(602,295,o),
(508,567,o),
(455,748,cs),
(450,767,o),
(432,777,o),
(414,777,cs),
(401,777,o),
(387,771,o),
(381,758,cs),
(268,498,o),
(168,297,o),
(28,45,cs),
(24,38,o),
(22,31,o),
(22,25,cs),
(22,2,o),
(44,-16,o),
(66,-16,cs),
(78,-16,o),
(90,-10,o),
(98,4,cs)
);
},
{
closed = 1;
nodes = (
(290,255,o),
(349,257,o),
(409,257,cs),
(455,257,o),
(575,254,o),
(621,249,cs),
(648,246,o),
(673,257,o),
(673,286,cs),
(673,309,o),
(655,324,o),
(632,326,cs),
(555,332,o),
(477,335,o),
(399,335,cs),
(372,335,o),
(284,333,o),
(240,330,cs),
(215,328,o),
(190,313,o),
(190,289,cs),
(190,268,o),
(208,250,o),
(231,252,cs)
);
}
);
width = 747;
},
{
anchors = (
{
name = bottom;
pos = (365,0);
},
{
name = ogonek;
pos = (663,10);
},
{
name = top;
pos = (391,764);
}
);
layerId = m003;
shapes = (
{
closed = 1;
nodes = (
(213,208,o),
(313,408,o),
(410,637,c),
(474,417,o),
(555,206,o),
(641,8,cs),
(648,-7,o),
(662,-11,o),
(675,-11,cs),
(693,-11,o),
(716,4,o),
(716,21,cs),
(716,34,o),
(714,43,o),
(709,55,cs),
(602,295,o),
(508,567,o),
(455,748,cs),
(450,767,o),
(432,777,o),
(414,777,cs),
(401,777,o),
(387,771,o),
(381,758,cs),
(268,498,o),
(168,297,o),
(28,45,cs),
(24,38,o),
(22,31,o),
(22,25,cs),
(22,2,o),
(44,-16,o),
(66,-16,cs),
(78,-16,o),
(90,-10,o),
(98,4,cs)
);
},
{
closed = 1;
nodes = (
(290,255,o),
(349,257,o),
(409,257,cs),
(455,257,o),
(575,254,o),
(621,249,cs),
(648,246,o),
(673,257,o),
(673,286,cs),
(673,309,o),
(655,324,o),
(632,326,cs),
(555,332,o),
(477,335,o),
(399,335,cs),
(372,335,o),
(284,333,o),
(240,330,cs),
(215,328,o),
(190,313,o),
(190,289,cs),
(190,268,o),
(208,250,o),
(231,252,cs)
);
}
);
width = 747;
}
);
metricLeft = A;
metricRight = A;
},
{
color = 6;
glyphname = B;
lastChange = "2023-01-19 20:04:04 +0000";
layers = (
{
anchors = (
{
name = bottom;
pos = (318,0);
},
{
name = center;
pos = (331,382);
},
{
name = top;
pos = (344,764);
}
);
background = {
shapes = (
{
closed = 1;
nodes = (
(101,493,o),
(107,246,o),
(78,25,cs),
(75,-1,o),
(98,-14,o),
(119,-14,cs),
(139,-14,o),
(156,-1,o),
(159,25,cs),
(189,258,o),
(182,493,o),
(209,726,c),
(209,752,o),
(189,765,o),
(168,765,cs),
(148,765,o),
(128,752,o),
(128,726,c)
);
},
{
closed = 1;
nodes = (
(190,690,o),
(261,700,o),
(303,700,cs),
(378,700,o),
(483,677,o),
(483,601,cs),
(483,488,o),
(306,447,o),
(207,447,cs),
(183,447,o),
(163,449,o),
(141,451,cs),
(120,452,o),
(114,434,o),
(115,413,cs),
(115,377,o),
(145,367,o),
(198,367,cs),
(224,367,o),
(252,370,o),
(291,376,c),
(375,375,o),
(517,337,o),
(517,242,cs),
(517,132,o),
(345,77,o),
(218,77,cs),
(190,77,o),
(160,79,o),
(129,84,c),
(118,5,l),
(140,3,o),
(179,-1,o),
(220,-1,cs),
(397,-1,o),
(598,84,o),
(598,240,cs),
(598,318,o),
(537,393,o),
(426,423,c),
(521,464,o),
(563,539,o),
(563,606,cs),
(563,745,o),
(409,778,o),
(295,778,cs),
(227,778,o),
(191,772,o),
(164,764,c),
(164,686,l)
);
}
);
};
layerId = m01;
shapes = (
{
closed = 1;
nodes = (
(100,495,o),
(108,249,o),
(95,26,cs),
(93,0,o),
(117,-11,o),
(138,-10,cs),
(158,-8,o),
(174,6,o),
(175,32,cs),
(189,266,o),
(181,500,o),
(191,735,c),
(190,761,o),
(169,772,o),
(148,771,cs),
(128,769,o),
(109,755,o),
(111,729,c)
);
},
{
closed = 1;
nodes = (
(190,690,o),
(261,700,o),
(303,700,cs),
(378,700,o),
(483,677,o),
(483,601,cs),
(483,488,o),
(306,447,o),
(207,447,cs),
(183,447,o),
(163,449,o),
(141,451,cs),
(120,452,o),
(114,434,o),
(115,413,cs),
(115,377,o),
(145,367,o),
(198,367,cs),
(224,367,o),
(252,370,o),
(291,376,c),
(375,375,o),
(517,337,o),
(517,242,cs),
(517,132,o),
(345,77,o),
(218,77,cs),
(190,77,o),
(160,79,o),
(129,84,c),
(118,5,l),
(140,3,o),
(179,-1,o),
(220,-1,cs),
(397,-1,o),
(598,84,o),
(598,240,cs),
(598,318,o),
(537,393,o),
(426,423,c),
(521,464,o),
(563,539,o),
(563,606,cs),
(563,745,o),
(409,778,o),
(295,778,cs),
(227,778,o),
(191,772,o),
(164,764,c),
(164,686,l)
);
}
);
width = 653;
},
{
associatedMasterId = m01;
background = {
shapes = (
{
closed = 1;
nodes = (
(4838,340,o),
(4841,180,o),
(4820,21,c),
(4818,-13,o),
(4865,-33,o),
(4889,-7,c),
(4935,153,o),
(4911,333,o),
(4932,499,c),
(4932,552,o),
(4852,552,o),
(4851,499,c)
);
},
{
closed = 1;
nodes = (
(4915,264,o),
(4915,269,o),
(4916,273,c),
(4914,262,l),
(4918,286,o),
(4924,309,o),
(4934,331,c),
(4932,328,o),
(4931,324,o),
(4930,321,c),
(4946,366,o),
(4993,420,o),
(5010,431,c),
(5024,441,o),
(5038,450,o),
(5054,457,c),
(5051,456,o),
(5048,455,o),
(5044,453,c),
(5057,459,o),
(5070,462,o),
(5084,464,c),
(5080,464,o),
(5077,463,o),
(5073,463,c),
(5084,464,o),
(5095,464,o),
(5106,463,c),
(5103,463,o),
(5099,464,o),
(5095,464,c),
(5107,463,o),
(5117,460,o),
(5128,456,c),
(5125,457,o),
(5121,458,o),
(5118,460,c),
(5129,455,o),
(5139,449,o),
(5148,442,c),
(5138,448,o),
(5144,446,o),
(5146,444,c),
(5157,435,o),
(5166,425,o),
(5175,415,c),
(5180,409,o),
(5169,422,o),
(5174,415,c),
(5173,418,o),
(5172,421,o),
(5170,424,c),
(5177,407,o),
(5181,388,o),
(5184,370,c),
(5183,373,o),
(5183,377,o),
(5182,380,c),
(5188,278,o),
(5179,174,o),
(5181,72,c),
(5182,75,o),
(5182,79,o),
(5183,83,c),
(5181,71,o),
(5178,61,o),
(5174,50,c),
(5176,53,o),
(5177,57,o),
(5178,60,c),
(5147,14,o),
(5218,-33,o),
(5246,15,c),
(5278,81,o),
(5257,155,o),
(5262,225,c),
(5265,302,o),
(5277,386,o),
(5243,458,c),
(5167,576,o),
(5013,565,o),
(4927,464,c),
(4875,408,o),
(4840,336,o),
(4833,259,c),
(4833,207,o),
(4914,207,o),
(4914,259,c)
);
},
{
closed = 1;
nodes = (
(1424,360,o),
(1434,192,o),
(1424,25,c),
(1423,-28,o),
(1505,-28,o),
(1505,25,c),
(1514,173,o),
(1506,322,o),
(1526,470,c),
(1524,459,l),
(1525,484,o),
(1540,511,o),
(1527,535,c),
(1512,565,o),
(1460,559,o),
(1453,525,c)
);
},
{
closed = 1;
nodes = (
(1516,299,o),
(1521,314,o),
(1527,328,c),
(1526,325,o),
(1525,322,o),
(1523,319,c),
(1557,391,o),
(1592,441,o),
(1657,472,c),
(1654,471,o),
(1651,470,o),
(1648,468,c),
(1658,472,o),
(1668,476,o),
(1679,477,c),
(1668,476,l),
(1676,477,o),
(1684,477,o),
(1693,476,c),
(1689,476,o),
(1685,477,o),
(1682,477,c),
(1690,476,o),
(1698,474,o),
(1705,471,c),
(1702,472,o),
(1699,473,o),
(1696,475,c),
(1701,472,o),
(1707,469,o),
(1713,465,c),
(1718,461,o),
(1710,466,o),
(1710,468,c),
(1729,450,o),
(1730,451,o),
(1740,429,c),
(1739,433,o),
(1738,436,o),
(1736,439,c),
(1743,424,o),
(1746,407,o),
(1748,391,c),
(1746,402,l),
(1761,276,o),
(1740,150,o),
(1737,25,c),
(1736,-28,o),
(1818,-28,o),
(1818,25,c),
(1819,84,o),
(1825,143,o),
(1829,202,c),
(1832,321,o),
(1861,496,o),
(1723,550,c),
(1581,589,o),
(1467,425,o),
(1435,305,c),
(1420,254,o),
(1500,232,o),
(1513,283,c)
);
},
{
closed = 1;
nodes = (
(1834,291,o),
(1835,296,o),
(1836,301,c),
(1835,298,o),
(1835,294,o),
(1834,290,c),
(1837,312,o),
(1844,334,o),
(1852,354,c),
(1851,351,o),
(1849,348,o),
(1848,345,c),
(1872,395,o),
(1887,419,o),
(1928,453,c),
(1927,452,o),
(1925,451,o),
(1924,450,c),
(1937,459,o),
(1950,468,o),
(1965,474,c),
(1962,472,o),
(1959,471,o),
(1955,470,c),
(1967,474,o),
(1978,477,o),
(1990,479,c),
(1987,479,o),
(1983,478,o),
(1979,478,c),
(1989,479,o),
(1999,479,o),
(2010,478,c),
(2006,478,o),
(2002,479,o),
(1999,479,c),
(2009,478,o),
(2019,475,o),
(2028,471,c),
(2025,472,o),
(2022,474,o),
(2018,475,c),
(2041,466,o),
(2051,454,o),
(2060,445,c),
(2055,452,o),
(2062,439,o),
(2062,438,c),
(2061,441,o),
(2060,444,o),
(2058,447,c),
(2069,421,o),
(2075,394,o),
(2079,366,c),
(2078,377,l),
(2089,287,o),
(2079,196,o),
(2069,106,c),
(2070,74,o),
(2049,33,o),
(2073,6,c),
(2098,-19,o),
(2143,0,o),
(2142,35,c),
(2149,98,o),
(2157,161,o),
(2161,224,c),
(2166,313,o),
(2167,408,o),
(2127,489,c),
(1987,672,o),
(1757,462,o),
(1753,286,c),
(1752,233,o),
(1834,233,o),
(1834,286,c)
);
},
{
closed = 1;
nodes = (
(3273,558,o),
(3086,576,o),
(3004,485,c),
(2968,441,o),
(2950,375,o),
(2985,326,c),
(3035,252,o),
(3131,239,o),
(3202,192,c),
(3204,191,o),
(3206,189,o),
(3208,188,c),
(3215,183,o),
(3199,195,o),
(3207,189,c),
(3224,172,o),
(3217,182,o),
(3230,157,c),
(3229,160,o),
(3227,163,o),
(3226,167,c),
(3229,159,o),
(3231,151,o),
(3233,142,c),
(3232,146,o),
(3232,150,o),
(3231,153,c),
(3232,145,o),
(3232,137,o),
(3231,129,c),
(3232,133,o),
(3232,137,o),
(3233,140,c),
(3232,132,o),
(3229,123,o),
(3226,115,c),
(3228,119,o),
(3229,122,o),
(3230,125,c),
(3227,117,o),
(3222,110,o),
(3217,102,c),
(3225,114,o),
(3218,104,o),
(3215,101,c),
(3201,87,o),
(3201,86,o),
(3175,74,c),
(3178,76,o),
(3182,77,o),
(3185,78,c),
(3171,73,o),
(3157,69,o),
(3142,67,c),
(3146,67,o),
(3149,68,o),
(3153,68,c),
(3135,66,o),
(3118,66,o),
(3100,68,c),
(3104,68,o),
(3108,67,o),
(3111,67,c),
(3091,70,o),
(3072,75,o),
(3053,83,c),
(3056,82,o),
(3059,80,o),
(3063,79,c),
(3040,88,o),
(3019,101,o),
(3000,115,c),
(3002,114,o),
(3003,113,o),
(3004,112,c),
(3001,115,o),
(2998,118,o),
(2994,120,c),
(2981,98,o),
(2968,75,o),
(2955,53,c),
(2989,34,o),
(3028,77,o),
(3008,110,c),
(2974,162,o),
(2894,113,o),
(2937,63,c),
(3026,-17,o),
(3179,-51,o),
(3271,43,c),
(3322,92,o),
(3327,177,o),
(3280,230,c),
(3235,287,o),
(3106,319,o),
(3074,348,c),
(3068,350,o),
(3042,382,o),
(3057,363,c),
(3053,369,o),
(3050,374,o),
(3047,381,c),
(3048,377,o),
(3050,374,o),
(3051,371,c),
(3049,377,o),
(3047,382,o),
(3046,388,c),
(3047,385,o),
(3047,381,o),
(3048,378,c),
(3047,384,o),
(3047,391,o),
(3048,398,c),
(3047,394,o),
(3047,390,o),
(3046,387,c),
(3048,397,o),
(3050,407,o),
(3054,416,c),
(3053,413,o),
(3052,410,o),
(3050,406,c),
(3067,438,o),
(3065,437,o),
(3095,453,c),
(3091,452,o),
(3088,450,o),
(3085,449,c),
(3098,455,o),
(3112,458,o),
(3126,460,c),
(3123,459,o),
(3119,459,o),
(3115,458,c),
(3139,461,o),
(3162,460,o),
(3186,457,c),
(3182,458,o),
(3179,458,o),
(3175,459,c),
(3188,457,o),
(3201,454,o),
(3213,449,c),
(3210,450,o),
(3207,451,o),
(3203,453,c),
(3210,450,o),
(3216,447,o),
(3222,443,c),
(3226,441,o),
(3235,432,o),
(3224,442,c),
(3229,440,o),
(3252,411,o),
(3239,428,c),
(3271,350,o),
(3348,380,o),
(3325,442,c)
);
},
{
closed = 1;
nodes = (
(2394,697,o),
(2150,261,o),
(2341,56,c),
(2406,-9,o),
(2517,-22,o),
(2586,44,c),
(2666,119,o),
(2684,236,o),
(2705,339,c),
(2704,336,o),
(2704,332,o),
(2703,328,c),
(2720,398,o),
(2749,552,o),
(2625,496,c),
(2575,462,o),
(2630,394,o),
(2677,431,c),
(2673,430,o),
(2670,429,o),
(2667,427,c),
(2669,428,o),
(2671,429,o),
(2673,429,c),
(2670,429,o),
(2666,428,o),
(2663,428,c),
(2664,428,o),
(2665,428,o),
(2667,428,c),
(2663,428,o),
(2660,429,o),
(2656,429,c),
(2657,429,o),
(2658,429,o),
(2658,428,c),
(2655,430,o),
(2652,431,o),
(2649,433,c),
(2656,430,o),
(2643,438,o),
(2645,436,c),
(2646,434,o),
(2638,446,o),
(2642,439,c),
(2640,442,o),
(2639,446,o),
(2638,449,c),
(2639,446,o),
(2640,442,o),
(2640,439,c),
(2640,443,o),
(2639,446,o),
(2639,450,c),
(2640,438,o),
(2639,426,o),
(2637,414,c),
(2638,417,o),
(2638,421,o),
(2639,424,c),
(2635,394,o),
(2626,364,o),
(2623,334,c),
(2624,337,o),
(2624,341,o),
(2625,345,c),
(2611,286,o),
(2600,226,o),
(2577,171,c),
(2578,174,o),
(2580,177,o),
(2581,180,c),
(2572,160,o),
(2562,140,o),
(2549,122,c),
(2546,118,o),
(2550,124,o),
(2551,125,c),
(2543,115,o),
(2533,105,o),
(2523,97,c),
(2523,97,o),
(2531,103,o),
(2526,99,c),
(2518,93,o),
(2509,88,o),
(2499,84,c),
(2503,86,o),
(2506,87,o),
(2509,88,c),
(2497,83,o),
(2484,80,o),
(2471,78,c),
(2475,79,o),
(2478,79,o),
(2482,80,c),
(2476,80,o),
(2469,81,o),
(2463,81,c),
(2467,81,o),
(2470,80,o),
(2474,80,c),
(2458,82,o),
(2442,86,o),
(2427,92,c),
(2431,91,o),
(2434,89,o),
(2437,88,c),
(2425,93,o),
(2414,100,o),
(2404,107,c),
(2404,107,o),
(2412,100,o),
(2408,104,c),
(2399,111,o),
(2392,119,o),
(2385,128,c),
(2385,127,o),
(2391,119,o),
(2387,124,c),
(2379,135,o),
(2373,147,o),
(2367,160,c),
(2369,157,o),
(2370,154,o),
(2371,150,c),
(2364,169,o),
(2359,188,o),
(2356,208,c),
(2357,197,l),
(2354,224,o),
(2354,251,o),
(2358,277,c),
(2356,266,l),
(2360,296,o),
(2368,326,o),
(2380,354,c),
(2378,351,o),
(2377,347,o),
(2376,344,c),
(2385,367,o),
(2397,388,o),
(2412,408,c),
(2409,403,o),
(2408,402,o),
(2408,402,c),
(2417,415,o),
(2432,430,o),
(2445,440,c),
(2436,432,o),
(2441,437,o),
(2443,439,c),
(2454,447,o),
(2466,454,o),
(2479,459,c),
(2476,458,o),
(2472,456,o),
(2469,455,c),
(2482,460,o),
(2496,464,o),
(2510,466,c),
(2506,465,o),
(2503,465,o),
(2499,465,c),
(2514,466,o),
(2528,466,o),
(2542,464,c),
(2538,465,o),
(2535,465,o),
(2531,466,c),
(2549,463,o),
(2565,458,o),
(2582,452,c),
(2578,453,o),
(2575,455,o),
(2572,456,c),
(2601,448,o),
(2624,414,o),
(2657,422,c),
(2691,431,o),
(2696,478,o),
(2666,496,c)
);
},
{
closed = 1;
nodes = (
(2627,370,o),
(2602,218,o),
(2626,70,c),
(2653,-78,o),
(2800,-21,o),
(2837,83,c),
(2838,117,o),
(2791,138,o),
(2768,111,c),
(2743,83,o),
(2733,70,o),
(2709,59,c),
(2712,60,o),
(2715,62,o),
(2719,63,c),
(2714,61,o),
(2710,60,o),
(2705,59,c),
(2708,59,o),
(2712,60,o),
(2715,60,c),
(2713,60,o),
(2710,60,o),
(2707,60,c),
(2710,60,o),
(2714,59,o),
(2718,59,c),
(2715,59,o),
(2712,60,o),
(2710,61,c),
(2713,60,o),
(2716,58,o),
(2719,57,c),
(2717,58,o),
(2715,59,o),
(2713,60,c),
(2709,63,o),
(2723,52,o),
(2718,57,c),
(2713,60,o),
(2710,69,o),
(2718,56,c),
(2714,61,o),
(2711,66,o),
(2709,71,c),
(2711,68,o),
(2712,65,o),
(2713,62,c),
(2706,78,o),
(2703,96,o),
(2700,114,c),
(2701,110,o),
(2701,107,o),
(2702,103,c),
(2690,208,o),
(2703,314,o),
(2716,418,c),
(2715,414,o),
(2715,411,o),
(2714,407,c),
(2715,446,o),
(2737,489,o),
(2724,526,c),
(2708,556,o),
(2657,551,o),
(2650,517,c)
);
},
{
closed = 1;
nodes = (
(3493,327,o),
(3518,162,o),
(3571,4,c),
(3582,-34,o),
(3638,-34,o),
(3649,4,c),
(3665,47,o),
(3682,89,o),
(3699,131,c),
(3698,128,o),
(3697,125,o),
(3695,121,c),
(3749,247,o),
(3808,371,o),
(3859,498,c),
(3835,494,o),
(3810,491,o),
(3785,488,c),
(3792,474,o),
(3798,460,o),
(3804,447,c),
(3803,450,o),
(3801,453,o),
(3800,456,c),
(3847,345,o),
(3872,227,o),
(3902,111,c),
(3919,70,o),
(3912,-6,o),
(3963,-18,c),
(3977,-20,o),
(3997,-13,o),
(4003,1,c),
(4050,106,o),
(4083,217,o),
(4127,323,c),
(4126,320,o),
(4125,317,o),
(4123,314,c),
(4146,367,o),
(4172,419,o),
(4204,466,c),
(4231,511,o),
(4161,552,o),
(4134,507,c),
(4042,371,o),
(4004,208,o),
(3940,58,c),
(3942,61,o),
(3943,65,o),
(3944,68,c),
(3941,59,o),
(3937,51,o),
(3933,42,c),
(3958,39,o),
(3983,36,o),
(4007,33,c),
(3974,101,o),
(3868,772,o),
(3762,472,c),
(3763,476,o),
(3765,479,o),
(3766,482,c),
(3702,330,o),
(3628,181,o),
(3571,26,c),
(3649,26,l),
(3596,183,o),
(3571,348,o),
(3529,509,c),
(3515,559,o),
(3436,538,o),
(3450,487,c)
);
},
{
closed = 1;
nodes = (
(4711,166,o),
(4699,621,o),
(4368,519,c),
(4201,452,o),
(4143,206,o),
(4259,69,c),
(4353,-47,o),
(4530,-21,o),
(4624,80,c),
(4663,132,o),
(4598,184,o),
(4540,114,c),
(4544,118,o),
(4545,119,o),
(4545,118,c),
(4529,105,o),
(4507,93,o),
(4487,84,c),
(4490,85,o),
(4494,87,o),
(4497,88,c),
(4479,81,o),
(4461,75,o),
(4442,73,c),
(4446,73,o),
(4449,74,o),
(4453,74,c),
(4436,72,o),
(4418,72,o),
(4401,74,c),
(4412,72,l),
(4397,75,o),
(4382,79,o),
(4368,84,c),
(4371,83,o),
(4374,82,o),
(4378,80,c),
(4344,96,o),
(4337,102,o),
(4313,129,c),
(4310,134,o),
(4316,126,o),
(4316,126,c),
(4306,139,o),
(4298,154,o),
(4291,169,c),
(4293,166,o),
(4294,162,o),
(4295,159,c),
(4288,177,o),
(4283,196,o),
(4280,215,c),
(4281,212,o),
(4281,208,o),
(4282,205,c),
(4278,229,o),
(4279,255,o),
(4282,279,c),
(4282,276,o),
(4281,272,o),
(4281,269,c),
(4285,297,o),
(4292,325,o),
(4303,351,c),
(4302,348,o),
(4300,344,o),
(4299,341,c),
(4304,354,o),
(4311,367,o),
(4318,378,c),
(4331,395,o),
(4366,433,o),
(4399,445,c),
(4396,444,o),
(4392,442,o),
(4389,441,c),
(4404,447,o),
(4420,451,o),
(4436,453,c),
(4425,452,l),
(4443,454,o),
(4462,456,o),
(4481,454,c),
(4470,455,l),
(4479,454,o),
(4488,452,o),
(4497,448,c),
(4494,450,o),
(4491,451,o),
(4488,452,c),
(4509,441,o),
(4502,446,o),
(4517,431,c),
(4519,429,o),
(4520,425,o),
(4514,435,c),
(4518,429,o),
(4522,422,o),
(4525,416,c),
(4524,419,o),
(4522,422,o),
(4521,425,c),
(4524,417,o),
(4527,408,o),
(4528,400,c),
(4528,403,o),
(4527,407,o),
(4527,410,c),
(4528,401,o),
(4528,391,o),
(4527,381,c),
(4527,385,o),
(4528,388,o),
(4528,392,c),
(4527,382,o),
(4524,373,o),
(4520,364,c),
(4522,367,o),
(4523,370,o),
(4524,374,c),
(4503,332,o),
(4489,324,o),
(4440,300,c),
(4443,301,o),
(4447,302,o),
(4450,304,c),
(4418,290,o),
(4385,283,o),
(4351,278,c),
(4362,280,l),
(4328,275,o),
(4294,274,o),
(4261,275,c),
(4208,275,o),
(4208,194,o),
(4261,194,c)
);
}
);
};
layerId = "5DCC9526-0CDB-4D46-AD68-9B34B77CA9D9";
name = "Original Variations";
shapes = (
{
closed = 1;
nodes = (
(81,68,o),
(81,101,o),
(81,134,cs),
(81,335,o),
(106,535,o),
(112,735,c),
(71,694,l),
(132,697,o),
(192,706,o),
(252,706,cs),
(274,706,o),
(295,705,o),
(316,702,c),
(305,704,l),
(326,701,o),
(347,696,o),
(366,688,cs),
(363,689,o),
(360,691,o),
(357,692,c),
(396,671,o),
(389,677,o),
(408,644,c),
(407,647,o),
(406,650,o),
(404,654,cs),
(409,642,o),
(412,630,o),
(414,618,c),
(412,629,l),
(413,620,o),
(414,611,o),
(414,602,cs),
(414,591,o),
(413,580,o),
(412,569,c),
(412,573,o),
(413,577,o),
(413,580,c),
(411,566,o),
(408,552,o),
(402,539,c),
(404,542,o),
(405,545,o),
(406,548,cs),
(402,537,o),
(395,526,o),
(388,517,c),
(392,523,o),
(393,524,o),
(393,524,c),
(391,521,ls),
(371,491,o),
(365,494,o),
(327,476,cs),
(330,477,o),
(334,478,o),
(337,480,c),
(304,466,o),
(201,451,o),
(235,454,cs),
(245,455,ls),
(303,461,o),
(128,448,o),
(70,447,c),
(70,366,l),
(95,368,o),
(121,370,o),
(146,370,cs),
(176,370,o),
(206,368,o),
(236,364,c),
(232,364,o),
(228,365,o),
(225,365,c),
(260,360,o),
(295,352,o),
(328,339,cs),
(325,340,o),
(322,341,o),
(318,343,cs),
(371,317,o),
(381,311,o),
(404,266,cs),
(402,270,o),
(401,273,o),
(399,276,c),
(405,263,o),
(408,250,o),
(410,236,c),
(410,240,o),
(409,243,o),
(409,247,c),
(410,238,o),
(410,230,o),
(410,222,cs),
(410,212,o),
(410,202,o),
(408,192,c),
(410,202,ls),
(413,217,o),
(404,172,o),
(400,157,cs),
(401,161,o),
(402,164,o),
(404,167,cs),
(383,136,o),
(369,122,o),
(322,100,c),
(325,102,o),
(329,103,o),
(332,105,c),
(304,93,o),
(275,87,o),
(246,83,c),
(249,83,o),
(253,84,o),
(257,84,c),
(227,80,o),
(197,79,o),
(167,79,cs),
(126,79,o),
(85,81,o),
(45,83,cs),
(23,84,o),
(3,64,o),
(4,43,cs),
(5,20,o),
(22,3,o),
(45,2,cs),
(85,0,o),
(125,-2,o),
(165,-2,cs),
(203,-2,o),
(240,0,o),
(278,6,cs),
(394,20,o),
(492,101,o),
(492,216,cs),
(492,230,o),
(491,245,o),
(488,260,cs),
(474,358,o),
(379,419,o),
(287,436,cs),
(245,443,o),
(190,452,o),
(138,452,cs),
(102,452,o),
(67,448,o),
(41,435,c),
(33,427,o),
(30,418,o),
(30,408,cs),
(30,386,o),
(46,365,o),
(70,366,cs),
(140,367,o),
(210,367,o),
(279,379,c),
(421,395,o),
(497,501,o),
(497,601,cs),
(497,696,o),
(429,785,o),
(282,786,cs),
(218,789,o),
(154,781,o),
(91,777,c),
(63,778,o),
(31,768,o),
(31,735,cs),
(25,535,o),
(0,335,o),
(0,134,cs),
(0,101,o),
(0,68,o),
(2,35,cs),
(2,9,o),
(22,-4,o),
(43,-4,cs),
(63,-4,o),
(83,9,o),
(83,35,cs)
);
},
{
closed = 1;
nodes = (
(918,36,ls),
(917,10,o),
(938,-3,o),
(958,-3,cs),
(979,-3,o),
(998,10,o),
(999,36,cs),
(1026,734,ls),
(1027,760,o),
(1006,773,o),
(986,773,cs),
(966,773,o),
(946,760,o),
(945,734,cs)
);
},
{
closed = 1;
nodes = (
(1054,689,o),
(1073,690,o),
(1091,690,cs),
(1117,690,o),
(1195,680,o),
(1169,685,cs),
(1158,687,ls),
(1130,692,o),
(1215,676,o),
(1241,665,c),
(1238,667,o),
(1235,668,o),
(1232,669,cs),
(1284,644,o),
(1294,636,o),
(1318,587,c),
(1317,590,o),
(1315,593,o),
(1314,597,c),
(1319,585,o),
(1321,572,o),
(1322,560,cs),
(1322,564,o),
(1321,567,o),
(1321,571,c),
(1322,564,o),
(1323,557,o),
(1323,550,cs),
(1323,542,o),
(1322,535,o),
(1321,528,c),
(1323,539,l),
(1321,527,o),
(1318,516,o),
(1314,506,cs),
(1315,509,o),
(1317,512,o),
(1318,515,c),
(1298,476,o),
(1290,471,o),
(1244,449,cs),
(1247,450,o),
(1251,451,o),
(1254,453,c),
(1229,442,o),
(1202,436,o),
(1175,432,c),
(1179,432,o),
(1182,433,o),
(1186,433,c),
(1169,431,o),
(1151,430,o),
(1133,430,cs),
(1115,430,o),
(1098,431,o),
(1080,433,c),
(1084,433,o),
(1088,432,o),
(1091,432,c),
(1088,432,o),
(1085,433,o),
(1081,434,c),
(1078,407,o),
(1074,380,o),
(1070,354,c),
(1088,357,o),
(1107,358,o),
(1125,358,cs),
(1142,358,o),
(1192,353,o),
(1175,355,cs),
(1165,356,l),
(1191,352,o),
(1217,346,o),
(1242,335,c),
(1239,337,o),
(1236,338,o),
(1233,339,cs),
(1291,311,o),
(1307,299,o),
(1332,248,c),
(1331,252,o),
(1329,255,o),
(1328,258,cs),
(1333,246,o),
(1336,234,o),
(1338,222,c),
(1337,232,l),
(1338,221,o),
(1338,209,o),
(1337,197,cs),
(1337,201,o),
(1338,204,o),
(1338,208,cs),
(1337,196,o),
(1334,185,o),
(1329,174,c),
(1333,184,l),
(1309,136,o),
(1293,126,o),
(1235,98,c),
(1245,102,ls),
(1274,114,o),
(1185,82,o),
(1154,76,c),
(1158,76,o),
(1161,77,o),
(1165,77,c),
(1141,74,o),
(1117,73,o),
(1094,73,cs),
(1024,73,o),
(955,83,o),
(886,87,cs),
(860,88,o),
(847,67,o),
(847,47,cs),
(847,27,o),
(860,6,o),
(886,6,c),
(953,1,o),
(1021,-8,o),
(1088,-8,cs),
(1132,-8,o),
(1175,-4,o),
(1217,7,cs),
(1316,29,o),
(1420,111,o),
(1420,215,cs),
(1420,233,o),
(1417,251,o),
(1410,270,cs),
(1373,377,o),
(1251,440,o),
(1137,440,cs),
(1104,440,o),
(1071,434,o),
(1042,423,c),
(1034,416,o),
(1031,405,o),
(1031,395,cs),
(1031,377,o),
(1041,359,o),
(1060,355,cs),
(1084,351,o),
(1110,349,o),
(1136,349,cs),
(1225,349,o),
(1318,375,o),
(1373,448,cs),
(1395,479,o),
(1404,513,o),
(1404,547,cs),
(1404,639,o),
(1333,729,o),
(1239,752,cs),
(1215,759,o),
(1145,773,o),
(1087,773,cs),
(1036,773,o),
(994,763,o),
(995,728,cs),
(996,708,o),
(1013,686,o),
(1036,688,cs)
);
},
{
closed = 1;
nodes = (
(1845,566,o),
(1837,388,o),
(1837,210,cs),
(1837,155,o),
(1837,101,o),
(1839,47,cs),
(1839,21,o),
(1860,8,o),
(1880,8,cs),
(1900,8,o),
(1921,21,o),
(1920,47,cs),
(1918,102,o),
(1918,156,o),
(1918,211,cs),
(1918,337,o),
(1922,463,o),
(1931,589,c),
(1928,620,o),
(1943,683,o),
(1943,728,cs),
(1943,747,o),
(1940,763,o),
(1932,771,cs),
(1924,779,o),
(1914,783,o),
(1904,783,cs),
(1883,783,o),
(1863,767,o),
(1863,743,c)
);
},
{
closed = 1;
nodes = (
(1952,702,o),
(1980,708,o),
(2008,712,c),
(2005,711,o),
(2001,711,o),
(1998,710,c),
(2022,713,o),
(2047,716,o),
(2072,716,cs),
(2090,716,o),
(2107,715,o),
(2125,712,cs),
(2114,714,l),
(2138,711,o),
(2162,705,o),
(2185,695,c),
(2182,697,o),
(2178,698,o),
(2175,699,c),
(2222,675,o),
(2222,677,o),
(2243,637,c),
(2242,641,o),
(2241,644,o),
(2239,647,c),
(2243,637,o),
(2246,627,o),
(2248,617,c),
(2247,620,o),
(2247,624,o),
(2246,628,c),
(2247,617,o),
(2247,605,o),
(2246,594,c),
(2246,598,o),
(2247,602,o),
(2247,605,cs),
(2246,592,o),
(2242,580,o),
(2237,568,c),
(2239,571,o),
(2240,574,o),
(2241,577,cs),
(2235,563,o),
(2227,550,o),
(2218,538,c),
(2222,544,o),
(2224,546,o),
(2224,546,c),
(2224,545,o),
(2221,541,o),
(2219,539,cs),
(2187,504,o),
(2173,495,o),
(2124,472,c),
(2127,474,o),
(2130,475,o),
(2134,477,cs),
(2100,462,o),
(2064,453,o),
(2027,448,c),
(2031,449,o),
(2035,449,o),
(2038,450,c),
(2013,447,o),
(1988,445,o),
(1962,445,cs),
(1933,445,o),
(1904,447,o),
(1876,451,cs),
(1886,450,ls),
(1883,450,o),
(1880,451,o),
(1877,451,c),
(1866,371,l),
(1918,375,o),
(1970,380,o),
(2023,380,cs),
(2050,380,o),
(2077,379,o),
(2104,375,c),
(2101,376,o),
(2097,376,o),
(2094,377,c),
(2123,373,o),
(2151,366,o),
(2178,355,cs),
(2175,356,o),
(2172,358,o),
(2169,359,cs),
(2185,352,o),
(2201,343,o),
(2216,332,cs),
(2210,336,o),
(2209,337,o),
(2210,337,c),
(2221,329,o),
(2232,317,o),
(2241,305,c),
(2240,307,o),
(2234,314,o),
(2239,309,c),
(2247,297,o),
(2255,284,o),
(2260,270,cs),
(2259,273,o),
(2258,276,o),
(2256,280,cs),
(2261,268,o),
(2265,256,o),
(2267,243,c),
(2265,254,l),
(2266,247,o),
(2267,239,o),
(2267,231,cs),
(2267,223,o),
(2266,216,o),
(2265,208,c),
(2267,219,l),
(2265,204,o),
(2261,190,o),
(2255,176,c),
(2259,186,l),
(2253,172,o),
(2245,158,o),
(2236,146,c),
(2235,143,o),
(2230,139,o),
(2239,149,c),
(2227,134,o),
(2213,120,o),
(2198,108,c),
(2208,117,o),
(2203,112,o),
(2200,110,cs),
(2181,96,o),
(2160,84,o),
(2138,75,cs),
(2141,76,o),
(2144,77,o),
(2148,79,cs),
(2124,69,o),
(2099,62,o),
(2074,58,c),
(2077,59,o),
(2081,59,o),
(2085,60,c),
(2060,57,o),
(2036,55,o),
(2011,55,cs),
(1960,55,o),
(1910,61,o),
(1860,67,cs),
(1850,68,o),
(1838,62,o),
(1831,55,cs),
(1823,47,o),
(1820,38,o),
(1820,28,cs),
(1820,7,o),
(1836,-14,o),
(1860,-14,c),
(1914,-20,o),
(1969,-27,o),
(2023,-26,cs),
(2234,-19,o),
(2349,108,o),
(2349,231,cs),
(2349,349,o),
(2243,464,o),
(2014,464,cs),
(1975,464,o),
(1934,461,o),
(1889,454,c),
(1853,459,o),
(1826,435,o),
(1826,410,cs),
(1826,396,o),
(1835,382,o),
(1856,373,c),
(1896,366,o),
(1934,362,o),
(1970,362,cs),
(2193,362,o),
(2329,496,o),
(2329,616,cs),
(2329,704,o),
(2254,785,o),
(2084,797,c),
(2023,798,o),
(1962,788,o),
(1902,774,cs),
(1882,768,o),
(1873,753,o),
(1873,737,cs),
(1873,716,o),
(1888,694,o),
(1912,694,cs),
(1916,694,o),
(1920,695,o),
(1924,696,cs)
);
},
{
closed = 1;
nodes = (
(2772,499,o),
(2767,270,o),
(2767,41,cs),
(2767,20,o),
(2786,0,o),
(2808,1,cs),
(2830,2,o),
(2848,19,o),
(2848,41,cs),
(2848,270,o),
(2853,499,o),
(2864,728,cs),
(2864,754,o),
(2844,767,o),
(2823,767,cs),
(2803,767,o),
(2783,754,o),
(2783,728,cs)
);
},
{
closed = 1;
nodes = (
(2844,687,o),
(2886,696,o),
(2928,702,c),
(2925,701,o),
(2921,701,o),
(2917,700,c),
(2946,704,o),
(2974,707,o),
(3003,707,cs),
(3023,707,o),
(3043,705,o),
(3062,703,cs),
(3059,703,o),
(3055,704,o),
(3051,704,c),
(3076,701,o),
(3100,695,o),
(3123,686,cs),
(3120,687,o),
(3116,688,o),
(3113,690,c),
(3141,676,o),
(3151,671,o),
(3166,656,c),
(3154,673,o),
(3175,643,o),
(3175,638,c),
(3174,642,o),
(3173,645,o),
(3171,648,c),
(3175,638,o),
(3178,628,o),
(3180,617,cs),
(3179,621,o),
(3179,625,o),
(3178,628,c),
(3179,622,o),
(3180,616,o),
(3180,610,cs),
(3180,603,o),
(3179,597,o),
(3178,591,c),
(3179,594,o),
(3179,598,o),
(3180,601,c),
(3177,586,o),
(3173,571,o),
(3167,557,c),
(3169,560,o),
(3170,563,o),
(3171,566,cs),
(3155,532,o),
(3152,528,o),
(3127,505,cs),
(3121,500,o),
(3128,505,o),
(3129,506,cs),
(3108,490,o),
(3084,478,o),
(3060,467,c),
(3063,469,o),
(3067,470,o),
(3070,471,cs),
(2987,437,o),
(2896,431,o),
(2810,410,cs),
(2791,406,o),
(2781,389,o),
(2781,371,cs),
(2781,357,o),
(2787,343,o),
(2800,336,c),
(2809,333,o),
(2818,332,o),
(2827,332,cs),
(2863,332,o),
(2901,349,o),
(2937,350,cs),
(2933,350,o),
(2930,349,o),
(2926,349,c),
(2952,352,o),
(2979,355,o),
(3005,355,cs),
(3020,355,o),
(3035,354,o),
(3050,352,c),
(3047,352,o),
(3043,353,o),
(3039,353,c),
(3060,350,o),
(3081,345,o),
(3101,337,c),
(3098,339,o),
(3094,340,o),
(3091,341,cs),
(3104,336,o),
(3117,329,o),
(3129,321,c),
(3131,319,o),
(3139,312,o),
(3129,321,cs),
(3136,315,o),
(3143,309,o),
(3148,302,c),
(3139,312,o),
(3146,305,o),
(3147,302,c),
(3153,295,o),
(3157,286,o),
(3161,278,c),
(3160,281,o),
(3158,284,o),
(3157,287,cs),
(3162,274,o),
(3166,260,o),
(3168,246,c),
(3167,256,l),
(3168,250,o),
(3168,244,o),
(3168,238,cs),
(3168,229,o),
(3167,219,o),
(3166,209,c),
(3167,212,o),
(3167,216,o),
(3168,220,c),
(3166,203,o),
(3161,187,o),
(3155,171,cs),
(3156,174,o),
(3157,178,o),
(3159,181,cs),
(3130,124,o),
(3108,105,o),
(3046,76,cs),
(3049,77,o),
(3052,79,o),
(3055,80,cs),
(3023,67,o),
(2921,51,o),
(2955,54,cs),
(2965,55,ls),
(2994,58,o),
(2906,50,o),
(2876,50,cs),
(2842,50,o),
(2807,52,o),
(2773,55,cs),
(2752,56,o),
(2732,36,o),
(2733,14,c),
(2730,-23,o),
(2787,-32,o),
(2848,-32,cs),
(2902,-32,o),
(2959,-25,o),
(2981,-24,c),
(3089,-10,o),
(3199,52,o),
(3236,159,cs),
(3244,182,o),
(3249,208,o),
(3249,233,cs),
(3249,293,o),
(3225,352,o),
(3175,386,cs),
(3124,423,o),
(3066,435,o),
(3006,435,cs),
(2940,435,o),
(2873,421,o),
(2810,410,c),
(2831,332,l),
(2973,365,o),
(3157,369,o),
(3235,513,cs),
(3253,548,o),
(3261,581,o),
(3261,610,cs),
(3261,725,o),
(3136,793,o),
(3006,788,cs),
(2937,788,o),
(2869,776,o),
(2802,760,c),
(2778,758,o),
(2751,742,o),
(2751,717,cs),
(2751,713,o),
(2752,709,o),
(2753,705,cs),
(2759,687,o),
(2774,676,o),
(2792,676,cs),
(2795,676,o),
(2799,676,o),
(2802,677,cs)
);
},
{
closed = 1;
nodes = (
(3700,486,o),
(3696,265,o),
(3678,45,cs),
(3677,19,o),
(3698,6,o),
(3718,6,cs),
(3739,6,o),
(3759,19,o),
(3759,45,c),
(3777,265,o),
(3781,486,o),
(3794,707,c),
(3794,733,o),
(3774,746,o),
(3754,746,cs),
(3733,746,o),
(3713,733,o),
(3713,707,c)
);
},
{
closed = 1;
nodes = (
(3733,692,o),
(3765,694,o),
(3798,694,cs),
(3834,694,o),
(3943,684,o),
(3907,687,cs),
(3896,688,ls),
(3856,692,o),
(3977,674,o),
(4014,658,cs),
(4011,659,o),
(4008,661,o),
(4004,662,c),
(4054,638,o),
(4064,633,o),
(4083,595,c),
(4079,605,l),
(4081,598,o),
(4083,591,o),
(4084,584,c),
(4083,588,o),
(4083,592,o),
(4082,595,c),
(4083,585,o),
(4083,575,o),
(4082,565,c),
(4084,576,l),
(4082,564,o),
(4079,552,o),
(4074,541,c),
(4078,551,l),
(4057,509,o),
(4048,500,o),
(4005,480,c),
(4009,481,o),
(4012,483,o),
(4015,484,cs),
(3988,473,o),
(3904,461,o),
(3932,464,cs),
(3942,465,l),
(3881,453,o),
(3801,463,o),
(3754,417,c),
(3751,407,o),
(3749,398,o),
(3749,391,cs),
(3749,366,o),
(3768,359,o),
(3792,359,cs),
(3823,359,o),
(3864,371,o),
(3887,373,c),
(3876,371,l),
(3899,374,o),
(3921,376,o),
(3944,376,cs),
(3959,376,o),
(3975,375,o),
(3990,373,c),
(3979,375,ls),
(3956,379,o),
(4024,366,o),
(4045,358,cs),
(4042,359,o),
(4038,360,o),
(4035,362,c),
(4050,355,o),
(4064,347,o),
(4077,337,cs),
(4076,338,o),
(4069,344,o),
(4074,340,cs),
(4100,316,o),
(4100,317,o),
(4117,284,cs),
(4115,287,o),
(4114,290,o),
(4113,293,cs),
(4118,280,o),
(4122,267,o),
(4124,252,c),
(4123,256,o),
(4123,260,o),
(4122,263,c),
(4123,257,o),
(4124,250,o),
(4124,244,cs),
(4124,237,o),
(4123,231,o),
(4122,224,c),
(4123,227,o),
(4123,231,o),
(4124,234,c),
(4122,221,o),
(4118,208,o),
(4113,195,c),
(4115,198,o),
(4116,202,o),
(4117,205,cs),
(4112,192,o),
(4105,180,o),
(4096,169,cs),
(4101,175,o),
(4101,176,o),
(4101,175,c),
(4093,164,o),
(4081,153,o),
(4070,144,cs),
(4075,148,o),
(4076,149,o),
(4075,149,c),
(4060,136,o),
(4038,124,o),
(4018,115,c),
(4021,117,o),
(4024,118,o),
(4027,119,cs),
(3997,107,o),
(3966,100,o),
(3934,95,c),
(3937,96,o),
(3941,96,o),
(3944,97,c),
(3853,85,o),
(3760,95,o),
(3669,77,c),
(3648,68,o),
(3639,53,o),
(3639,38,cs),
(3639,18,o),
(3658,-2,o),
(3688,-2,cs),
(3696,-2,o),
(3706,-1,o),
(3716,3,c),
(3706,2,ls),
(3583,-10,o),
(3960,-5,o),
(4075,53,c),
(4159,89,o),
(4203,168,o),
(4203,245,cs),
(4203,319,o),
(4164,392,o),
(4083,429,cs),
(4038,449,o),
(3992,457,o),
(3945,457,cs),
(3889,457,o),
(3833,446,o),
(3778,435,c),
(3785,409,o),
(3792,383,o),
(3800,357,c),
(3826,368,o),
(3854,373,o),
(3882,377,c),
(3878,377,o),
(3875,376,o),
(3871,376,cs),
(3949,385,o),
(4036,388,o),
(4098,443,cs),
(4143,482,o),
(4164,529,o),
(4164,575,cs),
(4164,647,o),
(4111,715,o),
(4023,741,c),
(3995,755,o),
(3878,776,o),
(3784,776,cs),
(3714,776,o),
(3657,764,o),
(3660,728,cs),
(3660,707,o),
(3679,687,o),
(3701,688,cs)
);
}
);
width = 4203;
},
{
associatedMasterId = m01;
background = {
shapes = (
{
closed = 1;
nodes = (
(108,493,o),
(115,258,o),
(85,25,c),
(85,-1,o),
(105,-14,o),
(126,-14,cs),
(146,-14,o),
(166,-1,o),
(166,25,c),
(196,258,o),
(189,493,o),
(216,726,c),
(216,752,o),
(196,765,o),
(175,765,cs),
(155,765,o),
(135,752,o),
(135,726,c)
);
},
{
closed = 1;
nodes = (
(197,687,o),
(213,690,o),
(229,692,c),
(218,690,l),
(248,694,o),
(279,697,o),
(310,697,cs),
(330,697,o),
(350,696,o),
(370,693,c),
(359,694,ls),
(385,691,o),
(410,685,o),
(434,675,c),
(430,676,o),
(427,678,o),
(424,679,cs),
(436,674,o),
(447,668,o),
(458,660,cs),
(461,658,o),
(468,652,o),
(458,661,cs),
(478,643,o),
(477,644,o),
(488,622,c),
(487,625,o),
(486,628,o),
(484,632,cs),
(488,623,o),
(490,615,o),
(491,606,c),
(491,609,o),
(490,613,o),
(490,617,c),
(491,606,o),
(491,596,o),
(490,586,c),
(490,590,o),
(491,593,o),
(491,597,c),
(490,586,o),
(487,575,o),
(482,565,c),
(484,568,o),
(485,572,o),
(487,575,c),
(462,523,o),
(435,505,o),
(375,476,cs),
(384,481,l),
(350,466,o),
(314,457,o),
(277,452,c),
(281,453,o),
(285,453,o),
(288,454,c),
(264,451,o),
(240,449,o),
(215,449,cs),
(193,449,o),
(170,451,o),
(148,453,cs),
(127,454,o),
(107,434,o),
(108,413,cs),
(108,377,o),
(152,366,o),
(205,366,cs),
(265,366,o),
(336,381,o),
(362,387,cs),
(489,416,o),
(570,515,o),
(570,606,cs),
(570,678,o),
(519,746,o),
(398,770,cs),
(379,773,o),
(334,778,o),
(285,778,cs),
(210,778,o),
(129,767,o),
(129,724,cs),
(129,720,o),
(130,716,o),
(131,712,cs),
(137,693,o),
(152,683,o),
(171,683,cs),
(174,683,o),
(178,683,o),
(181,684,cs)
);
},
{
closed = 1;
nodes = (
(266,374,o),
(304,373,o),
(341,368,cs),
(331,369,ls),
(369,364,o),
(407,355,o),
(443,340,cs),
(439,342,o),
(436,343,o),
(433,344,cs),
(451,337,o),
(469,327,o),
(485,316,c),
(488,313,o),
(481,318,o),
(481,318,c),
(506,297,o),
(508,296,o),
(521,269,c),
(520,272,o),
(518,275,o),
(517,278,cs),
(521,268,o),
(524,258,o),
(525,248,c),
(524,259,l),
(525,248,o),
(525,238,o),
(523,228,c),
(524,231,o),
(524,235,o),
(525,238,c),
(523,227,o),
(520,215,o),
(516,204,c),
(517,208,o),
(518,211,o),
(520,214,c),
(514,201,o),
(507,188,o),
(498,177,cs),
(500,179,o),
(501,181,o),
(502,182,cs),
(491,168,o),
(477,155,o),
(463,143,c),
(473,151,o),
(467,146,o),
(464,145,c),
(444,129,o),
(421,117,o),
(397,107,cs),
(400,108,o),
(403,110,o),
(407,111,c),
(370,96,o),
(331,86,o),
(291,81,c),
(295,81,o),
(299,82,o),
(302,82,cs),
(276,79,o),
(251,77,o),
(225,77,cs),
(195,77,o),
(165,79,o),
(136,83,c),
(139,83,o),
(143,83,o),
(147,82,cs),
(140,84,o),
(134,85,o),
(128,85,cs),
(101,85,o),
(85,62,o),
(85,41,cs),
(85,21,o),
(97,3,o),
(125,0,c),
(147,1,o),
(168,19,o),
(165,43,c),
(165,39,o),
(165,35,o),
(164,32,c),
(164,34,l),
(148,24,o),
(131,15,o),
(115,5,c),
(151,0,o),
(189,-3,o),
(227,-3,cs),
(341,-3,o),
(456,24,o),
(540,103,cs),
(585,145,o),
(605,193,o),
(605,240,cs),
(605,318,o),
(548,392,o),
(455,422,cs),
(428,432,o),
(335,456,o),
(266,456,cs),
(220,456,o),
(185,446,o),
(187,414,cs),
(188,392,o),
(205,373,o),
(228,374,cs)
);
}
);
};
layerId = "0D9B6BBC-3C9F-4C28-B93B-27CA25E6C906";
name = Original;
shapes = (
{
closed = 1;
nodes = (
(108,493,o),
(115,258,o),
(85,25,c),
(85,-1,o),
(105,-14,o),
(126,-14,cs),
(146,-14,o),
(166,-1,o),
(166,25,c),
(196,258,o),
(189,493,o),
(216,726,c),
(216,752,o),
(196,765,o),
(175,765,cs),
(155,765,o),
(135,752,o),
(135,726,c)
);
},
{
closed = 1;
nodes = (
(197,687,o),
(213,690,o),
(229,692,c),
(218,690,l),
(248,694,o),
(279,697,o),
(310,697,cs),
(330,697,o),
(350,696,o),
(370,693,c),
(359,694,ls),
(385,691,o),
(410,685,o),
(434,675,c),
(430,676,o),
(427,678,o),
(424,679,cs),
(436,674,o),
(447,668,o),
(458,660,cs),
(461,658,o),
(468,652,o),
(458,661,cs),
(478,643,o),
(477,644,o),
(488,622,c),
(487,625,o),
(486,628,o),
(484,632,cs),
(488,623,o),
(490,615,o),
(491,606,c),
(491,609,o),
(490,613,o),
(490,617,c),
(491,606,o),
(491,596,o),
(490,586,c),
(490,590,o),
(491,593,o),
(491,597,c),
(490,586,o),
(487,575,o),
(482,565,c),
(484,568,o),
(485,572,o),
(487,575,c),
(462,523,o),
(435,505,o),
(375,476,cs),
(384,481,l),
(350,466,o),
(314,457,o),
(277,452,c),
(281,453,o),
(285,453,o),
(288,454,c),
(264,451,o),
(240,449,o),
(215,449,cs),
(193,449,o),
(170,451,o),
(148,453,cs),
(127,454,o),
(107,434,o),
(108,413,cs),
(108,377,o),
(152,366,o),
(205,366,cs),
(265,366,o),
(336,381,o),
(362,387,cs),
(489,416,o),
(570,515,o),
(570,606,cs),
(570,678,o),
(519,746,o),
(398,770,cs),
(379,773,o),
(334,778,o),
(285,778,cs),
(210,778,o),
(129,767,o),
(129,724,cs),
(129,720,o),
(130,716,o),
(131,712,cs),
(137,693,o),
(152,683,o),
(171,683,cs),
(174,683,o),
(178,683,o),
(181,684,cs)
);
},
{
closed = 1;
nodes = (
(266,374,o),
(304,373,o),
(341,368,cs),
(331,369,ls),
(369,364,o),
(407,355,o),
(443,340,cs),
(439,342,o),
(436,343,o),
(433,344,cs),
(451,337,o),
(469,327,o),
(485,316,c),
(488,313,o),
(481,318,o),
(481,318,c),
(506,297,o),
(508,296,o),
(521,269,c),
(520,272,o),
(518,275,o),
(517,278,cs),
(521,268,o),
(524,258,o),
(525,248,c),
(524,259,l),
(525,248,o),
(525,238,o),
(523,228,c),
(524,231,o),
(524,235,o),
(525,238,c),
(523,227,o),
(520,215,o),
(516,204,c),
(517,208,o),
(518,211,o),
(520,214,c),
(514,201,o),
(507,188,o),
(498,177,cs),
(500,179,o),
(501,181,o),
(502,182,cs),
(491,168,o),
(477,155,o),
(463,143,c),
(473,151,o),
(467,146,o),
(464,145,c),
(444,129,o),
(421,117,o),
(397,107,cs),
(400,108,o),
(403,110,o),
(407,111,c),
(370,96,o),
(331,86,o),
(291,81,c),
(295,81,o),
(299,82,o),
(302,82,cs),
(276,79,o),
(251,77,o),
(225,77,cs),
(195,77,o),
(165,79,o),
(136,83,c),
(139,83,o),
(143,83,o),
(147,82,cs),
(140,84,o),
(134,85,o),
(128,85,cs),
(101,85,o),
(85,62,o),
(85,41,cs),
(85,21,o),
(97,3,o),
(125,0,c),
(147,1,o),
(168,19,o),
(165,43,c),
(165,39,o),
(165,35,o),
(164,32,c),
(164,34,l),
(148,24,o),
(131,15,o),
(115,5,c),
(151,0,o),
(189,-3,o),
(227,-3,cs),
(341,-3,o),
(456,24,o),
(540,103,cs),
(585,145,o),
(605,193,o),
(605,240,cs),
(605,318,o),
(548,392,o),
(455,422,cs),
(428,432,o),
(335,456,o),
(266,456,cs),
(220,456,o),
(185,446,o),
(187,414,cs),
(188,392,o),
(205,373,o),
(228,374,cs)
);
}
);
width = 660;
},
{
associatedMasterId = m01;
background = {
shapes = (
{
closed = 1;
nodes = (
(110,493,o),
(116,246,o),
(87,25,cs),
(84,-1,o),
(107,-14,o),
(128,-14,cs),
(148,-14,o),
(165,-1,o),
(168,25,cs),
(198,258,o),
(191,493,o),
(218,726,c),
(218,752,o),
(198,765,o),
(177,765,cs),
(157,765,o),
(137,752,o),
(137,726,c)
);
},
{
closed = 1;
nodes = (
(199,687,o),
(270,697,o),
(312,697,cs),
(361,697,o),
(420,689,o),
(460,660,cs),
(475,650,o),
(492,630,o),
(492,601,cs),
(492,519,o),
(390,471,o),
(295,455,c),
(285,456,o),
(277,456,o),
(268,456,cs),
(248,456,o),
(229,454,o),
(216,449,c),
(192,448,o),
(172,451,o),
(150,453,cs),
(129,454,o),
(123,434,o),
(124,413,cs),
(124,377,o),
(154,366,o),
(207,366,cs),
(233,366,o),
(261,369,o),
(287,373,c),
(338,370,o),
(390,362,o),
(435,344,cs),
(492,321,o),
(527,285,o),
(527,242,cs),
(527,181,o),
(469,136,o),
(403,109,cs),
(347,85,o),
(251,67,o),
(138,84,cs),
(103,89,o),
(87,62,o),
(87,41,cs),
(87,21,o),
(99,-1,o),
(127,0,cs),
(149,1,o),
(188,-3,o),
(229,-3,cs),
(343,-3,o),
(458,24,o),
(542,103,cs),
(587,145,o),
(607,193,o),
(607,240,cs),
(607,318,o),
(546,393,o),
(453,423,c),
(530,470,o),
(572,539,o),
(572,606,cs),
(572,745,o),
(418,778,o),
(304,778,cs),
(212,778,o),
(131,767,o),
(131,724,cs),
(131,705,o),
(142,678,o),
(173,683,cs)
);
}
);
};
layerId = "54A53A4E-4546-422B-A213-57E1A70B8B6E";
name = "6 Jan 23_Laura";
shapes = (
{
closed = 1;
nodes = (
(102,495,o),
(125,249,o),
(112,26,cs),
(110,0,o),
(134,-11,o),
(155,-10,cs),
(175,-8,o),
(191,6,o),
(192,32,cs),
(206,266,o),
(183,500,o),
(193,735,c),
(192,761,o),
(171,772,o),
(150,771,cs),
(130,769,o),
(111,755,o),
(113,729,c)
);
},
{
closed = 1;
nodes = (
(199,690,o),
(270,700,o),
(312,700,cs),
(387,700,o),
(492,677,o),
(492,601,cs),
(492,488,o),
(315,447,o),
(216,447,cs),
(192,447,o),
(172,449,o),
(150,451,cs),
(129,452,o),
(123,434,o),
(124,413,cs),
(124,377,o),
(154,367,o),
(207,367,cs),
(233,367,o),
(261,370,o),
(300,376,c),
(384,375,o),
(526,337,o),
(526,242,cs),
(526,132,o),
(354,77,o),
(227,77,cs),
(199,77,o),
(169,79,o),
(138,84,c),
(127,5,l),
(149,3,o),
(188,-1,o),
(229,-1,cs),
(406,-1,o),
(607,84,o),
(607,240,cs),
(607,318,o),
(546,393,o),
(435,423,c),
(530,464,o),
(572,539,o),
(572,606,cs),
(572,745,o),
(418,778,o),
(304,778,cs),
(236,778,o),
(200,772,o),
(173,764,c),
(173,686,l)
);
}
);
width = 662;
},
{
anchors = (
{
name = bottom;
pos = (318,0);
},
{
name = center;
pos = (331,382);
},
{
name = top;
pos = (344,764);
}
);
background = {
shapes = (
{
closed = 1;
nodes = (
(101,493,o),
(107,246,o),
(78,25,cs),
(75,-1,o),
(98,-14,o),
(119,-14,cs),
(139,-14,o),
(156,-1,o),
(159,25,cs),
(189,258,o),
(182,493,o),
(209,726,c),
(209,752,o),
(189,765,o),
(168,765,cs),
(148,765,o),
(128,752,o),
(128,726,c)
);
},
{
closed = 1;
nodes = (
(190,690,o),
(261,700,o),
(303,700,cs),
(378,700,o),
(483,677,o),
(483,601,cs),
(483,488,o),
(306,447,o),
(207,447,cs),
(183,447,o),
(163,449,o),
(141,451,cs),
(120,452,o),
(114,434,o),
(115,413,cs),
(115,377,o),
(145,367,o),
(198,367,cs),
(224,367,o),
(252,370,o),
(291,376,c),
(375,375,o),
(517,337,o),
(517,242,cs),
(517,132,o),
(345,77,o),
(218,77,cs),
(190,77,o),
(160,79,o),
(129,84,c),
(118,5,l),
(140,3,o),
(179,-1,o),
(220,-1,cs),
(397,-1,o),
(598,84,o),
(598,240,cs),
(598,318,o),
(537,393,o),
(426,423,c),
(521,464,o),
(563,539,o),
(563,606,cs),
(563,745,o),
(409,778,o),
(295,778,cs),
(227,778,o),
(191,772,o),
(164,764,c),
(164,686,l)
);
}
);
};
layerId = m002;
shapes = (
{
closed = 1;
nodes = (
(100,495,o),
(108,249,o),
(95,26,cs),
(93,0,o),
(117,-11,o),
(138,-10,cs),
(158,-8,o),
(174,6,o),
(175,32,cs),
(189,266,o),
(181,500,o),
(191,735,c),
(190,761,o),
(169,772,o),
(148,771,cs),
(128,769,o),
(109,755,o),
(111,729,c)
);
},
{
closed = 1;
nodes = (
(190,690,o),
(261,700,o),
(303,700,cs),
(378,700,o),
(483,677,o),
(483,601,cs),
(483,488,o),
(306,447,o),
(207,447,cs),
(183,447,o),
(163,449,o),
(141,451,cs),
(120,452,o),
(114,434,o),
(115,413,cs),
(115,377,o),
(145,367,o),
(198,367,cs),
(224,367,o),
(252,370,o),
(291,376,c),
(375,375,o),
(517,337,o),
(517,242,cs),
(517,132,o),
(345,77,o),
(218,77,cs),
(190,77,o),
(160,79,o),
(129,84,c),
(118,5,l),
(140,3,o),
(179,-1,o),
(220,-1,cs),
(397,-1,o),
(598,84,o),
(598,240,cs),
(598,318,o),
(537,393,o),
(426,423,c),
(521,464,o),
(563,539,o),
(563,606,cs),
(563,745,o),
(409,778,o),
(295,778,cs),
(227,778,o),
(191,772,o),
(164,764,c),
(164,686,l)
);
}
);
width = 653;
},
{
associatedMasterId = m002;
background = {
shapes = (
{
closed = 1;
nodes = (
(4838,340,o),
(4841,180,o),
(4820,21,c),
(4818,-13,o),
(4865,-33,o),
(4889,-7,c),
(4935,153,o),
(4911,333,o),
(4932,499,c),
(4932,552,o),
(4852,552,o),
(4851,499,c)
);
},
{
closed = 1;
nodes = (
(4915,264,o),
(4915,269,o),
(4916,273,c),
(4914,262,l),
(4918,286,o),
(4924,309,o),
(4934,331,c),
(4932,328,o),
(4931,324,o),
(4930,321,c),
(4946,366,o),
(4993,420,o),
(5010,431,c),
(5024,441,o),
(5038,450,o),
(5054,457,c),
(5051,456,o),
(5048,455,o),
(5044,453,c),
(5057,459,o),
(5070,462,o),
(5084,464,c),
(5080,464,o),
(5077,463,o),
(5073,463,c),
(5084,464,o),
(5095,464,o),
(5106,463,c),
(5103,463,o),
(5099,464,o),
(5095,464,c),
(5107,463,o),
(5117,460,o),
(5128,456,c),
(5125,457,o),
(5121,458,o),
(5118,460,c),
(5129,455,o),
(5139,449,o),
(5148,442,c),
(5138,448,o),
(5144,446,o),
(5146,444,c),
(5157,435,o),
(5166,425,o),
(5175,415,c),
(5180,409,o),
(5169,422,o),
(5174,415,c),
(5173,418,o),
(5172,421,o),
(5170,424,c),
(5177,407,o),
(5181,388,o),
(5184,370,c),
(5183,373,o),
(5183,377,o),
(5182,380,c),
(5188,278,o),
(5179,174,o),
(5181,72,c),
(5182,75,o),
(5182,79,o),
(5183,83,c),
(5181,71,o),
(5178,61,o),
(5174,50,c),
(5176,53,o),
(5177,57,o),
(5178,60,c),
(5147,14,o),
(5218,-33,o),
(5246,15,c),
(5278,81,o),
(5257,155,o),
(5262,225,c),
(5265,302,o),
(5277,386,o),
(5243,458,c),
(5167,576,o),
(5013,565,o),
(4927,464,c),
(4875,408,o),
(4840,336,o),
(4833,259,c),
(4833,207,o),
(4914,207,o),
(4914,259,c)
);
},
{
closed = 1;
nodes = (
(1424,360,o),
(1434,192,o),
(1424,25,c),
(1423,-28,o),
(1505,-28,o),
(1505,25,c),
(1514,173,o),
(1506,322,o),
(1526,470,c),
(1524,459,l),
(1525,484,o),
(1540,511,o),
(1527,535,c),
(1512,565,o),
(1460,559,o),
(1453,525,c)
);
},
{
closed = 1;
nodes = (
(1516,299,o),
(1521,314,o),
(1527,328,c),
(1526,325,o),
(1525,322,o),
(1523,319,c),
(1557,391,o),
(1592,441,o),
(1657,472,c),
(1654,471,o),
(1651,470,o),
(1648,468,c),
(1658,472,o),
(1668,476,o),
(1679,477,c),
(1668,476,l),
(1676,477,o),
(1684,477,o),
(1693,476,c),
(1689,476,o),
(1685,477,o),
(1682,477,c),
(1690,476,o),
(1698,474,o),
(1705,471,c),
(1702,472,o),
(1699,473,o),
(1696,475,c),
(1701,472,o),
(1707,469,o),
(1713,465,c),
(1718,461,o),
(1710,466,o),
(1710,468,c),
(1729,450,o),
(1730,451,o),
(1740,429,c),
(1739,433,o),
(1738,436,o),
(1736,439,c),
(1743,424,o),
(1746,407,o),
(1748,391,c),
(1746,402,l),
(1761,276,o),
(1740,150,o),
(1737,25,c),
(1736,-28,o),
(1818,-28,o),
(1818,25,c),
(1819,84,o),
(1825,143,o),
(1829,202,c),
(1832,321,o),
(1861,496,o),
(1723,550,c),
(1581,589,o),
(1467,425,o),
(1435,305,c),
(1420,254,o),
(1500,232,o),
(1513,283,c)
);
},
{
closed = 1;
nodes = (
(1834,291,o),
(1835,296,o),
(1836,301,c),
(1835,298,o),
(1835,294,o),
(1834,290,c),
(1837,312,o),
(1844,334,o),
(1852,354,c),
(1851,351,o),
(1849,348,o),
(1848,345,c),
(1872,395,o),
(1887,419,o),
(1928,453,c),
(1927,452,o),
(1925,451,o),
(1924,450,c),
(1937,459,o),
(1950,468,o),
(1965,474,c),
(1962,472,o),
(1959,471,o),
(1955,470,c),
(1967,474,o),
(1978,477,o),
(1990,479,c),
(1987,479,o),
(1983,478,o),
(1979,478,c),
(1989,479,o),
(1999,479,o),
(2010,478,c),
(2006,478,o),
(2002,479,o),
(1999,479,c),
(2009,478,o),
(2019,475,o),
(2028,471,c),
(2025,472,o),
(2022,474,o),
(2018,475,c),
(2041,466,o),
(2051,454,o),
(2060,445,c),
(2055,452,o),
(2062,439,o),
(2062,438,c),
(2061,441,o),
(2060,444,o),
(2058,447,c),
(2069,421,o),
(2075,394,o),
(2079,366,c),
(2078,377,l),
(2089,287,o),
(2079,196,o),
(2069,106,c),
(2070,74,o),
(2049,33,o),
(2073,6,c),
(2098,-19,o),
(2143,0,o),
(2142,35,c),
(2149,98,o),
(2157,161,o),
(2161,224,c),
(2166,313,o),
(2167,408,o),
(2127,489,c),
(1987,672,o),
(1757,462,o),
(1753,286,c),
(1752,233,o),
(1834,233,o),
(1834,286,c)
);
},
{
closed = 1;
nodes = (
(3273,558,o),
(3086,576,o),
(3004,485,c),
(2968,441,o),
(2950,375,o),
(2985,326,c),
(3035,252,o),
(3131,239,o),
(3202,192,c),
(3204,191,o),
(3206,189,o),
(3208,188,c),
(3215,183,o),
(3199,195,o),
(3207,189,c),
(3224,172,o),
(3217,182,o),
(3230,157,c),
(3229,160,o),
(3227,163,o),
(3226,167,c),
(3229,159,o),
(3231,151,o),
(3233,142,c),
(3232,146,o),
(3232,150,o),
(3231,153,c),
(3232,145,o),
(3232,137,o),
(3231,129,c),
(3232,133,o),
(3232,137,o),
(3233,140,c),
(3232,132,o),
(3229,123,o),
(3226,115,c),
(3228,119,o),
(3229,122,o),
(3230,125,c),
(3227,117,o),
(3222,110,o),
(3217,102,c),
(3225,114,o),
(3218,104,o),
(3215,101,c),
(3201,87,o),
(3201,86,o),
(3175,74,c),
(3178,76,o),
(3182,77,o),
(3185,78,c),
(3171,73,o),
(3157,69,o),
(3142,67,c),
(3146,67,o),
(3149,68,o),
(3153,68,c),
(3135,66,o),
(3118,66,o),
(3100,68,c),
(3104,68,o),
(3108,67,o),
(3111,67,c),
(3091,70,o),
(3072,75,o),
(3053,83,c),
(3056,82,o),
(3059,80,o),
(3063,79,c),
(3040,88,o),
(3019,101,o),
(3000,115,c),
(3002,114,o),
(3003,113,o),
(3004,112,c),
(3001,115,o),
(2998,118,o),
(2994,120,c),
(2981,98,o),
(2968,75,o),
(2955,53,c),
(2989,34,o),
(3028,77,o),
(3008,110,c),
(2974,162,o),
(2894,113,o),
(2937,63,c),
(3026,-17,o),
(3179,-51,o),
(3271,43,c),
(3322,92,o),
(3327,177,o),
(3280,230,c),
(3235,287,o),
(3106,319,o),
(3074,348,c),
(3068,350,o),
(3042,382,o),
(3057,363,c),
(3053,369,o),
(3050,374,o),
(3047,381,c),
(3048,377,o),
(3050,374,o),
(3051,371,c),
(3049,377,o),
(3047,382,o),
(3046,388,c),
(3047,385,o),
(3047,381,o),
(3048,378,c),
(3047,384,o),
(3047,391,o),
(3048,398,c),
(3047,394,o),
(3047,390,o),
(3046,387,c),
(3048,397,o),
(3050,407,o),
(3054,416,c),
(3053,413,o),
(3052,410,o),
(3050,406,c),
(3067,438,o),
(3065,437,o),
(3095,453,c),
(3091,452,o),
(3088,450,o),
(3085,449,c),
(3098,455,o),
(3112,458,o),
(3126,460,c),
(3123,459,o),
(3119,459,o),
(3115,458,c),
(3139,461,o),
(3162,460,o),
(3186,457,c),
(3182,458,o),
(3179,458,o),
(3175,459,c),
(3188,457,o),
(3201,454,o),
(3213,449,c),
(3210,450,o),
(3207,451,o),
(3203,453,c),
(3210,450,o),
(3216,447,o),
(3222,443,c),
(3226,441,o),
(3235,432,o),
(3224,442,c),
(3229,440,o),
(3252,411,o),
(3239,428,c),
(3271,350,o),
(3348,380,o),
(3325,442,c)
);
},
{
closed = 1;
nodes = (
(2394,697,o),
(2150,261,o),
(2341,56,c),
(2406,-9,o),
(2517,-22,o),
(2586,44,c),
(2666,119,o),
(2684,236,o),
(2705,339,c),
(2704,336,o),
(2704,332,o),
(2703,328,c),
(2720,398,o),
(2749,552,o),
(2625,496,c),
(2575,462,o),
(2630,394,o),
(2677,431,c),
(2673,430,o),
(2670,429,o),
(2667,427,c),
(2669,428,o),
(2671,429,o),
(2673,429,c),
(2670,429,o),
(2666,428,o),
(2663,428,c),
(2664,428,o),
(2665,428,o),
(2667,428,c),
(2663,428,o),
(2660,429,o),
(2656,429,c),
(2657,429,o),
(2658,429,o),
(2658,428,c),
(2655,430,o),
(2652,431,o),
(2649,433,c),
(2656,430,o),
(2643,438,o),
(2645,436,c),
(2646,434,o),
(2638,446,o),
(2642,439,c),
(2640,442,o),
(2639,446,o),
(2638,449,c),
(2639,446,o),
(2640,442,o),
(2640,439,c),
(2640,443,o),
(2639,446,o),
(2639,450,c),
(2640,438,o),
(2639,426,o),
(2637,414,c),
(2638,417,o),
(2638,421,o),
(2639,424,c),
(2635,394,o),
(2626,364,o),
(2623,334,c),
(2624,337,o),
(2624,341,o),
(2625,345,c),
(2611,286,o),
(2600,226,o),
(2577,171,c),
(2578,174,o),
(2580,177,o),
(2581,180,c),
(2572,160,o),
(2562,140,o),
(2549,122,c),
(2546,118,o),
(2550,124,o),
(2551,125,c),
(2543,115,o),
(2533,105,o),
(2523,97,c),
(2523,97,o),
(2531,103,o),
(2526,99,c),
(2518,93,o),
(2509,88,o),
(2499,84,c),
(2503,86,o),
(2506,87,o),
(2509,88,c),
(2497,83,o),
(2484,80,o),
(2471,78,c),
(2475,79,o),
(2478,79,o),
(2482,80,c),
(2476,80,o),
(2469,81,o),
(2463,81,c),
(2467,81,o),
(2470,80,o),
(2474,80,c),
(2458,82,o),
(2442,86,o),
(2427,92,c),
(2431,91,o),
(2434,89,o),
(2437,88,c),
(2425,93,o),
(2414,100,o),
(2404,107,c),
(2404,107,o),
(2412,100,o),
(2408,104,c),
(2399,111,o),
(2392,119,o),
(2385,128,c),
(2385,127,o),
(2391,119,o),
(2387,124,c),
(2379,135,o),
(2373,147,o),
(2367,160,c),
(2369,157,o),
(2370,154,o),
(2371,150,c),
(2364,169,o),
(2359,188,o),
(2356,208,c),
(2357,197,l),
(2354,224,o),
(2354,251,o),
(2358,277,c),
(2356,266,l),
(2360,296,o),
(2368,326,o),
(2380,354,c),
(2378,351,o),
(2377,347,o),
(2376,344,c),
(2385,367,o),
(2397,388,o),
(2412,408,c),
(2409,403,o),
(2408,402,o),
(2408,402,c),
(2417,415,o),
(2432,430,o),
(2445,440,c),
(2436,432,o),
(2441,437,o),
(2443,439,c),
(2454,447,o),
(2466,454,o),
(2479,459,c),
(2476,458,o),
(2472,456,o),
(2469,455,c),
(2482,460,o),
(2496,464,o),
(2510,466,c),
(2506,465,o),
(2503,465,o),
(2499,465,c),
(2514,466,o),
(2528,466,o),
(2542,464,c),
(2538,465,o),
(2535,465,o),
(2531,466,c),
(2549,463,o),
(2565,458,o),
(2582,452,c),
(2578,453,o),
(2575,455,o),
(2572,456,c),
(2601,448,o),
(2624,414,o),
(2657,422,c),
(2691,431,o),
(2696,478,o),
(2666,496,c)
);
},
{
closed = 1;
nodes = (
(2627,370,o),
(2602,218,o),
(2626,70,c),
(2653,-78,o),
(2800,-21,o),
(2837,83,c),
(2838,117,o),
(2791,138,o),
(2768,111,c),
(2743,83,o),
(2733,70,o),
(2709,59,c),
(2712,60,o),
(2715,62,o),
(2719,63,c),
(2714,61,o),
(2710,60,o),
(2705,59,c),
(2708,59,o),
(2712,60,o),
(2715,60,c),
(2713,60,o),
(2710,60,o),
(2707,60,c),
(2710,60,o),
(2714,59,o),
(2718,59,c),
(2715,59,o),
(2712,60,o),
(2710,61,c),
(2713,60,o),
(2716,58,o),
(2719,57,c),
(2717,58,o),
(2715,59,o),
(2713,60,c),
(2709,63,o),
(2723,52,o),
(2718,57,c),
(2713,60,o),
(2710,69,o),
(2718,56,c),
(2714,61,o),
(2711,66,o),
(2709,71,c),
(2711,68,o),
(2712,65,o),
(2713,62,c),
(2706,78,o),
(2703,96,o),
(2700,114,c),
(2701,110,o),
(2701,107,o),
(2702,103,c),
(2690,208,o),
(2703,314,o),
(2716,418,c),
(2715,414,o),
(2715,411,o),
(2714,407,c),
(2715,446,o),
(2737,489,o),
(2724,526,c),
(2708,556,o),
(2657,551,o),
(2650,517,c)
);
},
{
closed = 1;
nodes = (
(3493,327,o),
(3518,162,o),
(3571,4,c),
(3582,-34,o),
(3638,-34,o),
(3649,4,c),
(3665,47,o),
(3682,89,o),
(3699,131,c),
(3698,128,o),
(3697,125,o),
(3695,121,c),
(3749,247,o),
(3808,371,o),
(3859,498,c),
(3835,494,o),
(3810,491,o),
(3785,488,c),
(3792,474,o),
(3798,460,o),
(3804,447,c),
(3803,450,o),
(3801,453,o),
(3800,456,c),
(3847,345,o),
(3872,227,o),
(3902,111,c),
(3919,70,o),
(3912,-6,o),
(3963,-18,c),
(3977,-20,o),
(3997,-13,o),
(4003,1,c),
(4050,106,o),
(4083,217,o),
(4127,323,c),
(4126,320,o),
(4125,317,o),
(4123,314,c),
(4146,367,o),
(4172,419,o),
(4204,466,c),
(4231,511,o),
(4161,552,o),
(4134,507,c),
(4042,371,o),
(4004,208,o),
(3940,58,c),
(3942,61,o),
(3943,65,o),
(3944,68,c),
(3941,59,o),
(3937,51,o),
(3933,42,c),
(3958,39,o),
(3983,36,o),
(4007,33,c),
(3974,101,o),
(3868,772,o),
(3762,472,c),
(3763,476,o),
(3765,479,o),
(3766,482,c),
(3702,330,o),
(3628,181,o),
(3571,26,c),
(3649,26,l),
(3596,183,o),
(3571,348,o),
(3529,509,c),
(3515,559,o),
(3436,538,o),
(3450,487,c)
);
},
{
closed = 1;
nodes = (
(4711,166,o),
(4699,621,o),
(4368,519,c),
(4201,452,o),
(4143,206,o),
(4259,69,c),
(4353,-47,o),
(4530,-21,o),
(4624,80,c),
(4663,132,o),
(4598,184,o),
(4540,114,c),
(4544,118,o),
(4545,119,o),
(4545,118,c),
(4529,105,o),
(4507,93,o),
(4487,84,c),
(4490,85,o),
(4494,87,o),
(4497,88,c),
(4479,81,o),
(4461,75,o),
(4442,73,c),
(4446,73,o),
(4449,74,o),
(4453,74,c),
(4436,72,o),
(4418,72,o),
(4401,74,c),
(4412,72,l),
(4397,75,o),
(4382,79,o),
(4368,84,c),
(4371,83,o),
(4374,82,o),
(4378,80,c),
(4344,96,o),
(4337,102,o),
(4313,129,c),
(4310,134,o),
(4316,126,o),
(4316,126,c),
(4306,139,o),
(4298,154,o),
(4291,169,c),
(4293,166,o),
(4294,162,o),
(4295,159,c),
(4288,177,o),
(4283,196,o),
(4280,215,c),
(4281,212,o),
(4281,208,o),
(4282,205,c),
(4278,229,o),
(4279,255,o),
(4282,279,c),
(4282,276,o),
(4281,272,o),
(4281,269,c),
(4285,297,o),
(4292,325,o),
(4303,351,c),
(4302,348,o),
(4300,344,o),
(4299,341,c),
(4304,354,o),
(4311,367,o),
(4318,378,c),
(4331,395,o),
(4366,433,o),
(4399,445,c),
(4396,444,o),
(4392,442,o),
(4389,441,c),
(4404,447,o),
(4420,451,o),
(4436,453,c),
(4425,452,l),
(4443,454,o),
(4462,456,o),
(4481,454,c),
(4470,455,l),
(4479,454,o),
(4488,452,o),
(4497,448,c),
(4494,450,o),
(4491,451,o),
(4488,452,c),
(4509,441,o),
(4502,446,o),
(4517,431,c),
(4519,429,o),
(4520,425,o),
(4514,435,c),
(4518,429,o),
(4522,422,o),
(4525,416,c),
(4524,419,o),
(4522,422,o),
(4521,425,c),
(4524,417,o),
(4527,408,o),
(4528,400,c),
(4528,403,o),
(4527,407,o),
(4527,410,c),
(4528,401,o),
(4528,391,o),
(4527,381,c),
(4527,385,o),
(4528,388,o),
(4528,392,c),
(4527,382,o),
(4524,373,o),
(4520,364,c),
(4522,367,o),
(4523,370,o),
(4524,374,c),
(4503,332,o),
(4489,324,o),
(4440,300,c),
(4443,301,o),
(4447,302,o),
(4450,304,c),
(4418,290,o),
(4385,283,o),
(4351,278,c),
(4362,280,l),
(4328,275,o),
(4294,274,o),
(4261,275,c),
(4208,275,o),
(4208,194,o),
(4261,194,c)
);
}
);
};
layerId = "F02EC817-AA40-4041-B1DC-8E5F6A4B800D";
name = "Original Variations";
shapes = (
{
closed = 1;
nodes = (
(81,68,o),
(81,101,o),
(81,134,cs),
(81,335,o),
(106,535,o),
(112,735,c),
(71,694,l),
(132,697,o),
(192,706,o),
(252,706,cs),
(274,706,o),
(295,705,o),
(316,702,c),
(305,704,l),
(326,701,o),
(347,696,o),
(366,688,cs),
(363,689,o),
(360,691,o),
(357,692,c),
(396,671,o),
(389,677,o),
(408,644,c),
(407,647,o),
(406,650,o),
(404,654,cs),
(409,642,o),
(412,630,o),
(414,618,c),
(412,629,l),
(413,620,o),
(414,611,o),
(414,602,cs),
(414,591,o),
(413,580,o),
(412,569,c),
(412,573,o),
(413,577,o),
(413,580,c),
(411,566,o),
(408,552,o),
(402,539,c),
(404,542,o),
(405,545,o),
(406,548,cs),
(402,537,o),
(395,526,o),
(388,517,c),
(392,523,o),
(393,524,o),
(393,524,c),
(391,521,ls),
(371,491,o),
(365,494,o),
(327,476,cs),
(330,477,o),
(334,478,o),
(337,480,c),
(304,466,o),
(201,451,o),
(235,454,cs),
(245,455,ls),
(303,461,o),
(128,448,o),
(70,447,c),
(70,366,l),
(95,368,o),
(121,370,o),
(146,370,cs),
(176,370,o),
(206,368,o),
(236,364,c),
(232,364,o),
(228,365,o),
(225,365,c),
(260,360,o),
(295,352,o),
(328,339,cs),
(325,340,o),
(322,341,o),
(318,343,cs),
(371,317,o),
(381,311,o),
(404,266,cs),
(402,270,o),
(401,273,o),
(399,276,c),
(405,263,o),
(408,250,o),
(410,236,c),
(410,240,o),
(409,243,o),
(409,247,c),
(410,238,o),
(410,230,o),
(410,222,cs),
(410,212,o),
(410,202,o),
(408,192,c),
(410,202,ls),
(413,217,o),
(404,172,o),
(400,157,cs),
(401,161,o),
(402,164,o),
(404,167,cs),
(383,136,o),
(369,122,o),
(322,100,c),
(325,102,o),
(329,103,o),
(332,105,c),
(304,93,o),
(275,87,o),
(246,83,c),
(249,83,o),
(253,84,o),
(257,84,c),
(227,80,o),
(197,79,o),
(167,79,cs),
(126,79,o),
(85,81,o),
(45,83,cs),
(23,84,o),
(3,64,o),
(4,43,cs),
(5,20,o),
(22,3,o),
(45,2,cs),
(85,0,o),
(125,-2,o),
(165,-2,cs),
(203,-2,o),
(240,0,o),
(278,6,cs),
(394,20,o),
(492,101,o),
(492,216,cs),
(492,230,o),
(491,245,o),
(488,260,cs),
(474,358,o),
(379,419,o),
(287,436,cs),
(245,443,o),
(190,452,o),
(138,452,cs),
(102,452,o),
(67,448,o),
(41,435,c),
(33,427,o),
(30,418,o),
(30,408,cs),
(30,386,o),
(46,365,o),
(70,366,cs),
(140,367,o),
(210,367,o),
(279,379,c),
(421,395,o),
(497,501,o),
(497,601,cs),
(497,696,o),
(429,785,o),
(282,786,cs),
(218,789,o),
(154,781,o),
(91,777,c),
(63,778,o),
(31,768,o),
(31,735,cs),
(25,535,o),
(0,335,o),
(0,134,cs),
(0,101,o),
(0,68,o),
(2,35,cs),
(2,9,o),
(22,-4,o),
(43,-4,cs),
(63,-4,o),
(83,9,o),
(83,35,cs)
);
},
{
closed = 1;
nodes = (
(918,36,ls),
(917,10,o),
(938,-3,o),
(958,-3,cs),
(979,-3,o),
(998,10,o),
(999,36,cs),
(1026,734,ls),
(1027,760,o),
(1006,773,o),
(986,773,cs),
(966,773,o),
(946,760,o),
(945,734,cs)
);
},
{
closed = 1;
nodes = (
(1054,689,o),
(1073,690,o),
(1091,690,cs),
(1117,690,o),
(1195,680,o),
(1169,685,cs),
(1158,687,ls),
(1130,692,o),
(1215,676,o),
(1241,665,c),
(1238,667,o),
(1235,668,o),
(1232,669,cs),
(1284,644,o),
(1294,636,o),
(1318,587,c),
(1317,590,o),
(1315,593,o),
(1314,597,c),
(1319,585,o),
(1321,572,o),
(1322,560,cs),
(1322,564,o),
(1321,567,o),
(1321,571,c),
(1322,564,o),
(1323,557,o),
(1323,550,cs),
(1323,542,o),
(1322,535,o),
(1321,528,c),
(1323,539,l),
(1321,527,o),
(1318,516,o),
(1314,506,cs),
(1315,509,o),
(1317,512,o),
(1318,515,c),
(1298,476,o),
(1290,471,o),
(1244,449,cs),
(1247,450,o),
(1251,451,o),
(1254,453,c),
(1229,442,o),
(1202,436,o),
(1175,432,c),
(1179,432,o),
(1182,433,o),
(1186,433,c),
(1169,431,o),
(1151,430,o),
(1133,430,cs),
(1115,430,o),
(1098,431,o),
(1080,433,c),
(1084,433,o),
(1088,432,o),
(1091,432,c),
(1088,432,o),
(1085,433,o),
(1081,434,c),
(1078,407,o),
(1074,380,o),
(1070,354,c),
(1088,357,o),
(1107,358,o),
(1125,358,cs),
(1142,358,o),
(1192,353,o),
(1175,355,cs),
(1165,356,l),
(1191,352,o),
(1217,346,o),
(1242,335,c),
(1239,337,o),
(1236,338,o),
(1233,339,cs),
(1291,311,o),
(1307,299,o),
(1332,248,c),
(1331,252,o),
(1329,255,o),
(1328,258,cs),
(1333,246,o),
(1336,234,o),
(1338,222,c),
(1337,232,l),
(1338,221,o),
(1338,209,o),
(1337,197,cs),
(1337,201,o),
(1338,204,o),
(1338,208,cs),
(1337,196,o),
(1334,185,o),
(1329,174,c),
(1333,184,l),
(1309,136,o),
(1293,126,o),
(1235,98,c),
(1245,102,ls),
(1274,114,o),
(1185,82,o),
(1154,76,c),
(1158,76,o),
(1161,77,o),
(1165,77,c),
(1141,74,o),
(1117,73,o),
(1094,73,cs),
(1024,73,o),
(955,83,o),
(886,87,cs),
(860,88,o),
(847,67,o),
(847,47,cs),
(847,27,o),
(860,6,o),
(886,6,c),
(953,1,o),
(1021,-8,o),
(1088,-8,cs),
(1132,-8,o),
(1175,-4,o),
(1217,7,cs),
(1316,29,o),
(1420,111,o),
(1420,215,cs),
(1420,233,o),
(1417,251,o),
(1410,270,cs),
(1373,377,o),
(1251,440,o),
(1137,440,cs),
(1104,440,o),
(1071,434,o),
(1042,423,c),
(1034,416,o),
(1031,405,o),
(1031,395,cs),
(1031,377,o),
(1041,359,o),
(1060,355,cs),
(1084,351,o),
(1110,349,o),
(1136,349,cs),
(1225,349,o),
(1318,375,o),
(1373,448,cs),
(1395,479,o),
(1404,513,o),
(1404,547,cs),
(1404,639,o),
(1333,729,o),
(1239,752,cs),
(1215,759,o),
(1145,773,o),
(1087,773,cs),
(1036,773,o),
(994,763,o),
(995,728,cs),
(996,708,o),
(1013,686,o),
(1036,688,cs)
);
},
{
closed = 1;
nodes = (
(1845,566,o),
(1837,388,o),
(1837,210,cs),
(1837,155,o),
(1837,101,o),
(1839,47,cs),
(1839,21,o),
(1860,8,o),
(1880,8,cs),
(1900,8,o),
(1921,21,o),
(1920,47,cs),
(1918,102,o),
(1918,156,o),
(1918,211,cs),
(1918,337,o),
(1922,463,o),
(1931,589,c),
(1928,620,o),
(1943,683,o),
(1943,728,cs),
(1943,747,o),
(1940,763,o),
(1932,771,cs),
(1924,779,o),
(1914,783,o),
(1904,783,cs),
(1883,783,o),
(1863,767,o),
(1863,743,c)
);
},
{
closed = 1;
nodes = (
(1952,702,o),
(1980,708,o),
(2008,712,c),
(2005,711,o),
(2001,711,o),
(1998,710,c),
(2022,713,o),
(2047,716,o),
(2072,716,cs),
(2090,716,o),
(2107,715,o),
(2125,712,cs),
(2114,714,l),
(2138,711,o),
(2162,705,o),
(2185,695,c),
(2182,697,o),
(2178,698,o),
(2175,699,c),
(2222,675,o),
(2222,677,o),
(2243,637,c),
(2242,641,o),
(2241,644,o),
(2239,647,c),
(2243,637,o),
(2246,627,o),
(2248,617,c),
(2247,620,o),
(2247,624,o),
(2246,628,c),
(2247,617,o),
(2247,605,o),
(2246,594,c),
(2246,598,o),
(2247,602,o),
(2247,605,cs),
(2246,592,o),
(2242,580,o),
(2237,568,c),
(2239,571,o),
(2240,574,o),
(2241,577,cs),
(2235,563,o),
(2227,550,o),
(2218,538,c),
(2222,544,o),
(2224,546,o),
(2224,546,c),
(2224,545,o),
(2221,541,o),
(2219,539,cs),
(2187,504,o),
(2173,495,o),
(2124,472,c),
(2127,474,o),
(2130,475,o),
(2134,477,cs),
(2100,462,o),
(2064,453,o),
(2027,448,c),
(2031,449,o),
(2035,449,o),
(2038,450,c),
(2013,447,o),
(1988,445,o),
(1962,445,cs),
(1933,445,o),
(1904,447,o),
(1876,451,cs),
(1886,450,ls),
(1883,450,o),
(1880,451,o),
(1877,451,c),
(1866,371,l),
(1918,375,o),
(1970,380,o),
(2023,380,cs),
(2050,380,o),
(2077,379,o),
(2104,375,c),
(2101,376,o),
(2097,376,o),
(2094,377,c),
(2123,373,o),
(2151,366,o),
(2178,355,cs),
(2175,356,o),
(2172,358,o),
(2169,359,cs),
(2185,352,o),
(2201,343,o),
(2216,332,cs),
(2210,336,o),
(2209,337,o),
(2210,337,c),
(2221,329,o),
(2232,317,o),
(2241,305,c),
(2240,307,o),
(2234,314,o),
(2239,309,c),
(2247,297,o),
(2255,284,o),
(2260,270,cs),
(2259,273,o),
(2258,276,o),
(2256,280,cs),
(2261,268,o),
(2265,256,o),
(2267,243,c),
(2265,254,l),
(2266,247,o),
(2267,239,o),
(2267,231,cs),
(2267,223,o),
(2266,216,o),
(2265,208,c),
(2267,219,l),
(2265,204,o),
(2261,190,o),
(2255,176,c),
(2259,186,l),
(2253,172,o),
(2245,158,o),
(2236,146,c),
(2235,143,o),
(2230,139,o),
(2239,149,c),
(2227,134,o),
(2213,120,o),
(2198,108,c),
(2208,117,o),
(2203,112,o),
(2200,110,cs),
(2181,96,o),
(2160,84,o),
(2138,75,cs),
(2141,76,o),
(2144,77,o),
(2148,79,cs),
(2124,69,o),
(2099,62,o),
(2074,58,c),
(2077,59,o),
(2081,59,o),
(2085,60,c),
(2060,57,o),
(2036,55,o),
(2011,55,cs),
(1960,55,o),
(1910,61,o),
(1860,67,cs),
(1850,68,o),
(1838,62,o),
(1831,55,cs),
(1823,47,o),
(1820,38,o),
(1820,28,cs),
(1820,7,o),
(1836,-14,o),
(1860,-14,c),
(1914,-20,o),
(1969,-27,o),
(2023,-26,cs),
(2234,-19,o),
(2349,108,o),
(2349,231,cs),
(2349,349,o),
(2243,464,o),
(2014,464,cs),
(1975,464,o),
(1934,461,o),
(1889,454,c),
(1853,459,o),
(1826,435,o),
(1826,410,cs),
(1826,396,o),
(1835,382,o),
(1856,373,c),
(1896,366,o),
(1934,362,o),
(1970,362,cs),
(2193,362,o),
(2329,496,o),
(2329,616,cs),
(2329,704,o),
(2254,785,o),
(2084,797,c),
(2023,798,o),
(1962,788,o),
(1902,774,cs),
(1882,768,o),
(1873,753,o),
(1873,737,cs),
(1873,716,o),
(1888,694,o),
(1912,694,cs),
(1916,694,o),
(1920,695,o),
(1924,696,cs)
);
},
{
closed = 1;
nodes = (
(2772,499,o),
(2767,270,o),
(2767,41,cs),
(2767,20,o),
(2786,0,o),
(2808,1,cs),
(2830,2,o),
(2848,19,o),
(2848,41,cs),
(2848,270,o),
(2853,499,o),
(2864,728,cs),
(2864,754,o),
(2844,767,o),
(2823,767,cs),
(2803,767,o),
(2783,754,o),
(2783,728,cs)
);
},
{
closed = 1;
nodes = (
(2844,687,o),
(2886,696,o),
(2928,702,c),
(2925,701,o),
(2921,701,o),
(2917,700,c),
(2946,704,o),
(2974,707,o),
(3003,707,cs),
(3023,707,o),
(3043,705,o),
(3062,703,cs),
(3059,703,o),
(3055,704,o),
(3051,704,c),
(3076,701,o),
(3100,695,o),
(3123,686,cs),
(3120,687,o),
(3116,688,o),
(3113,690,c),
(3141,676,o),
(3151,671,o),
(3166,656,c),
(3154,673,o),
(3175,643,o),
(3175,638,c),
(3174,642,o),
(3173,645,o),
(3171,648,c),
(3175,638,o),
(3178,628,o),
(3180,617,cs),
(3179,621,o),
(3179,625,o),
(3178,628,c),
(3179,622,o),
(3180,616,o),
(3180,610,cs),
(3180,603,o),
(3179,597,o),
(3178,591,c),
(3179,594,o),
(3179,598,o),
(3180,601,c),
(3177,586,o),
(3173,571,o),
(3167,557,c),
(3169,560,o),
(3170,563,o),
(3171,566,cs),
(3155,532,o),
(3152,528,o),
(3127,505,cs),
(3121,500,o),
(3128,505,o),
(3129,506,cs),
(3108,490,o),
(3084,478,o),
(3060,467,c),
(3063,469,o),
(3067,470,o),
(3070,471,cs),
(2987,437,o),
(2896,431,o),
(2810,410,cs),
(2791,406,o),
(2781,389,o),
(2781,371,cs),
(2781,357,o),
(2787,343,o),
(2800,336,c),
(2809,333,o),
(2818,332,o),
(2827,332,cs),
(2863,332,o),
(2901,349,o),
(2937,350,cs),
(2933,350,o),
(2930,349,o),
(2926,349,c),
(2952,352,o),
(2979,355,o),
(3005,355,cs),
(3020,355,o),
(3035,354,o),
(3050,352,c),
(3047,352,o),
(3043,353,o),
(3039,353,c),
(3060,350,o),
(3081,345,o),
(3101,337,c),
(3098,339,o),
(3094,340,o),
(3091,341,cs),
(3104,336,o),
(3117,329,o),
(3129,321,c),
(3131,319,o),
(3139,312,o),
(3129,321,cs),
(3136,315,o),
(3143,309,o),
(3148,302,c),
(3139,312,o),
(3146,305,o),
(3147,302,c),
(3153,295,o),
(3157,286,o),
(3161,278,c),
(3160,281,o),
(3158,284,o),
(3157,287,cs),
(3162,274,o),
(3166,260,o),
(3168,246,c),
(3167,256,l),
(3168,250,o),
(3168,244,o),
(3168,238,cs),
(3168,229,o),
(3167,219,o),
(3166,209,c),
(3167,212,o),
(3167,216,o),
(3168,220,c),
(3166,203,o),
(3161,187,o),
(3155,171,cs),
(3156,174,o),
(3157,178,o),
(3159,181,cs),
(3130,124,o),
(3108,105,o),
(3046,76,cs),
(3049,77,o),
(3052,79,o),
(3055,80,cs),
(3023,67,o),
(2921,51,o),
(2955,54,cs),
(2965,55,ls),
(2994,58,o),
(2906,50,o),
(2876,50,cs),
(2842,50,o),
(2807,52,o),
(2773,55,cs),
(2752,56,o),
(2732,36,o),
(2733,14,c),
(2730,-23,o),
(2787,-32,o),
(2848,-32,cs),
(2902,-32,o),
(2959,-25,o),
(2981,-24,c),
(3089,-10,o),
(3199,52,o),
(3236,159,cs),
(3244,182,o),
(3249,208,o),
(3249,233,cs),
(3249,293,o),
(3225,352,o),
(3175,386,cs),
(3124,423,o),
(3066,435,o),
(3006,435,cs),
(2940,435,o),
(2873,421,o),
(2810,410,c),
(2831,332,l),
(2973,365,o),
(3157,369,o),
(3235,513,cs),
(3253,548,o),
(3261,581,o),
(3261,610,cs),
(3261,725,o),
(3136,793,o),
(3006,788,cs),
(2937,788,o),
(2869,776,o),
(2802,760,c),
(2778,758,o),
(2751,742,o),
(2751,717,cs),
(2751,713,o),
(2752,709,o),
(2753,705,cs),
(2759,687,o),
(2774,676,o),
(2792,676,cs),
(2795,676,o),
(2799,676,o),
(2802,677,cs)
);
},
{
closed = 1;
nodes = (
(3700,486,o),
(3696,265,o),
(3678,45,cs),
(3677,19,o),
(3698,6,o),
(3718,6,cs),
(3739,6,o),
(3759,19,o),
(3759,45,c),
(3777,265,o),
(3781,486,o),
(3794,707,c),
(3794,733,o),
(3774,746,o),
(3754,746,cs),
(3733,746,o),
(3713,733,o),
(3713,707,c)
);
},
{
closed = 1;
nodes = (
(3733,692,o),
(3765,694,o),
(3798,694,cs),
(3834,694,o),
(3943,684,o),
(3907,687,cs),
(3896,688,ls),
(3856,692,o),
(3977,674,o),
(4014,658,cs),
(4011,659,o),
(4008,661,o),
(4004,662,c),
(4054,638,o),
(4064,633,o),
(4083,595,c),
(4079,605,l),
(4081,598,o),
(4083,591,o),
(4084,584,c),
(4083,588,o),
(4083,592,o),
(4082,595,c),
(4083,585,o),
(4083,575,o),
(4082,565,c),
(4084,576,l),
(4082,564,o),
(4079,552,o),
(4074,541,c),
(4078,551,l),
(4057,509,o),
(4048,500,o),
(4005,480,c),
(4009,481,o),
(4012,483,o),
(4015,484,cs),
(3988,473,o),
(3904,461,o),
(3932,464,cs),
(3942,465,l),
(3881,453,o),
(3801,463,o),
(3754,417,c),
(3751,407,o),
(3749,398,o),
(3749,391,cs),
(3749,366,o),
(3768,359,o),
(3792,359,cs),
(3823,359,o),
(3864,371,o),
(3887,373,c),
(3876,371,l),
(3899,374,o),
(3921,376,o),
(3944,376,cs),
(3959,376,o),
(3975,375,o),
(3990,373,c),
(3979,375,ls),
(3956,379,o),
(4024,366,o),
(4045,358,cs),
(4042,359,o),
(4038,360,o),
(4035,362,c),
(4050,355,o),
(4064,347,o),
(4077,337,cs),
(4076,338,o),
(4069,344,o),
(4074,340,cs),
(4100,316,o),
(4100,317,o),
(4117,284,cs),
(4115,287,o),
(4114,290,o),
(4113,293,cs),
(4118,280,o),
(4122,267,o),
(4124,252,c),
(4123,256,o),
(4123,260,o),
(4122,263,c),
(4123,257,o),
(4124,250,o),
(4124,244,cs),
(4124,237,o),
(4123,231,o),
(4122,224,c),
(4123,227,o),
(4123,231,o),
(4124,234,c),
(4122,221,o),
(4118,208,o),
(4113,195,c),
(4115,198,o),
(4116,202,o),
(4117,205,cs),
(4112,192,o),
(4105,180,o),
(4096,169,cs),
(4101,175,o),
(4101,176,o),
(4101,175,c),
(4093,164,o),
(4081,153,o),
(4070,144,cs),
(4075,148,o),
(4076,149,o),
(4075,149,c),
(4060,136,o),
(4038,124,o),
(4018,115,c),
(4021,117,o),
(4024,118,o),
(4027,119,cs),
(3997,107,o),
(3966,100,o),
(3934,95,c),
(3937,96,o),
(3941,96,o),
(3944,97,c),
(3853,85,o),
(3760,95,o),
(3669,77,c),
(3648,68,o),
(3639,53,o),
(3639,38,cs),
(3639,18,o),
(3658,-2,o),
(3688,-2,cs),
(3696,-2,o),
(3706,-1,o),
(3716,3,c),
(3706,2,ls),
(3583,-10,o),
(3960,-5,o),
(4075,53,c),
(4159,89,o),
(4203,168,o),
(4203,245,cs),
(4203,319,o),
(4164,392,o),
(4083,429,cs),
(4038,449,o),
(3992,457,o),
(3945,457,cs),
(3889,457,o),
(3833,446,o),
(3778,435,c),
(3785,409,o),
(3792,383,o),
(3800,357,c),
(3826,368,o),
(3854,373,o),
(3882,377,c),
(3878,377,o),
(3875,376,o),
(3871,376,cs),
(3949,385,o),
(4036,388,o),
(4098,443,cs),
(4143,482,o),
(4164,529,o),
(4164,575,cs),
(4164,647,o),
(4111,715,o),
(4023,741,c),
(3995,755,o),
(3878,776,o),
(3784,776,cs),
(3714,776,o),
(3657,764,o),
(3660,728,cs),
(3660,707,o),
(3679,687,o),
(3701,688,cs)
);
}
);
width = 4203;
},
{
associatedMasterId = m002;
background = {
shapes = (
{
closed = 1;
nodes = (
(108,493,o),
(115,258,o),
(85,25,c),
(85,-1,o),
(105,-14,o),
(126,-14,cs),
(146,-14,o),
(166,-1,o),
(166,25,c),
(196,258,o),
(189,493,o),
(216,726,c),
(216,752,o),
(196,765,o),
(175,765,cs),
(155,765,o),
(135,752,o),
(135,726,c)
);
},
{
closed = 1;
nodes = (
(197,687,o),
(213,690,o),
(229,692,c),
(218,690,l),
(248,694,o),
(279,697,o),
(310,697,cs),
(330,697,o),
(350,696,o),
(370,693,c),
(359,694,ls),
(385,691,o),
(410,685,o),
(434,675,c),
(430,676,o),
(427,678,o),
(424,679,cs),
(436,674,o),
(447,668,o),
(458,660,cs),
(461,658,o),
(468,652,o),
(458,661,cs),
(478,643,o),
(477,644,o),
(488,622,c),
(487,625,o),
(486,628,o),
(484,632,cs),
(488,623,o),
(490,615,o),
(491,606,c),
(491,609,o),
(490,613,o),
(490,617,c),
(491,606,o),
(491,596,o),
(490,586,c),
(490,590,o),
(491,593,o),
(491,597,c),
(490,586,o),
(487,575,o),
(482,565,c),
(484,568,o),
(485,572,o),
(487,575,c),
(462,523,o),
(435,505,o),
(375,476,cs),
(384,481,l),
(350,466,o),
(314,457,o),
(277,452,c),
(281,453,o),
(285,453,o),
(288,454,c),
(264,451,o),
(240,449,o),
(215,449,cs),
(193,449,o),
(170,451,o),
(148,453,cs),
(127,454,o),
(107,434,o),
(108,413,cs),
(108,377,o),
(152,366,o),
(205,366,cs),
(265,366,o),
(336,381,o),
(362,387,cs),
(489,416,o),
(570,515,o),
(570,606,cs),
(570,678,o),
(519,746,o),
(398,770,cs),
(379,773,o),
(334,778,o),
(285,778,cs),
(210,778,o),
(129,767,o),
(129,724,cs),
(129,720,o),
(130,716,o),
(131,712,cs),
(137,693,o),
(152,683,o),
(171,683,cs),
(174,683,o),
(178,683,o),
(181,684,cs)
);
},
{
closed = 1;
nodes = (
(266,374,o),
(304,373,o),
(341,368,cs),
(331,369,ls),
(369,364,o),
(407,355,o),
(443,340,cs),
(439,342,o),
(436,343,o),
(433,344,cs),
(451,337,o),
(469,327,o),
(485,316,c),
(488,313,o),
(481,318,o),
(481,318,c),
(506,297,o),
(508,296,o),
(521,269,c),
(520,272,o),
(518,275,o),
(517,278,cs),
(521,268,o),
(524,258,o),
(525,248,c),
(524,259,l),
(525,248,o),
(525,238,o),
(523,228,c),
(524,231,o),
(524,235,o),
(525,238,c),
(523,227,o),
(520,215,o),
(516,204,c),
(517,208,o),
(518,211,o),
(520,214,c),
(514,201,o),
(507,188,o),
(498,177,cs),
(500,179,o),
(501,181,o),
(502,182,cs),
(491,168,o),
(477,155,o),
(463,143,c),
(473,151,o),
(467,146,o),
(464,145,c),
(444,129,o),
(421,117,o),
(397,107,cs),
(400,108,o),
(403,110,o),
(407,111,c),
(370,96,o),
(331,86,o),
(291,81,c),
(295,81,o),
(299,82,o),
(302,82,cs),
(276,79,o),
(251,77,o),
(225,77,cs),
(195,77,o),
(165,79,o),
(136,83,c),
(139,83,o),
(143,83,o),
(147,82,cs),
(140,84,o),
(134,85,o),
(128,85,cs),
(101,85,o),
(85,62,o),
(85,41,cs),
(85,21,o),
(97,3,o),
(125,0,c),
(147,1,o),
(168,19,o),
(165,43,c),
(165,39,o),
(165,35,o),
(164,32,c),
(164,34,l),
(148,24,o),
(131,15,o),
(115,5,c),
(151,0,o),
(189,-3,o),
(227,-3,cs),
(341,-3,o),
(456,24,o),
(540,103,cs),
(585,145,o),
(605,193,o),
(605,240,cs),
(605,318,o),
(548,392,o),
(455,422,cs),
(428,432,o),
(335,456,o),
(266,456,cs),
(220,456,o),
(185,446,o),
(187,414,cs),
(188,392,o),
(205,373,o),
(228,374,cs)
);
}
);
};
layerId = "610B208F-EAAE-4D7F-90E8-D124507997CF";
name = Original;
shapes = (
{
closed = 1;
nodes = (
(108,493,o),
(115,258,o),
(85,25,c),
(85,-1,o),
(105,-14,o),
(126,-14,cs),
(146,-14,o),
(166,-1,o),
(166,25,c),
(196,258,o),
(189,493,o),
(216,726,c),
(216,752,o),
(196,765,o),
(175,765,cs),
(155,765,o),
(135,752,o),
(135,726,c)
);
},
{
closed = 1;
nodes = (
(197,687,o),
(213,690,o),
(229,692,c),
(218,690,l),
(248,694,o),
(279,697,o),
(310,697,cs),
(330,697,o),
(350,696,o),
(370,693,c),
(359,694,ls),
(385,691,o),
(410,685,o),
(434,675,c),
(430,676,o),
(427,678,o),
(424,679,cs),
(436,674,o),
(447,668,o),
(458,660,cs),
(461,658,o),
(468,652,o),
(458,661,cs),
(478,643,o),
(477,644,o),
(488,622,c),
(487,625,o),
(486,628,o),
(484,632,cs),
(488,623,o),
(490,615,o),
(491,606,c),
(491,609,o),
(490,613,o),
(490,617,c),
(491,606,o),
(491,596,o),
(490,586,c),
(490,590,o),
(491,593,o),
(491,597,c),
(490,586,o),
(487,575,o),
(482,565,c),
(484,568,o),
(485,572,o),
(487,575,c),
(462,523,o),
(435,505,o),
(375,476,cs),
(384,481,l),
(350,466,o),
(314,457,o),
(277,452,c),
(281,453,o),
(285,453,o),
(288,454,c),
(264,451,o),
(240,449,o),
(215,449,cs),
(193,449,o),
(170,451,o),
(148,453,cs),
(127,454,o),
(107,434,o),
(108,413,cs),
(108,377,o),
(152,366,o),
(205,366,cs),
(265,366,o),
(336,381,o),
(362,387,cs),
(489,416,o),
(570,515,o),
(570,606,cs),
(570,678,o),
(519,746,o),
(398,770,cs),
(379,773,o),
(334,778,o),
(285,778,cs),
(210,778,o),
(129,767,o),
(129,724,cs),
(129,720,o),
(130,716,o),
(131,712,cs),
(137,693,o),
(152,683,o),
(171,683,cs),
(174,683,o),
(178,683,o),
(181,684,cs)
);
},
{
closed = 1;
nodes = (
(266,374,o),
(304,373,o),
(341,368,cs),
(331,369,ls),
(369,364,o),
(407,355,o),
(443,340,cs),
(439,342,o),
(436,343,o),
(433,344,cs),
(451,337,o),
(469,327,o),
(485,316,c),
(488,313,o),
(481,318,o),
(481,318,c),
(506,297,o),
(508,296,o),
(521,269,c),
(520,272,o),
(518,275,o),
(517,278,cs),
(521,268,o),
(524,258,o),
(525,248,c),
(524,259,l),
(525,248,o),
(525,238,o),
(523,228,c),
(524,231,o),
(524,235,o),
(525,238,c),
(523,227,o),
(520,215,o),
(516,204,c),
(517,208,o),
(518,211,o),
(520,214,c),
(514,201,o),
(507,188,o),
(498,177,cs),
(500,179,o),
(501,181,o),
(502,182,cs),
(491,168,o),
(477,155,o),
(463,143,c),
(473,151,o),
(467,146,o),
(464,145,c),
(444,129,o),
(421,117,o),
(397,107,cs),
(400,108,o),
(403,110,o),
(407,111,c),
(370,96,o),
(331,86,o),
(291,81,c),
(295,81,o),
(299,82,o),
(302,82,cs),
(276,79,o),
(251,77,o),
(225,77,cs),
(195,77,o),
(165,79,o),
(136,83,c),
(139,83,o),
(143,83,o),
(147,82,cs),
(140,84,o),
(134,85,o),
(128,85,cs),
(101,85,o),
(85,62,o),
(85,41,cs),
(85,21,o),
(97,3,o),
(125,0,c),
(147,1,o),
(168,19,o),
(165,43,c),
(165,39,o),
(165,35,o),
(164,32,c),
(164,34,l),
(148,24,o),
(131,15,o),
(115,5,c),
(151,0,o),
(189,-3,o),
(227,-3,cs),
(341,-3,o),
(456,24,o),
(540,103,cs),
(585,145,o),
(605,193,o),
(605,240,cs),
(605,318,o),
(548,392,o),
(455,422,cs),
(428,432,o),
(335,456,o),
(266,456,cs),
(220,456,o),
(185,446,o),
(187,414,cs),
(188,392,o),
(205,373,o),
(228,374,cs)
);
}
);
width = 660;
},
{
associatedMasterId = m002;
background = {
shapes = (
{
closed = 1;
nodes = (
(110,493,o),
(116,246,o),
(87,25,cs),
(84,-1,o),
(107,-14,o),
(128,-14,cs),
(148,-14,o),
(165,-1,o),
(168,25,cs),
(198,258,o),
(191,493,o),
(218,726,c),
(218,752,o),
(198,765,o),
(177,765,cs),
(157,765,o),
(137,752,o),
(137,726,c)
);
},
{
closed = 1;
nodes = (
(199,687,o),
(270,697,o),
(312,697,cs),
(361,697,o),
(420,689,o),
(460,660,cs),
(475,650,o),
(492,630,o),
(492,601,cs),
(492,519,o),
(390,471,o),
(295,455,c),
(285,456,o),
(277,456,o),
(268,456,cs),
(248,456,o),
(229,454,o),
(216,449,c),
(192,448,o),
(172,451,o),
(150,453,cs),
(129,454,o),
(123,434,o),
(124,413,cs),
(124,377,o),
(154,366,o),
(207,366,cs),
(233,366,o),
(261,369,o),
(287,373,c),
(338,370,o),
(390,362,o),
(435,344,cs),
(492,321,o),
(527,285,o),
(527,242,cs),
(527,181,o),
(469,136,o),
(403,109,cs),
(347,85,o),
(251,67,o),
(138,84,cs),
(103,89,o),
(87,62,o),
(87,41,cs),
(87,21,o),
(99,-1,o),
(127,0,cs),
(149,1,o),
(188,-3,o),
(229,-3,cs),
(343,-3,o),
(458,24,o),
(542,103,cs),
(587,145,o),
(607,193,o),
(607,240,cs),
(607,318,o),
(546,393,o),
(453,423,c),
(530,470,o),
(572,539,o),
(572,606,cs),
(572,745,o),
(418,778,o),
(304,778,cs),
(212,778,o),
(131,767,o),
(131,724,cs),
(131,705,o),
(142,678,o),
(173,683,cs)
);
}
);
};
layerId = "F06E1652-D6B1-4AA9-AEDA-FFF5FD34925A";
name = "6 Jan 23_Laura";
shapes = (
{
closed = 1;
nodes = (
(102,495,o),
(125,249,o),
(112,26,cs),
(110,0,o),
(134,-11,o),
(155,-10,cs),
(175,-8,o),
(191,6,o),
(192,32,cs),
(206,266,o),
(183,500,o),
(193,735,c),
(192,761,o),
(171,772,o),
(150,771,cs),
(130,769,o),
(111,755,o),
(113,729,c)
);
},
{
closed = 1;
nodes = (
(199,690,o),
(270,700,o),
(312,700,cs),
(387,700,o),
(492,677,o),
(492,601,cs),
(492,488,o),
(315,447,o),
(216,447,cs),
(192,447,o),
(172,449,o),
(150,451,cs),
(129,452,o),
(123,434,o),
(124,413,cs),
(124,377,o),
(154,367,o),
(207,367,cs),
(233,367,o),
(261,370,o),
(300,376,c),
(384,375,o),
(526,337,o),
(526,242,cs),
(526,132,o),
(354,77,o),
(227,77,cs),
(199,77,o),
(169,79,o),
(138,84,c),
(127,5,l),
(149,3,o),
(188,-1,o),
(229,-1,cs),
(406,-1,o),
(607,84,o),
(607,240,cs),
(607,318,o),
(546,393,o),
(435,423,c),
(530,464,o),
(572,539,o),
(572,606,cs),
(572,745,o),
(418,778,o),
(304,778,cs),
(236,778,o),
(200,772,o),
(173,764,c),
(173,686,l)
);
}
);
width = 662;
},
{
anchors = (
{
name = bottom;
pos = (318,0);
},
{
name = center;
pos = (331,382);
},
{
name = top;
pos = (344,764);
}
);
background = {
shapes = (
{
closed = 1;
nodes = (
(101,493,o),
(107,246,o),
(78,25,cs),
(75,-1,o),
(98,-14,o),
(119,-14,cs),
(139,-14,o),
(156,-1,o),
(159,25,cs),
(189,258,o),
(182,493,o),
(209,726,c),
(209,752,o),
(189,765,o),
(168,765,cs),
(148,765,o),
(128,752,o),
(128,726,c)
);
},
{
closed = 1;
nodes = (
(190,690,o),
(261,700,o),
(303,700,cs),
(378,700,o),
(483,677,o),
(483,601,cs),
(483,488,o),
(306,447,o),
(207,447,cs),
(183,447,o),
(163,449,o),
(141,451,cs),
(120,452,o),
(114,434,o),
(115,413,cs),
(115,377,o),
(145,367,o),
(198,367,cs),
(224,367,o),
(252,370,o),
(291,376,c),
(375,375,o),
(517,337,o),
(517,242,cs),
(517,132,o),
(345,77,o),
(218,77,cs),
(190,77,o),
(160,79,o),
(129,84,c),
(118,5,l),
(140,3,o),
(179,-1,o),
(220,-1,cs),
(397,-1,o),
(598,84,o),
(598,240,cs),
(598,318,o),
(537,393,o),
(426,423,c),
(521,464,o),
(563,539,o),
(563,606,cs),
(563,745,o),
(409,778,o),
(295,778,cs),
(227,778,o),
(191,772,o),
(164,764,c),
(164,686,l)
);
}
);
};
layerId = m003;
shapes = (
{
closed = 1;
nodes = (
(100,495,o),
(108,249,o),
(95,26,cs),
(93,0,o),
(117,-11,o),
(138,-10,cs),
(158,-8,o),
(174,6,o),
(175,32,cs),
(189,266,o),
(181,500,o),
(191,735,c),
(190,761,o),
(169,772,o),
(148,771,cs),
(128,769,o),
(109,755,o),
(111,729,c)
);
},
{
closed = 1;
nodes = (
(190,690,o),
(261,700,o),
(303,700,cs),
(378,700,o),
(483,677,o),
(483,601,cs),
(483,488,o),
(306,447,o),
(207,447,cs),
(183,447,o),
(163,449,o),
(141,451,cs),
(120,452,o),
(114,434,o),
(115,413,cs),
(115,377,o),
(145,367,o),
(198,367,cs),
(224,367,o),
(252,370,o),
(291,376,c),
(375,375,o),
(517,337,o),
(517,242,cs),
(517,132,o),
(345,77,o),
(218,77,cs),
(190,77,o),
(160,79,o),
(129,84,c),
(118,5,l),
(140,3,o),
(179,-1,o),
(220,-1,cs),
(397,-1,o),
(598,84,o),
(598,240,cs),
(598,318,o),
(537,393,o),
(426,423,c),
(521,464,o),
(563,539,o),
(563,606,cs),
(563,745,o),
(409,778,o),
(295,778,cs),
(227,778,o),
(191,772,o),
(164,764,c),
(164,686,l)
);
}
);
width = 653;
},
{
associatedMasterId = m003;
background = {
shapes = (
{
closed = 1;
nodes = (
(4838,340,o),
(4841,180,o),
(4820,21,c),
(4818,-13,o),
(4865,-33,o),
(4889,-7,c),
(4935,153,o),
(4911,333,o),
(4932,499,c),
(4932,552,o),
(4852,552,o),
(4851,499,c)
);
},
{
closed = 1;
nodes = (
(4915,264,o),
(4915,269,o),
(4916,273,c),
(4914,262,l),
(4918,286,o),
(4924,309,o),
(4934,331,c),
(4932,328,o),
(4931,324,o),
(4930,321,c),
(4946,366,o),
(4993,420,o),
(5010,431,c),
(5024,441,o),
(5038,450,o),
(5054,457,c),
(5051,456,o),
(5048,455,o),
(5044,453,c),
(5057,459,o),
(5070,462,o),
(5084,464,c),
(5080,464,o),
(5077,463,o),
(5073,463,c),
(5084,464,o),
(5095,464,o),
(5106,463,c),
(5103,463,o),
(5099,464,o),
(5095,464,c),
(5107,463,o),
(5117,460,o),
(5128,456,c),
(5125,457,o),
(5121,458,o),
(5118,460,c),
(5129,455,o),
(5139,449,o),
(5148,442,c),
(5138,448,o),
(5144,446,o),
(5146,444,c),
(5157,435,o),
(5166,425,o),
(5175,415,c),
(5180,409,o),
(5169,422,o),
(5174,415,c),
(5173,418,o),
(5172,421,o),
(5170,424,c),
(5177,407,o),
(5181,388,o),
(5184,370,c),
(5183,373,o),
(5183,377,o),
(5182,380,c),
(5188,278,o),
(5179,174,o),
(5181,72,c),
(5182,75,o),
(5182,79,o),
(5183,83,c),
(5181,71,o),
(5178,61,o),
(5174,50,c),
(5176,53,o),
(5177,57,o),
(5178,60,c),
(5147,14,o),
(5218,-33,o),
(5246,15,c),
(5278,81,o),
(5257,155,o),
(5262,225,c),
(5265,302,o),
(5277,386,o),
(5243,458,c),
(5167,576,o),
(5013,565,o),
(4927,464,c),
(4875,408,o),
(4840,336,o),
(4833,259,c),
(4833,207,o),
(4914,207,o),
(4914,259,c)
);
},
{
closed = 1;
nodes = (
(1424,360,o),
(1434,192,o),
(1424,25,c),
(1423,-28,o),
(1505,-28,o),
(1505,25,c),
(1514,173,o),
(1506,322,o),
(1526,470,c),
(1524,459,l),
(1525,484,o),
(1540,511,o),
(1527,535,c),
(1512,565,o),
(1460,559,o),
(1453,525,c)
);
},
{
closed = 1;
nodes = (
(1516,299,o),
(1521,314,o),
(1527,328,c),
(1526,325,o),
(1525,322,o),
(1523,319,c),
(1557,391,o),
(1592,441,o),
(1657,472,c),
(1654,471,o),
(1651,470,o),
(1648,468,c),
(1658,472,o),
(1668,476,o),
(1679,477,c),
(1668,476,l),
(1676,477,o),
(1684,477,o),
(1693,476,c),
(1689,476,o),
(1685,477,o),
(1682,477,c),
(1690,476,o),
(1698,474,o),
(1705,471,c),
(1702,472,o),
(1699,473,o),
(1696,475,c),
(1701,472,o),
(1707,469,o),
(1713,465,c),
(1718,461,o),
(1710,466,o),
(1710,468,c),
(1729,450,o),
(1730,451,o),
(1740,429,c),
(1739,433,o),
(1738,436,o),
(1736,439,c),
(1743,424,o),
(1746,407,o),
(1748,391,c),
(1746,402,l),
(1761,276,o),
(1740,150,o),
(1737,25,c),
(1736,-28,o),
(1818,-28,o),
(1818,25,c),
(1819,84,o),
(1825,143,o),
(1829,202,c),
(1832,321,o),
(1861,496,o),
(1723,550,c),
(1581,589,o),
(1467,425,o),
(1435,305,c),
(1420,254,o),
(1500,232,o),
(1513,283,c)
);
},
{
closed = 1;
nodes = (
(1834,291,o),
(1835,296,o),
(1836,301,c),
(1835,298,o),
(1835,294,o),
(1834,290,c),
(1837,312,o),
(1844,334,o),
(1852,354,c),
(1851,351,o),
(1849,348,o),
(1848,345,c),
(1872,395,o),
(1887,419,o),
(1928,453,c),
(1927,452,o),
(1925,451,o),
(1924,450,c),
(1937,459,o),
(1950,468,o),
(1965,474,c),
(1962,472,o),
(1959,471,o),
(1955,470,c),
(1967,474,o),
(1978,477,o),
(1990,479,c),
(1987,479,o),
(1983,478,o),
(1979,478,c),
(1989,479,o),
(1999,479,o),
(2010,478,c),
(2006,478,o),
(2002,479,o),
(1999,479,c),
(2009,478,o),
(2019,475,o),
(2028,471,c),
(2025,472,o),
(2022,474,o),
(2018,475,c),
(2041,466,o),
(2051,454,o),
(2060,445,c),
(2055,452,o),
(2062,439,o),
(2062,438,c),
(2061,441,o),
(2060,444,o),
(2058,447,c),
(2069,421,o),
(2075,394,o),
(2079,366,c),
(2078,377,l),
(2089,287,o),
(2079,196,o),
(2069,106,c),
(2070,74,o),
(2049,33,o),
(2073,6,c),
(2098,-19,o),
(2143,0,o),
(2142,35,c),
(2149,98,o),
(2157,161,o),
(2161,224,c),
(2166,313,o),
(2167,408,o),
(2127,489,c),
(1987,672,o),
(1757,462,o),
(1753,286,c),
(1752,233,o),
(1834,233,o),
(1834,286,c)
);
},
{
closed = 1;
nodes = (
(3273,558,o),
(3086,576,o),
(3004,485,c),
(2968,441,o),
(2950,375,o),
(2985,326,c),
(3035,252,o),
(3131,239,o),
(3202,192,c),
(3204,191,o),
(3206,189,o),
(3208,188,c),
(3215,183,o),
(3199,195,o),
(3207,189,c),
(3224,172,o),
(3217,182,o),
(3230,157,c),
(3229,160,o),
(3227,163,o),
(3226,167,c),
(3229,159,o),
(3231,151,o),
(3233,142,c),
(3232,146,o),
(3232,150,o),
(3231,153,c),
(3232,145,o),
(3232,137,o),
(3231,129,c),
(3232,133,o),
(3232,137,o),
(3233,140,c),
(3232,132,o),
(3229,123,o),
(3226,115,c),
(3228,119,o),
(3229,122,o),
(3230,125,c),
(3227,117,o),
(3222,110,o),
(3217,102,c),
(3225,114,o),
(3218,104,o),
(3215,101,c),
(3201,87,o),
(3201,86,o),
(3175,74,c),
(3178,76,o),
(3182,77,o),
(3185,78,c),
(3171,73,o),
(3157,69,o),
(3142,67,c),
(3146,67,o),
(3149,68,o),
(3153,68,c),
(3135,66,o),
(3118,66,o),
(3100,68,c),
(3104,68,o),
(3108,67,o),
(3111,67,c),
(3091,70,o),
(3072,75,o),
(3053,83,c),
(3056,82,o),
(3059,80,o),
(3063,79,c),
(3040,88,o),
(3019,101,o),
(3000,115,c),
(3002,114,o),
(3003,113,o),
(3004,112,c),
(3001,115,o),
(2998,118,o),
(2994,120,c),
(2981,98,o),
(2968,75,o),
(2955,53,c),
(2989,34,o),
(3028,77,o),
(3008,110,c),
(2974,162,o),
(2894,113,o),
(2937,63,c),
(3026,-17,o),
(3179,-51,o),
(3271,43,c),
(3322,92,o),
(3327,177,o),
(3280,230,c),
(3235,287,o),
(3106,319,o),
(3074,348,c),
(3068,350,o),
(3042,382,o),
(3057,363,c),
(3053,369,o),
(3050,374,o),
(3047,381,c),
(3048,377,o),
(3050,374,o),
(3051,371,c),
(3049,377,o),
(3047,382,o),
(3046,388,c),
(3047,385,o),
(3047,381,o),
(3048,378,c),
(3047,384,o),
(3047,391,o),
(3048,398,c),
(3047,394,o),
(3047,390,o),
(3046,387,c),
(3048,397,o),
(3050,407,o),
(3054,416,c),
(3053,413,o),
(3052,410,o),
(3050,406,c),
(3067,438,o),
(3065,437,o),
(3095,453,c),
(3091,452,o),
(3088,450,o),
(3085,449,c),
(3098,455,o),
(3112,458,o),
(3126,460,c),
(3123,459,o),
(3119,459,o),
(3115,458,c),
(3139,461,o),
(3162,460,o),
(3186,457,c),
(3182,458,o),
(3179,458,o),
(3175,459,c),
(3188,457,o),
(3201,454,o),
(3213,449,c),
(3210,450,o),
(3207,451,o),
(3203,453,c),
(3210,450,o),
(3216,447,o),
(3222,443,c),
(3226,441,o),
(3235,432,o),
(3224,442,c),
(3229,440,o),
(3252,411,o),
(3239,428,c),
(3271,350,o),
(3348,380,o),
(3325,442,c)
);
},
{
closed = 1;
nodes = (
(2394,697,o),
(2150,261,o),
(2341,56,c),
(2406,-9,o),
(2517,-22,o),
(2586,44,c),
(2666,119,o),
(2684,236,o),
(2705,339,c),
(2704,336,o),
(2704,332,o),
(2703,328,c),
(2720,398,o),
(2749,552,o),
(2625,496,c),
(2575,462,o),
(2630,394,o),
(2677,431,c),
(2673,430,o),
(2670,429,o),
(2667,427,c),
(2669,428,o),
(2671,429,o),
(2673,429,c),
(2670,429,o),
(2666,428,o),
(2663,428,c),
(2664,428,o),
(2665,428,o),
(2667,428,c),
(2663,428,o),
(2660,429,o),
(2656,429,c),
(2657,429,o),
(2658,429,o),
(2658,428,c),
(2655,430,o),
(2652,431,o),
(2649,433,c),
(2656,430,o),
(2643,438,o),
(2645,436,c),
(2646,434,o),
(2638,446,o),
(2642,439,c),
(2640,442,o),
(2639,446,o),
(2638,449,c),
(2639,446,o),
(2640,442,o),
(2640,439,c),
(2640,443,o),
(2639,446,o),
(2639,450,c),
(2640,438,o),
(2639,426,o),
(2637,414,c),
(2638,417,o),
(2638,421,o),
(2639,424,c),
(2635,394,o),
(2626,364,o),
(2623,334,c),
(2624,337,o),
(2624,341,o),
(2625,345,c),
(2611,286,o),
(2600,226,o),
(2577,171,c),
(2578,174,o),
(2580,177,o),
(2581,180,c),
(2572,160,o),
(2562,140,o),
(2549,122,c),
(2546,118,o),
(2550,124,o),
(2551,125,c),
(2543,115,o),
(2533,105,o),
(2523,97,c),
(2523,97,o),
(2531,103,o),
(2526,99,c),
(2518,93,o),
(2509,88,o),
(2499,84,c),
(2503,86,o),
(2506,87,o),
(2509,88,c),
(2497,83,o),
(2484,80,o),
(2471,78,c),
(2475,79,o),
(2478,79,o),
(2482,80,c),
(2476,80,o),
(2469,81,o),
(2463,81,c),
(2467,81,o),
(2470,80,o),
(2474,80,c),
(2458,82,o),
(2442,86,o),
(2427,92,c),
(2431,91,o),
(2434,89,o),
(2437,88,c),
(2425,93,o),
(2414,100,o),
(2404,107,c),
(2404,107,o),
(2412,100,o),
(2408,104,c),
(2399,111,o),
(2392,119,o),
(2385,128,c),
(2385,127,o),
(2391,119,o),
(2387,124,c),
(2379,135,o),
(2373,147,o),
(2367,160,c),
(2369,157,o),
(2370,154,o),
(2371,150,c),
(2364,169,o),
(2359,188,o),
(2356,208,c),
(2357,197,l),
(2354,224,o),
(2354,251,o),
(2358,277,c),
(2356,266,l),
(2360,296,o),
(2368,326,o),
(2380,354,c),
(2378,351,o),
(2377,347,o),
(2376,344,c),
(2385,367,o),
(2397,388,o),
(2412,408,c),
(2409,403,o),
(2408,402,o),
(2408,402,c),
(2417,415,o),
(2432,430,o),
(2445,440,c),
(2436,432,o),
(2441,437,o),
(2443,439,c),
(2454,447,o),
(2466,454,o),
(2479,459,c),
(2476,458,o),
(2472,456,o),
(2469,455,c),
(2482,460,o),
(2496,464,o),
(2510,466,c),
(2506,465,o),
(2503,465,o),
(2499,465,c),
(2514,466,o),
(2528,466,o),
(2542,464,c),
(2538,465,o),
(2535,465,o),
(2531,466,c),
(2549,463,o),
(2565,458,o),
(2582,452,c),
(2578,453,o),
(2575,455,o),
(2572,456,c),
(2601,448,o),
(2624,414,o),
(2657,422,c),
(2691,431,o),
(2696,478,o),
(2666,496,c)
);
},
{
closed = 1;
nodes = (
(2627,370,o),
(2602,218,o),
(2626,70,c),
(2653,-78,o),
(2800,-21,o),
(2837,83,c),
(2838,117,o),
(2791,138,o),
(2768,111,c),
(2743,83,o),
(2733,70,o),
(2709,59,c),
(2712,60,o),
(2715,62,o),
(2719,63,c),
(2714,61,o),
(2710,60,o),
(2705,59,c),
(2708,59,o),
(2712,60,o),
(2715,60,c),
(2713,60,o),
(2710,60,o),
(2707,60,c),
(2710,60,o),
(2714,59,o),
(2718,59,c),
(2715,59,o),
(2712,60,o),
(2710,61,c),
(2713,60,o),
(2716,58,o),
(2719,57,c),
(2717,58,o),
(2715,59,o),
(2713,60,c),
(2709,63,o),
(2723,52,o),
(2718,57,c),
(2713,60,o),
(2710,69,o),
(2718,56,c),
(2714,61,o),
(2711,66,o),
(2709,71,c),
(2711,68,o),
(2712,65,o),
(2713,62,c),
(2706,78,o),
(2703,96,o),
(2700,114,c),
(2701,110,o),
(2701,107,o),
(2702,103,c),
(2690,208,o),
(2703,314,o),
(2716,418,c),
(2715,414,o),
(2715,411,o),
(2714,407,c),
(2715,446,o),
(2737,489,o),
(2724,526,c),
(2708,556,o),
(2657,551,o),
(2650,517,c)
);
},
{
closed = 1;
nodes = (
(3493,327,o),
(3518,162,o),
(3571,4,c),
(3582,-34,o),
(3638,-34,o),
(3649,4,c),
(3665,47,o),
(3682,89,o),
(3699,131,c),
(3698,128,o),
(3697,125,o),
(3695,121,c),
(3749,247,o),
(3808,371,o),
(3859,498,c),
(3835,494,o),
(3810,491,o),
(3785,488,c),
(3792,474,o),
(3798,460,o),
(3804,447,c),
(3803,450,o),
(3801,453,o),
(3800,456,c),
(3847,345,o),
(3872,227,o),
(3902,111,c),
(3919,70,o),
(3912,-6,o),
(3963,-18,c),
(3977,-20,o),
(3997,-13,o),
(4003,1,c),
(4050,106,o),
(4083,217,o),
(4127,323,c),
(4126,320,o),
(4125,317,o),
(4123,314,c),
(4146,367,o),
(4172,419,o),
(4204,466,c),
(4231,511,o),
(4161,552,o),
(4134,507,c),
(4042,371,o),
(4004,208,o),
(3940,58,c),
(3942,61,o),
(3943,65,o),
(3944,68,c),
(3941,59,o),
(3937,51,o),
(3933,42,c),
(3958,39,o),
(3983,36,o),
(4007,33,c),
(3974,101,o),
(3868,772,o),
(3762,472,c),
(3763,476,o),
(3765,479,o),
(3766,482,c),
(3702,330,o),
(3628,181,o),
(3571,26,c),
(3649,26,l),
(3596,183,o),
(3571,348,o),
(3529,509,c),
(3515,559,o),
(3436,538,o),
(3450,487,c)
);
},
{
closed = 1;
nodes = (
(4711,166,o),
(4699,621,o),
(4368,519,c),
(4201,452,o),
(4143,206,o),
(4259,69,c),
(4353,-47,o),
(4530,-21,o),
(4624,80,c),
(4663,132,o),
(4598,184,o),
(4540,114,c),
(4544,118,o),
(4545,119,o),
(4545,118,c),
(4529,105,o),
(4507,93,o),
(4487,84,c),
(4490,85,o),
(4494,87,o),
(4497,88,c),
(4479,81,o),
(4461,75,o),
(4442,73,c),
(4446,73,o),
(4449,74,o),
(4453,74,c),
(4436,72,o),
(4418,72,o),
(4401,74,c),
(4412,72,l),
(4397,75,o),
(4382,79,o),
(4368,84,c),
(4371,83,o),
(4374,82,o),
(4378,80,c),
(4344,96,o),
(4337,102,o),
(4313,129,c),
(4310,134,o),
(4316,126,o),
(4316,126,c),
(4306,139,o),
(4298,154,o),
(4291,169,c),
(4293,166,o),
(4294,162,o),
(4295,159,c),
(4288,177,o),
(4283,196,o),
(4280,215,c),
(4281,212,o),
(4281,208,o),
(4282,205,c),
(4278,229,o),
(4279,255,o),
(4282,279,c),
(4282,276,o),
(4281,272,o),
(4281,269,c),
(4285,297,o),
(4292,325,o),
(4303,351,c),
(4302,348,o),
(4300,344,o),
(4299,341,c),
(4304,354,o),
(4311,367,o),
(4318,378,c),
(4331,395,o),
(4366,433,o),
(4399,445,c),
(4396,444,o),
(4392,442,o),
(4389,441,c),
(4404,447,o),
(4420,451,o),
(4436,453,c),
(4425,452,l),
(4443,454,o),
(4462,456,o),
(4481,454,c),
(4470,455,l),
(4479,454,o),
(4488,452,o),
(4497,448,c),
(4494,450,o),
(4491,451,o),
(4488,452,c),
(4509,441,o),
(4502,446,o),
(4517,431,c),
(4519,429,o),
(4520,425,o),
(4514,435,c),
(4518,429,o),
(4522,422,o),
(4525,416,c),
(4524,419,o),
(4522,422,o),
(4521,425,c),
(4524,417,o),
(4527,408,o),
(4528,400,c),
(4528,403,o),
(4527,407,o),
(4527,410,c),
(4528,401,o),
(4528,391,o),
(4527,381,c),
(4527,385,o),
(4528,388,o),
(4528,392,c),
(4527,382,o),
(4524,373,o),
(4520,364,c),
(4522,367,o),
(4523,370,o),
(4524,374,c),
(4503,332,o),
(4489,324,o),
(4440,300,c),
(4443,301,o),
(4447,302,o),
(4450,304,c),
(4418,290,o),
(4385,283,o),
(4351,278,c),
(4362,280,l),
(4328,275,o),
(4294,274,o),
(4261,275,c),
(4208,275,o),
(4208,194,o),
(4261,194,c)
);
}
);
};
layerId = "395EA209-F3C8-47E0-8868-291482E6FE06";
name = "Original Variations";
shapes = (
{
closed = 1;
nodes = (
(81,68,o),
(81,101,o),
(81,134,cs),
(81,335,o),
(106,535,o),
(112,735,c),
(71,694,l),
(132,697,o),
(192,706,o),
(252,706,cs),
(274,706,o),
(295,705,o),
(316,702,c),
(305,704,l),
(326,701,o),
(347,696,o),
(366,688,cs),
(363,689,o),
(360,691,o),
(357,692,c),
(396,671,o),
(389,677,o),
(408,644,c),
(407,647,o),
(406,650,o),
(404,654,cs),
(409,642,o),
(412,630,o),
(414,618,c),
(412,629,l),
(413,620,o),
(414,611,o),
(414,602,cs),
(414,591,o),
(413,580,o),
(412,569,c),
(412,573,o),
(413,577,o),
(413,580,c),
(411,566,o),
(408,552,o),
(402,539,c),
(404,542,o),
(405,545,o),
(406,548,cs),
(402,537,o),
(395,526,o),
(388,517,c),
(392,523,o),
(393,524,o),
(393,524,c),
(391,521,ls),
(371,491,o),
(365,494,o),
(327,476,cs),
(330,477,o),
(334,478,o),
(337,480,c),
(304,466,o),
(201,451,o),
(235,454,cs),
(245,455,ls),
(303,461,o),
(128,448,o),
(70,447,c),
(70,366,l),
(95,368,o),
(121,370,o),
(146,370,cs),
(176,370,o),
(206,368,o),
(236,364,c),
(232,364,o),
(228,365,o),
(225,365,c),
(260,360,o),
(295,352,o),
(328,339,cs),
(325,340,o),
(322,341,o),
(318,343,cs),
(371,317,o),
(381,311,o),
(404,266,cs),
(402,270,o),
(401,273,o),
(399,276,c),
(405,263,o),
(408,250,o),
(410,236,c),
(410,240,o),
(409,243,o),
(409,247,c),
(410,238,o),
(410,230,o),
(410,222,cs),
(410,212,o),
(410,202,o),
(408,192,c),
(410,202,ls),
(413,217,o),
(404,172,o),
(400,157,cs),
(401,161,o),
(402,164,o),
(404,167,cs),
(383,136,o),
(369,122,o),
(322,100,c),
(325,102,o),
(329,103,o),
(332,105,c),
(304,93,o),
(275,87,o),
(246,83,c),
(249,83,o),
(253,84,o),
(257,84,c),
(227,80,o),
(197,79,o),
(167,79,cs),
(126,79,o),
(85,81,o),
(45,83,cs),
(23,84,o),
(3,64,o),
(4,43,cs),
(5,20,o),
(22,3,o),
(45,2,cs),
(85,0,o),
(125,-2,o),
(165,-2,cs),
(203,-2,o),
(240,0,o),
(278,6,cs),
(394,20,o),
(492,101,o),
(492,216,cs),
(492,230,o),
(491,245,o),
(488,260,cs),
(474,358,o),
(379,419,o),
(287,436,cs),
(245,443,o),
(190,452,o),
(138,452,cs),
(102,452,o),
(67,448,o),
(41,435,c),
(33,427,o),
(30,418,o),
(30,408,cs),
(30,386,o),
(46,365,o),
(70,366,cs),
(140,367,o),
(210,367,o),
(279,379,c),
(421,395,o),
(497,501,o),
(497,601,cs),
(497,696,o),
(429,785,o),
(282,786,cs),
(218,789,o),
(154,781,o),
(91,777,c),
(63,778,o),
(31,768,o),
(31,735,cs),
(25,535,o),
(0,335,o),
(0,134,cs),
(0,101,o),
(0,68,o),
(2,35,cs),
(2,9,o),
(22,-4,o),
(43,-4,cs),
(63,-4,o),
(83,9,o),
(83,35,cs)
);
},
{
closed = 1;
nodes = (
(918,36,ls),
(917,10,o),
(938,-3,o),
(958,-3,cs),
(979,-3,o),
(998,10,o),
(999,36,cs),
(1026,734,ls),
(1027,760,o),
(1006,773,o),
(986,773,cs),
(966,773,o),
(946,760,o),
(945,734,cs)
);
},
{
closed = 1;
nodes = (
(1054,689,o),
(1073,690,o),
(1091,690,cs),
(1117,690,o),
(1195,680,o),
(1169,685,cs),
(1158,687,ls),
(1130,692,o),
(1215,676,o),
(1241,665,c),
(1238,667,o),
(1235,668,o),
(1232,669,cs),
(1284,644,o),
(1294,636,o),
(1318,587,c),
(1317,590,o),
(1315,593,o),
(1314,597,c),
(1319,585,o),
(1321,572,o),
(1322,560,cs),
(1322,564,o),
(1321,567,o),
(1321,571,c),
(1322,564,o),
(1323,557,o),
(1323,550,cs),
(1323,542,o),
(1322,535,o),
(1321,528,c),
(1323,539,l),
(1321,527,o),
(1318,516,o),
(1314,506,cs),
(1315,509,o),
(1317,512,o),
(1318,515,c),
(1298,476,o),
(1290,471,o),
(1244,449,cs),
(1247,450,o),
(1251,451,o),
(1254,453,c),
(1229,442,o),
(1202,436,o),
(1175,432,c),
(1179,432,o),
(1182,433,o),
(1186,433,c),
(1169,431,o),
(1151,430,o),
(1133,430,cs),
(1115,430,o),
(1098,431,o),
(1080,433,c),
(1084,433,o),
(1088,432,o),
(1091,432,c),
(1088,432,o),
(1085,433,o),
(1081,434,c),
(1078,407,o),
(1074,380,o),
(1070,354,c),
(1088,357,o),
(1107,358,o),
(1125,358,cs),
(1142,358,o),
(1192,353,o),
(1175,355,cs),
(1165,356,l),
(1191,352,o),
(1217,346,o),
(1242,335,c),
(1239,337,o),
(1236,338,o),
(1233,339,cs),
(1291,311,o),
(1307,299,o),
(1332,248,c),
(1331,252,o),
(1329,255,o),
(1328,258,cs),
(1333,246,o),
(1336,234,o),
(1338,222,c),
(1337,232,l),
(1338,221,o),
(1338,209,o),
(1337,197,cs),
(1337,201,o),
(1338,204,o),
(1338,208,cs),
(1337,196,o),
(1334,185,o),
(1329,174,c),
(1333,184,l),
(1309,136,o),
(1293,126,o),
(1235,98,c),
(1245,102,ls),
(1274,114,o),
(1185,82,o),
(1154,76,c),
(1158,76,o),
(1161,77,o),
(1165,77,c),
(1141,74,o),
(1117,73,o),
(1094,73,cs),
(1024,73,o),
(955,83,o),
(886,87,cs),
(860,88,o),
(847,67,o),
(847,47,cs),
(847,27,o),
(860,6,o),
(886,6,c),
(953,1,o),
(1021,-8,o),
(1088,-8,cs),
(1132,-8,o),
(1175,-4,o),
(1217,7,cs),
(1316,29,o),
(1420,111,o),
(1420,215,cs),
(1420,233,o),
(1417,251,o),
(1410,270,cs),
(1373,377,o),
(1251,440,o),
(1137,440,cs),
(1104,440,o),
(1071,434,o),
(1042,423,c),
(1034,416,o),
(1031,405,o),
(1031,395,cs),
(1031,377,o),
(1041,359,o),
(1060,355,cs),
(1084,351,o),
(1110,349,o),
(1136,349,cs),
(1225,349,o),
(1318,375,o),
(1373,448,cs),
(1395,479,o),
(1404,513,o),
(1404,547,cs),
(1404,639,o),
(1333,729,o),
(1239,752,cs),
(1215,759,o),
(1145,773,o),
(1087,773,cs),
(1036,773,o),
(994,763,o),
(995,728,cs),
(996,708,o),
(1013,686,o),
(1036,688,cs)
);
},
{
closed = 1;
nodes = (
(1845,566,o),
(1837,388,o),
(1837,210,cs),
(1837,155,o),
(1837,101,o),
(1839,47,cs),
(1839,21,o),
(1860,8,o),
(1880,8,cs),
(1900,8,o),
(1921,21,o),
(1920,47,cs),
(1918,102,o),
(1918,156,o),
(1918,211,cs),
(1918,337,o),
(1922,463,o),
(1931,589,c),
(1928,620,o),
(1943,683,o),
(1943,728,cs),
(1943,747,o),
(1940,763,o),
(1932,771,cs),
(1924,779,o),
(1914,783,o),
(1904,783,cs),
(1883,783,o),
(1863,767,o),
(1863,743,c)
);
},
{
closed = 1;
nodes = (
(1952,702,o),
(1980,708,o),
(2008,712,c),
(2005,711,o),
(2001,711,o),
(1998,710,c),
(2022,713,o),
(2047,716,o),
(2072,716,cs),
(2090,716,o),
(2107,715,o),
(2125,712,cs),
(2114,714,l),
(2138,711,o),
(2162,705,o),
(2185,695,c),
(2182,697,o),
(2178,698,o),
(2175,699,c),
(2222,675,o),
(2222,677,o),
(2243,637,c),
(2242,641,o),
(2241,644,o),
(2239,647,c),
(2243,637,o),
(2246,627,o),
(2248,617,c),
(2247,620,o),
(2247,624,o),
(2246,628,c),
(2247,617,o),
(2247,605,o),
(2246,594,c),
(2246,598,o),
(2247,602,o),
(2247,605,cs),
(2246,592,o),
(2242,580,o),
(2237,568,c),
(2239,571,o),
(2240,574,o),
(2241,577,cs),
(2235,563,o),
(2227,550,o),
(2218,538,c),
(2222,544,o),
(2224,546,o),
(2224,546,c),
(2224,545,o),
(2221,541,o),
(2219,539,cs),
(2187,504,o),
(2173,495,o),
(2124,472,c),
(2127,474,o),
(2130,475,o),
(2134,477,cs),
(2100,462,o),
(2064,453,o),
(2027,448,c),
(2031,449,o),
(2035,449,o),
(2038,450,c),
(2013,447,o),
(1988,445,o),
(1962,445,cs),
(1933,445,o),
(1904,447,o),
(1876,451,cs),
(1886,450,ls),
(1883,450,o),
(1880,451,o),
(1877,451,c),
(1866,371,l),
(1918,375,o),
(1970,380,o),
(2023,380,cs),
(2050,380,o),
(2077,379,o),
(2104,375,c),
(2101,376,o),
(2097,376,o),
(2094,377,c),
(2123,373,o),
(2151,366,o),
(2178,355,cs),
(2175,356,o),
(2172,358,o),
(2169,359,cs),
(2185,352,o),
(2201,343,o),
(2216,332,cs),
(2210,336,o),
(2209,337,o),
(2210,337,c),
(2221,329,o),
(2232,317,o),
(2241,305,c),
(2240,307,o),
(2234,314,o),
(2239,309,c),
(2247,297,o),
(2255,284,o),
(2260,270,cs),
(2259,273,o),
(2258,276,o),
(2256,280,cs),
(2261,268,o),
(2265,256,o),
(2267,243,c),
(2265,254,l),
(2266,247,o),
(2267,239,o),
(2267,231,cs),
(2267,223,o),
(2266,216,o),
(2265,208,c),
(2267,219,l),
(2265,204,o),
(2261,190,o),
(2255,176,c),
(2259,186,l),
(2253,172,o),
(2245,158,o),
(2236,146,c),
(2235,143,o),
(2230,139,o),
(2239,149,c),
(2227,134,o),
(2213,120,o),
(2198,108,c),
(2208,117,o),
(2203,112,o),
(2200,110,cs),
(2181,96,o),
(2160,84,o),
(2138,75,cs),
(2141,76,o),
(2144,77,o),
(2148,79,cs),
(2124,69,o),
(2099,62,o),
(2074,58,c),
(2077,59,o),
(2081,59,o),
(2085,60,c),
(2060,57,o),
(2036,55,o),
(2011,55,cs),
(1960,55,o),
(1910,61,o),
(1860,67,cs),
(1850,68,o),
(1838,62,o),
(1831,55,cs),
(1823,47,o),
(1820,38,o),
(1820,28,cs),
(1820,7,o),
(1836,-14,o),
(1860,-14,c),
(1914,-20,o),
(1969,-27,o),
(2023,-26,cs),
(2234,-19,o),
(2349,108,o),
(2349,231,cs),
(2349,349,o),
(2243,464,o),
(2014,464,cs),
(1975,464,o),
(1934,461,o),
(1889,454,c),
(1853,459,o),
(1826,435,o),
(1826,410,cs),
(1826,396,o),
(1835,382,o),
(1856,373,c),
(1896,366,o),
(1934,362,o),
(1970,362,cs),
(2193,362,o),
(2329,496,o),
(2329,616,cs),
(2329,704,o),
(2254,785,o),
(2084,797,c),
(2023,798,o),
(1962,788,o),
(1902,774,cs),
(1882,768,o),
(1873,753,o),
(1873,737,cs),
(1873,716,o),
(1888,694,o),
(1912,694,cs),
(1916,694,o),
(1920,695,o),
(1924,696,cs)
);
},
{
closed = 1;
nodes = (
(2772,499,o),
(2767,270,o),
(2767,41,cs),
(2767,20,o),
(2786,0,o),
(2808,1,cs),
(2830,2,o),
(2848,19,o),
(2848,41,cs),
(2848,270,o),
(2853,499,o),
(2864,728,cs),
(2864,754,o),
(2844,767,o),
(2823,767,cs),
(2803,767,o),
(2783,754,o),
(2783,728,cs)
);
},
{
closed = 1;
nodes = (
(2844,687,o),
(2886,696,o),
(2928,702,c),
(2925,701,o),
(2921,701,o),
(2917,700,c),
(2946,704,o),
(2974,707,o),
(3003,707,cs),
(3023,707,o),
(3043,705,o),
(3062,703,cs),
(3059,703,o),
(3055,704,o),
(3051,704,c),
(3076,701,o),
(3100,695,o),
(3123,686,cs),
(3120,687,o),
(3116,688,o),
(3113,690,c),
(3141,676,o),
(3151,671,o),
(3166,656,c),
(3154,673,o),
(3175,643,o),
(3175,638,c),
(3174,642,o),
(3173,645,o),
(3171,648,c),
(3175,638,o),
(3178,628,o),
(3180,617,cs),
(3179,621,o),
(3179,625,o),
(3178,628,c),
(3179,622,o),
(3180,616,o),
(3180,610,cs),
(3180,603,o),
(3179,597,o),
(3178,591,c),
(3179,594,o),
(3179,598,o),
(3180,601,c),
(3177,586,o),
(3173,571,o),
(3167,557,c),
(3169,560,o),
(3170,563,o),
(3171,566,cs),
(3155,532,o),
(3152,528,o),
(3127,505,cs),
(3121,500,o),
(3128,505,o),
(3129,506,cs),
(3108,490,o),
(3084,478,o),
(3060,467,c),
(3063,469,o),
(3067,470,o),
(3070,471,cs),
(2987,437,o),
(2896,431,o),
(2810,410,cs),
(2791,406,o),
(2781,389,o),
(2781,371,cs),
(2781,357,o),
(2787,343,o),
(2800,336,c),
(2809,333,o),
(2818,332,o),
(2827,332,cs),
(2863,332,o),
(2901,349,o),
(2937,350,cs),
(2933,350,o),
(2930,349,o),
(2926,349,c),
(2952,352,o),
(2979,355,o),
(3005,355,cs),
(3020,355,o),
(3035,354,o),
(3050,352,c),
(3047,352,o),
(3043,353,o),
(3039,353,c),
(3060,350,o),
(3081,345,o),
(3101,337,c),
(3098,339,o),
(3094,340,o),
(3091,341,cs),
(3104,336,o),
(3117,329,o),
(3129,321,c),
(3131,319,o),
(3139,312,o),
(3129,321,cs),
(3136,315,o),
(3143,309,o),
(3148,302,c),
(3139,312,o),
(3146,305,o),
(3147,302,c),
(3153,295,o),
(3157,286,o),
(3161,278,c),
(3160,281,o),
(3158,284,o),
(3157,287,cs),
(3162,274,o),
(3166,260,o),
(3168,246,c),
(3167,256,l),
(3168,250,o),
(3168,244,o),
(3168,238,cs),
(3168,229,o),
(3167,219,o),
(3166,209,c),
(3167,212,o),
(3167,216,o),
(3168,220,c),
(3166,203,o),
(3161,187,o),
(3155,171,cs),
(3156,174,o),
(3157,178,o),
(3159,181,cs),
(3130,124,o),
(3108,105,o),
(3046,76,cs),
(3049,77,o),
(3052,79,o),
(3055,80,cs),
(3023,67,o),
(2921,51,o),
(2955,54,cs),
(2965,55,ls),
(2994,58,o),
(2906,50,o),
(2876,50,cs),
(2842,50,o),
(2807,52,o),
(2773,55,cs),
(2752,56,o),
(2732,36,o),
(2733,14,c),
(2730,-23,o),
(2787,-32,o),
(2848,-32,cs),
(2902,-32,o),
(2959,-25,o),
(2981,-24,c),
(3089,-10,o),
(3199,52,o),
(3236,159,cs),
(3244,182,o),
(3249,208,o),
(3249,233,cs),
(3249,293,o),
(3225,352,o),
(3175,386,cs),
(3124,423,o),
(3066,435,o),
(3006,435,cs),
(2940,435,o),
(2873,421,o),
(2810,410,c),
(2831,332,l),
(2973,365,o),
(3157,369,o),
(3235,513,cs),
(3253,548,o),
(3261,581,o),
(3261,610,cs),
(3261,725,o),
(3136,793,o),
(3006,788,cs),
(2937,788,o),
(2869,776,o),
(2802,760,c),
(2778,758,o),
(2751,742,o),
(2751,717,cs),
(2751,713,o),
(2752,709,o),
(2753,705,cs),
(2759,687,o),
(2774,676,o),
(2792,676,cs),
(2795,676,o),
(2799,676,o),
(2802,677,cs)
);
},
{
closed = 1;
nodes = (
(3700,486,o),
(3696,265,o),
(3678,45,cs),
(3677,19,o),
(3698,6,o),
(3718,6,cs),
(3739,6,o),
(3759,19,o),
(3759,45,c),
(3777,265,o),
(3781,486,o),
(3794,707,c),
(3794,733,o),
(3774,746,o),
(3754,746,cs),
(3733,746,o),
(3713,733,o),
(3713,707,c)
);
},
{
closed = 1;
nodes = (
(3733,692,o),
(3765,694,o),
(3798,694,cs),
(3834,694,o),
(3943,684,o),
(3907,687,cs),
(3896,688,ls),
(3856,692,o),
(3977,674,o),
(4014,658,cs),
(4011,659,o),
(4008,661,o),
(4004,662,c),
(4054,638,o),
(4064,633,o),
(4083,595,c),
(4079,605,l),
(4081,598,o),
(4083,591,o),
(4084,584,c),
(4083,588,o),
(4083,592,o),
(4082,595,c),
(4083,585,o),
(4083,575,o),
(4082,565,c),
(4084,576,l),
(4082,564,o),
(4079,552,o),
(4074,541,c),
(4078,551,l),
(4057,509,o),
(4048,500,o),
(4005,480,c),
(4009,481,o),
(4012,483,o),
(4015,484,cs),
(3988,473,o),
(3904,461,o),
(3932,464,cs),
(3942,465,l),
(3881,453,o),
(3801,463,o),
(3754,417,c),
(3751,407,o),
(3749,398,o),
(3749,391,cs),
(3749,366,o),
(3768,359,o),
(3792,359,cs),
(3823,359,o),
(3864,371,o),
(3887,373,c),
(3876,371,l),
(3899,374,o),
(3921,376,o),
(3944,376,cs),
(3959,376,o),
(3975,375,o),
(3990,373,c),
(3979,375,ls),
(3956,379,o),
(4024,366,o),
(4045,358,cs),
(4042,359,o),
(4038,360,o),
(4035,362,c),
(4050,355,o),
(4064,347,o),
(4077,337,cs),
(4076,338,o),
(4069,344,o),
(4074,340,cs),
(4100,316,o),
(4100,317,o),
(4117,284,cs),
(4115,287,o),
(4114,290,o),
(4113,293,cs),
(4118,280,o),
(4122,267,o),
(4124,252,c),
(4123,256,o),
(4123,260,o),
(4122,263,c),
(4123,257,o),
(4124,250,o),
(4124,244,cs),
(4124,237,o),
(4123,231,o),
(4122,224,c),
(4123,227,o),
(4123,231,o),
(4124,234,c),
(4122,221,o),
(4118,208,o),
(4113,195,c),
(4115,198,o),
(4116,202,o),
(4117,205,cs),
(4112,192,o),
(4105,180,o),
(4096,169,cs),
(4101,175,o),
(4101,176,o),
(4101,175,c),
(4093,164,o),
(4081,153,o),
(4070,144,cs),
(4075,148,o),
(4076,149,o),
(4075,149,c),
(4060,136,o),
(4038,124,o),
(4018,115,c),
(4021,117,o),
(4024,118,o),
(4027,119,cs),
(3997,107,o),
(3966,100,o),
(3934,95,c),
(3937,96,o),
(3941,96,o),
(3944,97,c),
(3853,85,o),
(3760,95,o),
(3669,77,c),
(3648,68,o),
(3639,53,o),
(3639,38,cs),
(3639,18,o),
(3658,-2,o),
(3688,-2,cs),
(3696,-2,o),
(3706,-1,o),
(3716,3,c),
(3706,2,ls),
(3583,-10,o),
(3960,-5,o),
(4075,53,c),
(4159,89,o),
(4203,168,o),
(4203,245,cs),
(4203,319,o),
(4164,392,o),
(4083,429,cs),
(4038,449,o),
(3992,457,o),
(3945,457,cs),
(3889,457,o),
(3833,446,o),
(3778,435,c),
(3785,409,o),
(3792,383,o),
(3800,357,c),
(3826,368,o),
(3854,373,o),
(3882,377,c),
(3878,377,o),
(3875,376,o),
(3871,376,cs),
(3949,385,o),
(4036,388,o),
(4098,443,cs),
(4143,482,o),
(4164,529,o),
(4164,575,cs),
(4164,647,o),
(4111,715,o),
(4023,741,c),
(3995,755,o),
(3878,776,o),
(3784,776,cs),
(3714,776,o),
(3657,764,o),
(3660,728,cs),
(3660,707,o),
(3679,687,o),
(3701,688,cs)
);
}
);
width = 4203;
},
{
associatedMasterId = m003;
background = {
shapes = (
{
closed = 1;
nodes = (
(108,493,o),
(115,258,o),
(85,25,c),
(85,-1,o),
(105,-14,o),
(126,-14,cs),
(146,-14,o),
(166,-1,o),
(166,25,c),
(196,258,o),
(189,493,o),
(216,726,c),
(216,752,o),
(196,765,o),
(175,765,cs),
(155,765,o),
(135,752,o),
(135,726,c)
);
},
{
closed = 1;
nodes = (
(197,687,o),
(213,690,o),
(229,692,c),
(218,690,l),
(248,694,o),
(279,697,o),
(310,697,cs),
(330,697,o),
(350,696,o),
(370,693,c),
(359,694,ls),
(385,691,o),
(410,685,o),
(434,675,c),
(430,676,o),
(427,678,o),
(424,679,cs),
(436,674,o),
(447,668,o),
(458,660,cs),
(461,658,o),
(468,652,o),
(458,661,cs),
(478,643,o),
(477,644,o),
(488,622,c),
(487,625,o),
(486,628,o),
(484,632,cs),
(488,623,o),
(490,615,o),
(491,606,c),
(491,609,o),
(490,613,o),
(490,617,c),
(491,606,o),
(491,596,o),
(490,586,c),
(490,590,o),
(491,593,o),
(491,597,c),
(490,586,o),
(487,575,o),
(482,565,c),
(484,568,o),
(485,572,o),
(487,575,c),
(462,523,o),
(435,505,o),
(375,476,cs),
(384,481,l),
(350,466,o),
(314,457,o),
(277,452,c),
(281,453,o),
(285,453,o),
(288,454,c),
(264,451,o),
(240,449,o),
(215,449,cs),
(193,449,o),
(170,451,o),
(148,453,cs),
(127,454,o),
(107,434,o),
(108,413,cs),
(108,377,o),
(152,366,o),
(205,366,cs),
(265,366,o),
(336,381,o),
(362,387,cs),
(489,416,o),
(570,515,o),
(570,606,cs),
(570,678,o),
(519,746,o),
(398,770,cs),
(379,773,o),
(334,778,o),
(285,778,cs),
(210,778,o),
(129,767,o),
(129,724,cs),
(129,720,o),
(130,716,o),
(131,712,cs),
(137,693,o),
(152,683,o),
(171,683,cs),
(174,683,o),
(178,683,o),
(181,684,cs)
);
},
{
closed = 1;
nodes = (
(266,374,o),
(304,373,o),
(341,368,cs),
(331,369,ls),
(369,364,o),
(407,355,o),
(443,340,cs),
(439,342,o),
(436,343,o),
(433,344,cs),
(451,337,o),
(469,327,o),
(485,316,c),
(488,313,o),
(481,318,o),
(481,318,c),
(506,297,o),
(508,296,o),
(521,269,c),
(520,272,o),
(518,275,o),
(517,278,cs),
(521,268,o),
(524,258,o),
(525,248,c),
(524,259,l),
(525,248,o),
(525,238,o),
(523,228,c),
(524,231,o),
(524,235,o),
(525,238,c),
(523,227,o),
(520,215,o),
(516,204,c),
(517,208,o),
(518,211,o),
(520,214,c),
(514,201,o),
(507,188,o),
(498,177,cs),
(500,179,o),
(501,181,o),
(502,182,cs),
(491,168,o),
(477,155,o),
(463,143,c),
(473,151,o),
(467,146,o),
(464,145,c),
(444,129,o),
(421,117,o),
(397,107,cs),
(400,108,o),
(403,110,o),
(407,111,c),
(370,96,o),
(331,86,o),
(291,81,c),
(295,81,o),
(299,82,o),
(302,82,cs),
(276,79,o),
(251,77,o),
(225,77,cs),
(195,77,o),
(165,79,o),
(136,83,c),
(139,83,o),
(143,83,o),
(147,82,cs),
(140,84,o),
(134,85,o),
(128,85,cs),
(101,85,o),
(85,62,o),
(85,41,cs),
(85,21,o),
(97,3,o),
(125,0,c),
(147,1,o),
(168,19,o),
(165,43,c),
(165,39,o),
(165,35,o),
(164,32,c),
(164,34,l),
(148,24,o),
(131,15,o),
(115,5,c),
(151,0,o),
(189,-3,o),
(227,-3,cs),
(341,-3,o),
(456,24,o),
(540,103,cs),
(585,145,o),
(605,193,o),
(605,240,cs),
(605,318,o),
(548,392,o),
(455,422,cs),
(428,432,o),
(335,456,o),
(266,456,cs),
(220,456,o),
(185,446,o),
(187,414,cs),
(188,392,o),
(205,373,o),
(228,374,cs)
);
}
);
};
layerId = "5D141519-4E1A-45FA-9A57-1E2B390BBA07";
name = Original;
shapes = (
{
closed = 1;
nodes = (
(108,493,o),
(115,258,o),
(85,25,c),
(85,-1,o),
(105,-14,o),
(126,-14,cs),
(146,-14,o),
(166,-1,o),
(166,25,c),
(196,258,o),
(189,493,o),
(216,726,c),
(216,752,o),
(196,765,o),
(175,765,cs),
(155,765,o),
(135,752,o),
(135,726,c)
);
},
{
closed = 1;
nodes = (
(197,687,o),
(213,690,o),
(229,692,c),
(218,690,l),
(248,694,o),
(279,697,o),
(310,697,cs),
(330,697,o),
(350,696,o),
(370,693,c),
(359,694,ls),
(385,691,o),
(410,685,o),
(434,675,c),
(430,676,o),
(427,678,o),
(424,679,cs),
(436,674,o),
(447,668,o),
(458,660,cs),
(461,658,o),
(468,652,o),
(458,661,cs),
(478,643,o),
(477,644,o),
(488,622,c),
(487,625,o),
(486,628,o),
(484,632,cs),
(488,623,o),
(490,615,o),
(491,606,c),
(491,609,o),
(490,613,o),
(490,617,c),
(491,606,o),
(491,596,o),
(490,586,c),
(490,590,o),
(491,593,o),
(491,597,c),
(490,586,o),
(487,575,o),
(482,565,c),
(484,568,o),
(485,572,o),
(487,575,c),
(462,523,o),
(435,505,o),
(375,476,cs),
(384,481,l),
(350,466,o),
(314,457,o),
(277,452,c),
(281,453,o),
(285,453,o),
(288,454,c),
(264,451,o),
(240,449,o),
(215,449,cs),
(193,449,o),
(170,451,o),
(148,453,cs),
(127,454,o),
(107,434,o),
(108,413,cs),
(108,377,o),
(152,366,o),
(205,366,cs),
(265,366,o),
(336,381,o),
(362,387,cs),
(489,416,o),
(570,515,o),
(570,606,cs),
(570,678,o),
(519,746,o),
(398,770,cs),
(379,773,o),
(334,778,o),
(285,778,cs),
(210,778,o),
(129,767,o),
(129,724,cs),
(129,720,o),
(130,716,o),
(131,712,cs),
(137,693,o),
(152,683,o),
(171,683,cs),
(174,683,o),
(178,683,o),
(181,684,cs)
);
},
{
closed = 1;
nodes = (
(266,374,o),
(304,373,o),
(341,368,cs),
(331,369,ls),
(369,364,o),
(407,355,o),
(443,340,cs),
(439,342,o),
(436,343,o),
(433,344,cs),
(451,337,o),
(469,327,o),
(485,316,c),
(488,313,o),
(481,318,o),
(481,318,c),
(506,297,o),
(508,296,o),
(521,269,c),
(520,272,o),
(518,275,o),
(517,278,cs),
(521,268,o),
(524,258,o),
(525,248,c),
(524,259,l),
(525,248,o),
(525,238,o),
(523,228,c),
(524,231,o),
(524,235,o),
(525,238,c),
(523,227,o),
(520,215,o),
(516,204,c),
(517,208,o),
(518,211,o),
(520,214,c),
(514,201,o),
(507,188,o),
(498,177,cs),
(500,179,o),
(501,181,o),
(502,182,cs),
(491,168,o),
(477,155,o),
(463,143,c),
(473,151,o),
(467,146,o),
(464,145,c),
(444,129,o),
(421,117,o),
(397,107,cs),
(400,108,o),
(403,110,o),
(407,111,c),
(370,96,o),
(331,86,o),
(291,81,c),
(295,81,o),
(299,82,o),
(302,82,cs),
(276,79,o),
(251,77,o),
(225,77,cs),
(195,77,o),
(165,79,o),
(136,83,c),
(139,83,o),
(143,83,o),
(147,82,cs),
(140,84,o),
(134,85,o),
(128,85,cs),
(101,85,o),
(85,62,o),
(85,41,cs),
(85,21,o),
(97,3,o),
(125,0,c),
(147,1,o),
(168,19,o),
(165,43,c),
(165,39,o),
(165,35,o),
(164,32,c),
(164,34,l),
(148,24,o),
(131,15,o),
(115,5,c),
(151,0,o),
(189,-3,o),
(227,-3,cs),
(341,-3,o),
(456,24,o),
(540,103,cs),
(585,145,o),
(605,193,o),
(605,240,cs),
(605,318,o),
(548,392,o),
(455,422,cs),
(428,432,o),
(335,456,o),
(266,456,cs),
(220,456,o),
(185,446,o),
(187,414,cs),
(188,392,o),
(205,373,o),
(228,374,cs)
);
}
);
width = 660;
},
{
associatedMasterId = m003;
background = {
shapes = (
{
closed = 1;
nodes = (
(110,493,o),
(116,246,o),
(87,25,cs),
(84,-1,o),
(107,-14,o),
(128,-14,cs),
(148,-14,o),
(165,-1,o),
(168,25,cs),
(198,258,o),
(191,493,o),
(218,726,c),
(218,752,o),
(198,765,o),
(177,765,cs),
(157,765,o),
(137,752,o),
(137,726,c)
);
},
{
closed = 1;
nodes = (
(199,687,o),
(270,697,o),
(312,697,cs),
(361,697,o),
(420,689,o),
(460,660,cs),
(475,650,o),
(492,630,o),
(492,601,cs),
(492,519,o),
(390,471,o),
(295,455,c),
(285,456,o),
(277,456,o),
(268,456,cs),
(248,456,o),
(229,454,o),
(216,449,c),
(192,448,o),
(172,451,o),
(150,453,cs),
(129,454,o),
(123,434,o),
(124,413,cs),
(124,377,o),
(154,366,o),
(207,366,cs),
(233,366,o),
(261,369,o),
(287,373,c),
(338,370,o),
(390,362,o),
(435,344,cs),
(492,321,o),
(527,285,o),
(527,242,cs),
(527,181,o),
(469,136,o),
(403,109,cs),
(347,85,o),
(251,67,o),
(138,84,cs),
(103,89,o),
(87,62,o),
(87,41,cs),
(87,21,o),
(99,-1,o),
(127,0,cs),
(149,1,o),
(188,-3,o),
(229,-3,cs),
(343,-3,o),
(458,24,o),
(542,103,cs),
(587,145,o),
(607,193,o),
(607,240,cs),
(607,318,o),
(546,393,o),
(453,423,c),
(530,470,o),
(572,539,o),
(572,606,cs),
(572,745,o),
(418,778,o),
(304,778,cs),
(212,778,o),
(131,767,o),
(131,724,cs),
(131,705,o),
(142,678,o),
(173,683,cs)
);
}
);
};
layerId = "B7105515-3B4A-4C3A-9E05-EF2ECFBB32DF";
name = "6 Jan 23_Laura";
shapes = (
{
closed = 1;
nodes = (
(102,495,o),
(125,249,o),
(112,26,cs),
(110,0,o),
(134,-11,o),
(155,-10,cs),
(175,-8,o),
(191,6,o),
(192,32,cs),
(206,266,o),
(183,500,o),
(193,735,c),
(192,761,o),
(171,772,o),
(150,771,cs),
(130,769,o),
(111,755,o),
(113,729,c)
);
},
{
closed = 1;
nodes = (
(199,690,o),
(270,700,o),
(312,700,cs),
(387,700,o),
(492,677,o),
(492,601,cs),
(492,488,o),
(315,447,o),
(216,447,cs),
(192,447,o),
(172,449,o),
(150,451,cs),
(129,452,o),
(123,434,o),
(124,413,cs),
(124,377,o),
(154,367,o),
(207,367,cs),
(233,367,o),
(261,370,o),
(300,376,c),
(384,375,o),
(526,337,o),
(526,242,cs),
(526,132,o),
(354,77,o),
(227,77,cs),
(199,77,o),
(169,79,o),
(138,84,c),
(127,5,l),
(149,3,o),
(188,-1,o),
(229,-1,cs),
(406,-1,o),
(607,84,o),
(607,240,cs),
(607,318,o),
(546,393,o),
(435,423,c),
(530,464,o),
(572,539,o),
(572,606,cs),
(572,745,o),
(418,778,o),
(304,778,cs),
(236,778,o),
(200,772,o),
(173,764,c),
(173,686,l)
);
}
);
width = 662;
}
);
unicode = 66;
},
{
color = 6;
glyphname = B.alt1;
lastChange = "2023-01-19 20:04:04 +0000";
layers = (
{
anchors = (
{
name = bottom;
pos = (311,0);
},
{
name = center;
pos = (324,382);
},
{
name = top;
pos = (337,764);
}
);
layerId = m01;
shapes = (
{
closed = 1;
nodes = (
(94,0,o),
(108,-5,o),
(137,-7,cs),
(170,-9,o),
(238,-11,o),
(292,-11,cs),
(448,-11,o),
(584,65,o),
(584,211,cs),
(584,290,o),
(548,364,o),
(443,398,c),
(546,428,o),
(589,517,o),
(589,592,cs),
(589,687,o),
(521,776,o),
(374,777,cs),
(310,780,o),
(243,775,o),
(180,769,cs),
(152,766,o),
(123,757,o),
(123,724,cs),
(117,524,o),
(92,326,o),
(92,125,cs),
(92,92,o),
(92,59,o),
(94,26,cs)
);
},
{
closed = 1;
nodes = (
(230,67,o),
(202,68,o),
(173,69,c),
(173,203,o),
(177,280,o),
(182,357,c),
(319,369,o),
(502,344,o),
(502,216,cs),
(502,93,o),
(378,67,o),
(279,67,cs)
);
},
{
closed = 1;
nodes = (
(193,523,o),
(199,607,o),
(203,690,c),
(250,695,o),
(294,699,o),
(351,699,cs),
(464,699,o),
(506,660,o),
(506,593,cs),
(506,445,o),
(322,438,o),
(187,441,c)
);
}
);
width = 640;
},
{
anchors = (
{
name = bottom;
pos = (311,0);
},
{
name = center;
pos = (324,382);
},
{
name = top;
pos = (337,764);
}
);
layerId = m002;
shapes = (
{
closed = 1;
nodes = (
(94,0,o),
(108,-5,o),
(137,-7,cs),
(170,-9,o),
(238,-11,o),
(292,-11,cs),
(448,-11,o),
(584,65,o),
(584,211,cs),
(584,290,o),
(548,364,o),
(443,398,c),
(546,428,o),
(589,517,o),
(589,592,cs),
(589,687,o),
(521,776,o),
(374,777,cs),
(310,780,o),
(243,775,o),
(180,769,cs),
(152,766,o),
(123,757,o),
(123,724,cs),
(117,524,o),
(92,326,o),
(92,125,cs),
(92,92,o),
(92,59,o),
(94,26,cs)
);
},
{
closed = 1;
nodes = (
(230,67,o),
(202,68,o),
(173,69,c),
(173,203,o),
(177,280,o),
(182,357,c),
(319,369,o),
(502,344,o),
(502,216,cs),
(502,93,o),
(378,67,o),
(279,67,cs)
);
},
{
closed = 1;
nodes = (
(193,523,o),
(199,607,o),
(203,690,c),
(250,695,o),
(294,699,o),
(351,699,cs),
(464,699,o),
(506,660,o),
(506,593,cs),
(506,445,o),
(322,438,o),
(187,441,c)
);
}
);
width = 640;
},
{
anchors = (
{
name = bottom;
pos = (311,0);
},
{
name = center;
pos = (324,382);
},
{
name = top;
pos = (337,764);
}
);
layerId = m003;
shapes = (
{
closed = 1;
nodes = (
(94,0,o),
(108,-5,o),
(137,-7,cs),
(170,-9,o),
(238,-11,o),
(292,-11,cs),
(448,-11,o),
(584,65,o),
(584,211,cs),
(584,290,o),
(548,364,o),
(443,398,c),
(546,428,o),
(589,517,o),
(589,592,cs),
(589,687,o),
(521,776,o),
(374,777,cs),
(310,780,o),
(243,775,o),
(180,769,cs),
(152,766,o),
(123,757,o),
(123,724,cs),
(117,524,o),
(92,326,o),
(92,125,cs),
(92,92,o),
(92,59,o),
(94,26,cs)
);
},
{
closed = 1;
nodes = (
(230,67,o),
(202,68,o),
(173,69,c),
(173,203,o),
(177,280,o),
(182,357,c),
(319,369,o),
(502,344,o),
(502,216,cs),
(502,93,o),
(378,67,o),
(279,67,cs)
);
},
{
closed = 1;
nodes = (
(193,523,o),
(199,607,o),
(203,690,c),
(250,695,o),
(294,699,o),
(351,699,cs),
(464,699,o),
(506,660,o),
(506,593,cs),
(506,445,o),
(322,438,o),
(187,441,c)
);
}
);
width = 640;
}
);
metricLeft = B;
metricRight = B;
},
{
color = 6;
glyphname = B.alt2;
lastChange = "2023-01-19 20:04:04 +0000";
layers = (
{
anchors = (
{
name = bottom;
pos = (349,0);
},
{
name = center;
pos = (362,382);
},
{
name = top;
pos = (375,764);
}
);
layerId = m01;
shapes = (
{
closed = 1;
nodes = (
(160,82,l),
(149,83,o),
(137,84,o),
(126,85,cs),
(100,86,o),
(87,67,o),
(87,47,cs),
(87,27,o),
(98,9,o),
(126,6,cs),
(165,2,o),
(289,-8,o),
(328,-8,cs),
(538,-8,o),
(660,101,o),
(660,215,cs),
(660,278,o),
(619,347,o),
(535,391,c),
(604,424,o),
(644,475,o),
(644,547,cs),
(644,680,o),
(519,773,o),
(339,773,cs),
(299,773,o),
(273,770,o),
(256,761,c),
(248,769,o),
(237,773,o),
(226,773,cs),
(206,773,o),
(186,760,o),
(185,734,cs)
);
},
{
closed = 1;
nodes = (
(264,692,l),
(268,691,o),
(272,691,o),
(276,691,cs),
(294,692,o),
(307,693,o),
(325,693,cs),
(480,693,o),
(563,642,o),
(563,545,cs),
(563,497,o),
(523,451,o),
(439,431,c),
(414,438,o),
(386,440,o),
(367,440,cs),
(332,440,o),
(271,430,o),
(271,395,cs),
(271,358,o),
(304,352,o),
(376,352,cs),
(393,352,o),
(410,353,o),
(427,358,c),
(515,337,o),
(578,276,o),
(578,213,cs),
(578,133,o),
(466,70,o),
(334,70,cs),
(303,70,o),
(272,72,o),
(241,75,c)
);
}
);
width = 716;
},
{
anchors = (
{
name = bottom;
pos = (349,0);
},
{
name = center;
pos = (362,382);
},
{
name = top;
pos = (375,764);
}
);
layerId = m002;
shapes = (
{
closed = 1;
nodes = (
(160,82,l),
(149,83,o),
(137,84,o),
(126,85,cs),
(100,86,o),
(87,67,o),
(87,47,cs),
(87,27,o),
(98,9,o),
(126,6,cs),
(165,2,o),
(289,-8,o),
(328,-8,cs),
(538,-8,o),
(660,101,o),
(660,215,cs),
(660,278,o),
(619,347,o),
(535,391,c),
(604,424,o),
(644,475,o),
(644,547,cs),
(644,680,o),
(519,773,o),
(339,773,cs),
(299,773,o),
(273,770,o),
(256,761,c),
(248,769,o),
(237,773,o),
(226,773,cs),
(206,773,o),
(186,760,o),
(185,734,cs)
);
},
{
closed = 1;
nodes = (
(264,692,l),
(268,691,o),
(272,691,o),
(276,691,cs),
(294,692,o),
(307,693,o),
(325,693,cs),
(480,693,o),
(563,642,o),
(563,545,cs),
(563,497,o),
(523,451,o),
(439,431,c),
(414,438,o),
(386,440,o),
(367,440,cs),
(332,440,o),
(271,430,o),
(271,395,cs),
(271,358,o),
(304,352,o),
(376,352,cs),
(393,352,o),
(410,353,o),
(427,358,c),
(515,337,o),
(578,276,o),
(578,213,cs),
(578,133,o),
(466,70,o),
(334,70,cs),
(303,70,o),
(272,72,o),
(241,75,c)
);
}
);
width = 716;
},
{
anchors = (
{
name = bottom;
pos = (349,0);
},
{
name = center;
pos = (362,382);
},
{
name = top;
pos = (375,764);
}
);
layerId = m003;
shapes = (
{
closed = 1;
nodes = (
(160,82,l),
(149,83,o),
(137,84,o),
(126,85,cs),
(100,86,o),
(87,67,o),
(87,47,cs),
(87,27,o),
(98,9,o),
(126,6,cs),
(165,2,o),
(289,-8,o),
(328,-8,cs),
(538,-8,o),
(660,101,o),
(660,215,cs),
(660,278,o),
(619,347,o),
(535,391,c),
(604,424,o),
(644,475,o),
(644,547,cs),
(644,680,o),
(519,773,o),
(339,773,cs),
(299,773,o),
(273,770,o),
(256,761,c),
(248,769,o),
(237,773,o),
(226,773,cs),
(206,773,o),
(186,760,o),
(185,734,cs)
);
},
{
closed = 1;
nodes = (
(264,692,l),
(268,691,o),
(272,691,o),
(276,691,cs),
(294,692,o),
(307,693,o),
(325,693,cs),
(480,693,o),
(563,642,o),
(563,545,cs),
(563,497,o),
(523,451,o),
(439,431,c),
(414,438,o),
(386,440,o),
(367,440,cs),
(332,440,o),
(271,430,o),
(271,395,cs),
(271,358,o),
(304,352,o),
(376,352,cs),
(393,352,o),
(410,353,o),
(427,358,c),
(515,337,o),
(578,276,o),
(578,213,cs),
(578,133,o),
(466,70,o),
(334,70,cs),
(303,70,o),
(272,72,o),
(241,75,c)
);
}
);
width = 716;
}
);
metricLeft = B;
metricRight = B;
},
{
color = 6;
glyphname = B.alt3;
lastChange = "2023-01-19 20:04:04 +0000";
layers = (
{
anchors = (
{
name = bottom;
pos = (330,0);
},
{
name = center;
pos = (343,382);
},
{
name = top;
pos = (356,764);
}
);
layerId = m01;
shapes = (
{
closed = 1;
nodes = (
(246,712,o),
(302,719,o),
(346,719,cs),
(459,719,o),
(522,671,o),
(522,613,cs),
(522,548,o),
(452,482,o),
(360,456,c),
(337,462,o),
(306,464,o),
(281,464,cs),
(242,464,o),
(203,462,o),
(158,454,cs),
(122,448,o),
(100,435,o),
(100,410,cs),
(100,386,o),
(119,375,o),
(140,371,cs),
(184,364,o),
(211,362,o),
(244,362,cs),
(288,362,o),
(329,367,o),
(366,377,c),
(475,363,o),
(541,308,o),
(541,231,cs),
(541,139,o),
(436,54,o),
(296,54,cs),
(234,54,o),
(184,60,o),
(134,66,cs),
(119,67,o),
(94,55,o),
(94,28,cs),
(94,7,o),
(110,-12,o),
(134,-15,cs),
(188,-22,o),
(243,-25,o),
(297,-24,cs),
(508,-17,o),
(623,108,o),
(623,231,cs),
(623,308,o),
(565,397,o),
(466,427,c),
(560,472,o),
(603,549,o),
(603,616,cs),
(603,704,o),
(528,794,o),
(358,797,cs),
(297,798,o),
(236,788,o),
(176,774,cs),
(156,768,o),
(147,753,o),
(147,737,cs),
(147,708,o),
(170,691,o),
(198,699,cs)
);
},
{
closed = 1;
nodes = (
(122,560,o),
(111,388,o),
(111,210,cs),
(111,155,o),
(111,101,o),
(113,47,cs),
(113,21,o),
(134,8,o),
(154,8,cs),
(174,8,o),
(195,21,o),
(194,47,cs),
(192,102,o),
(192,156,o),
(192,211,cs),
(192,430,o),
(204,608,o),
(217,728,cs),
(221,760,o),
(207,783,o),
(178,783,cs),
(157,783,o),
(139,767,o),
(137,743,cs)
);
}
);
width = 678;
},
{
anchors = (
{
name = bottom;
pos = (330,0);
},
{
name = center;
pos = (343,382);
},
{
name = top;
pos = (356,764);
}
);
layerId = m002;
shapes = (
{
closed = 1;
nodes = (
(246,712,o),
(302,719,o),
(346,719,cs),
(459,719,o),
(522,671,o),
(522,613,cs),
(522,548,o),
(452,482,o),
(360,456,c),
(337,462,o),
(306,464,o),
(281,464,cs),
(242,464,o),
(203,462,o),
(158,454,cs),
(122,448,o),
(100,435,o),
(100,410,cs),
(100,386,o),
(119,375,o),
(140,371,cs),
(184,364,o),
(211,362,o),
(244,362,cs),
(288,362,o),
(329,367,o),
(366,377,c),
(475,363,o),
(541,308,o),
(541,231,cs),
(541,139,o),
(436,54,o),
(296,54,cs),
(234,54,o),
(184,60,o),
(134,66,cs),
(119,67,o),
(94,55,o),
(94,28,cs),
(94,7,o),
(110,-12,o),
(134,-15,cs),
(188,-22,o),
(243,-25,o),
(297,-24,cs),
(508,-17,o),
(623,108,o),
(623,231,cs),
(623,308,o),
(565,397,o),
(466,427,c),
(560,472,o),
(603,549,o),
(603,616,cs),
(603,704,o),
(528,794,o),
(358,797,cs),
(297,798,o),
(236,788,o),
(176,774,cs),
(156,768,o),
(147,753,o),
(147,737,cs),
(147,708,o),
(170,691,o),
(198,699,cs)
);
},
{
closed = 1;
nodes = (
(122,560,o),
(111,388,o),
(111,210,cs),
(111,155,o),
(111,101,o),
(113,47,cs),
(113,21,o),
(134,8,o),
(154,8,cs),
(174,8,o),
(195,21,o),
(194,47,cs),
(192,102,o),
(192,156,o),
(192,211,cs),
(192,430,o),
(204,608,o),
(217,728,cs),
(221,760,o),
(207,783,o),
(178,783,cs),
(157,783,o),
(139,767,o),
(137,743,cs)
);
}
);
width = 678;
},
{
anchors = (
{
name = bottom;
pos = (330,0);
},
{
name = center;
pos = (343,382);
},
{
name = top;
pos = (356,764);
}
);
layerId = m003;
shapes = (
{
closed = 1;
nodes = (
(246,712,o),
(302,719,o),
(346,719,cs),
(459,719,o),
(522,671,o),
(522,613,cs),
(522,548,o),
(452,482,o),
(360,456,c),
(337,462,o),
(306,464,o),
(281,464,cs),
(242,464,o),
(203,462,o),
(158,454,cs),
(122,448,o),
(100,435,o),
(100,410,cs),
(100,386,o),
(119,375,o),
(140,371,cs),
(184,364,o),
(211,362,o),
(244,362,cs),
(288,362,o),
(329,367,o),
(366,377,c),
(475,363,o),
(541,308,o),
(541,231,cs),
(541,139,o),
(436,54,o),
(296,54,cs),
(234,54,o),
(184,60,o),
(134,66,cs),
(119,67,o),
(94,55,o),
(94,28,cs),
(94,7,o),
(110,-12,o),
(134,-15,cs),
(188,-22,o),
(243,-25,o),
(297,-24,cs),
(508,-17,o),
(623,108,o),
(623,231,cs),
(623,308,o),
(565,397,o),
(466,427,c),
(560,472,o),
(603,549,o),
(603,616,cs),
(603,704,o),
(528,794,o),
(358,797,cs),
(297,798,o),
(236,788,o),
(176,774,cs),
(156,768,o),
(147,753,o),
(147,737,cs),
(147,708,o),
(170,691,o),
(198,699,cs)
);
},
{
closed = 1;
nodes = (
(122,560,o),
(111,388,o),
(111,210,cs),
(111,155,o),
(111,101,o),
(113,47,cs),
(113,21,o),
(134,8,o),
(154,8,cs),
(174,8,o),
(195,21,o),
(194,47,cs),
(192,102,o),
(192,156,o),
(192,211,cs),
(192,430,o),
(204,608,o),
(217,728,cs),
(221,760,o),
(207,783,o),
(178,783,cs),
(157,783,o),
(139,767,o),
(137,743,cs)
);
}
);
width = 678;
}
);
metricLeft = B;
metricRight = B;
},
{
color = 6;
glyphname = B.alt4;
lastChange = "2023-01-19 20:04:04 +0000";
layers = (
{
anchors = (
{
name = bottom;
pos = (323,0);
},
{
name = center;
pos = (336,382);
},
{
name = top;
pos = (349,764);
}
);
layerId = m01;
shapes = (
{
closed = 1;
nodes = (
(228,693,o),
(303,707,o),
(363,707,cs),
(471,707,o),
(540,669,o),
(540,610,cs),
(540,514,o),
(443,443,o),
(185,414,cs),
(153,410,o),
(141,389,o),
(141,371,cs),
(141,339,o),
(168,328,o),
(197,333,cs),
(261,346,o),
(321,357,o),
(365,357,cs),
(474,357,o),
(528,306,o),
(528,238,cs),
(528,110,o),
(401,50,o),
(236,50,cs),
(202,50,o),
(167,52,o),
(133,55,cs),
(112,56,o),
(96,40,o),
(96,18,cs),
(96,-2,o),
(107,-14,o),
(136,-21,cs),
(160,-26,o),
(192,-28,o),
(230,-28,cs),
(400,-28,o),
(609,33,o),
(609,233,cs),
(609,330,o),
(553,384,o),
(474,411,c),
(571,452,o),
(621,534,o),
(621,610,cs),
(621,725,o),
(496,790,o),
(366,785,cs),
(297,785,o),
(230,771,o),
(162,758,cs),
(138,753,o),
(111,739,o),
(111,717,cs),
(111,691,o),
(136,671,o),
(162,677,cs)
);
},
{
closed = 1;
nodes = (
(133,490,o),
(127,270,o),
(127,41,cs),
(127,20,o),
(146,0,o),
(168,1,cs),
(190,2,o),
(208,19,o),
(208,41,cs),
(208,270,o),
(214,490,o),
(224,717,cs),
(225,745,o),
(205,758,o),
(184,758,cs),
(164,758,o),
(144,745,o),
(143,717,cs)
);
}
);
width = 664;
},
{
anchors = (
{
name = bottom;
pos = (323,0);
},
{
name = center;
pos = (336,382);
},
{
name = top;
pos = (349,764);
}
);
layerId = m002;
shapes = (
{
closed = 1;
nodes = (
(228,693,o),
(303,707,o),
(363,707,cs),
(471,707,o),
(540,669,o),
(540,610,cs),
(540,514,o),
(443,443,o),
(185,414,cs),
(153,410,o),
(141,389,o),
(141,371,cs),
(141,339,o),
(168,328,o),
(197,333,cs),
(261,346,o),
(321,357,o),
(365,357,cs),
(474,357,o),
(528,306,o),
(528,238,cs),
(528,110,o),
(401,50,o),
(236,50,cs),
(202,50,o),
(167,52,o),
(133,55,cs),
(112,56,o),
(96,40,o),
(96,18,cs),
(96,-2,o),
(107,-14,o),
(136,-21,cs),
(160,-26,o),
(192,-28,o),
(230,-28,cs),
(400,-28,o),
(609,33,o),
(609,233,cs),
(609,330,o),
(553,384,o),
(474,411,c),
(571,452,o),
(621,534,o),
(621,610,cs),
(621,725,o),
(496,790,o),
(366,785,cs),
(297,785,o),
(230,771,o),
(162,758,cs),
(138,753,o),
(111,739,o),
(111,717,cs),
(111,691,o),
(136,671,o),
(162,677,cs)
);
},
{
closed = 1;
nodes = (
(133,490,o),
(127,270,o),
(127,41,cs),
(127,20,o),
(146,0,o),
(168,1,cs),
(190,2,o),
(208,19,o),
(208,41,cs),
(208,270,o),
(214,490,o),
(224,717,cs),
(225,745,o),
(205,758,o),
(184,758,cs),
(164,758,o),
(144,745,o),
(143,717,cs)
);
}
);
width = 664;
},
{
anchors = (
{
name = bottom;
pos = (323,0);
},
{
name = center;
pos = (336,382);
},
{
name = top;
pos = (349,764);
}
);
layerId = m003;
shapes = (
{
closed = 1;
nodes = (
(228,693,o),
(303,707,o),
(363,707,cs),
(471,707,o),
(540,669,o),
(540,610,cs),
(540,514,o),
(443,443,o),
(185,414,cs),
(153,410,o),
(141,389,o),
(141,371,cs),
(141,339,o),
(168,328,o),
(197,333,cs),
(261,346,o),
(321,357,o),
(365,357,cs),
(474,357,o),
(528,306,o),
(528,238,cs),
(528,110,o),
(401,50,o),
(236,50,cs),
(202,50,o),
(167,52,o),
(133,55,cs),
(112,56,o),
(96,40,o),
(96,18,cs),
(96,-2,o),
(107,-14,o),
(136,-21,cs),
(160,-26,o),
(192,-28,o),
(230,-28,cs),
(400,-28,o),
(609,33,o),
(609,233,cs),
(609,330,o),
(553,384,o),
(474,411,c),
(571,452,o),
(621,534,o),
(621,610,cs),
(621,725,o),
(496,790,o),
(366,785,cs),
(297,785,o),
(230,771,o),
(162,758,cs),
(138,753,o),
(111,739,o),
(111,717,cs),
(111,691,o),
(136,671,o),
(162,677,cs)
);
},
{
closed = 1;
nodes = (
(133,490,o),
(127,270,o),
(127,41,cs),
(127,20,o),
(146,0,o),
(168,1,cs),
(190,2,o),
(208,19,o),
(208,41,cs),
(208,270,o),
(214,490,o),
(224,717,cs),
(225,745,o),
(205,758,o),
(184,758,cs),
(164,758,o),
(144,745,o),
(143,717,cs)
);
}
);
width = 664;
}
);
metricLeft = B;
metricRight = B;
},
{
color = 6;
glyphname = B.alt5;
lastChange = "2023-01-19 20:04:04 +0000";
layers = (
{
anchors = (
{
name = bottom;
pos = (346,0);
},
{
name = center;
pos = (359,382);
},
{
name = top;
pos = (372,764);
}
);
layerId = m01;
shapes = (
{
closed = 1;
nodes = (
(184,692,o),
(216,694,o),
(249,694,cs),
(410,694,o),
(534,643,o),
(534,576,cs),
(534,509,o),
(484,466,o),
(393,453,c),
(310,454,o),
(275,450,o),
(232,433,cs),
(213,426,o),
(200,409,o),
(200,392,cs),
(200,367,o),
(222,353,o),
(251,359,cs),
(302,370,o),
(350,376,o),
(395,376,cs),
(500,376,o),
(572,320,o),
(572,240,cs),
(572,126,o),
(443,75,o),
(146,72,cs),
(111,72,o),
(90,57,o),
(90,32,cs),
(90,9,o),
(112,-7,o),
(144,-6,cs),
(508,3,o),
(654,74,o),
(654,241,cs),
(654,324,o),
(605,392,o),
(521,426,c),
(580,458,o),
(615,514,o),
(615,576,cs),
(615,696,o),
(468,772,o),
(235,772,cs),
(152,772,o),
(108,755,o),
(111,724,cs),
(111,703,o),
(130,687,o),
(152,688,cs)
);
},
{
closed = 1;
nodes = (
(151,482,o),
(147,261,o),
(129,41,cs),
(128,15,o),
(149,2,o),
(169,2,cs),
(190,2,o),
(208,15,o),
(210,41,cs),
(223,262,o),
(232,482,o),
(245,703,cs),
(247,729,o),
(225,742,o),
(205,742,cs),
(184,742,o),
(166,729,o),
(164,703,cs)
);
}
);
width = 709;
},
{
anchors = (
{
name = bottom;
pos = (346,0);
},
{
name = center;
pos = (359,382);
},
{
name = top;
pos = (372,764);
}
);
layerId = m002;
shapes = (
{
closed = 1;
nodes = (
(184,692,o),
(216,694,o),
(249,694,cs),
(410,694,o),
(534,643,o),
(534,576,cs),
(534,509,o),
(484,466,o),
(393,453,c),
(310,454,o),
(275,450,o),
(232,433,cs),
(213,426,o),
(200,409,o),
(200,392,cs),
(200,367,o),
(222,353,o),
(251,359,cs),
(302,370,o),
(350,376,o),
(395,376,cs),
(500,376,o),
(572,320,o),
(572,240,cs),
(572,126,o),
(443,75,o),
(146,72,cs),
(111,72,o),
(90,57,o),
(90,32,cs),
(90,9,o),
(112,-7,o),
(144,-6,cs),
(508,3,o),
(654,74,o),
(654,241,cs),
(654,324,o),
(605,392,o),
(521,426,c),
(580,458,o),
(615,514,o),
(615,576,cs),
(615,696,o),
(468,772,o),
(235,772,cs),
(152,772,o),
(108,755,o),
(111,724,cs),
(111,703,o),
(130,687,o),
(152,688,cs)
);
},
{
closed = 1;
nodes = (
(151,482,o),
(147,261,o),
(129,41,cs),
(128,15,o),
(149,2,o),
(169,2,cs),
(190,2,o),
(208,15,o),
(210,41,cs),
(223,262,o),
(232,482,o),
(245,703,cs),
(247,729,o),
(225,742,o),
(205,742,cs),
(184,742,o),
(166,729,o),
(164,703,cs)
);
}
);
width = 709;
},
{
anchors = (
{
name = bottom;
pos = (346,0);
},
{
name = center;
pos = (359,382);
},
{
name = top;
pos = (372,764);
}
);
layerId = m003;
shapes = (
{
closed = 1;
nodes = (
(184,692,o),
(216,694,o),
(249,694,cs),
(410,694,o),
(534,643,o),
(534,576,cs),
(534,509,o),
(484,466,o),
(393,453,c),
(310,454,o),
(275,450,o),
(232,433,cs),
(213,426,o),
(200,409,o),
(200,392,cs),
(200,367,o),
(222,353,o),
(251,359,cs),
(302,370,o),
(350,376,o),
(395,376,cs),
(500,376,o),
(572,320,o),
(572,240,cs),
(572,126,o),
(443,75,o),
(146,72,cs),
(111,72,o),
(90,57,o),
(90,32,cs),
(90,9,o),
(112,-7,o),
(144,-6,cs),
(508,3,o),
(654,74,o),
(654,241,cs),
(654,324,o),
(605,392,o),
(521,426,c),
(580,458,o),
(615,514,o),
(615,576,cs),
(615,696,o),
(468,772,o),
(235,772,cs),
(152,772,o),
(108,755,o),
(111,724,cs),
(111,703,o),
(130,687,o),
(152,688,cs)
);
},
{
closed = 1;
nodes = (
(151,482,o),
(147,261,o),
(129,41,cs),
(128,15,o),
(149,2,o),
(169,2,cs),
(190,2,o),
(208,15,o),
(210,41,cs),
(223,262,o),
(232,482,o),
(245,703,cs),
(247,729,o),
(225,742,o),
(205,742,cs),
(184,742,o),
(166,729,o),
(164,703,cs)
);
}
);
width = 709;
}
);
metricLeft = B;
metricRight = B;
},
{
color = 6;
glyphname = C;
lastChange = "2023-01-19 20:04:04 +0000";
layers = (
{
anchors = (
{
name = bottom;
pos = (379,0);
},
{
name = top;
pos = (405,764);
}
);
layerId = m01;
name = Regular;
shapes = (
{
closed = 1;
nodes = (
(603,743,o),
(508,780,o),
(410,780,cs),
(206,780,o),
(69,619,o),
(69,367,cs),
(69,120,o),
(185,-22,o),
(389,-22,cs),
(496,-22,o),
(600,22,o),
(670,96,cs),
(692,119,o),
(702,136,o),
(702,152,cs),
(702,174,o),
(687,190,o),
(667,190,cs),
(653,190,o),
(642,185,o),
(632,173,cs),
(573,102,o),
(477,56,o),
(388,56,cs),
(249,56,o),
(151,182,o),
(151,362,cs),
(151,573,o),
(250,702,o),
(402,702,cs),
(491,702,o),
(539,684,o),
(618,629,cs),
(629,622,o),
(638,612,o),
(652,612,cs),
(672,611,o),
(691,631,o),
(691,654,cs),
(691,663,o),
(687,673,o),
(679,679,cs)
);
}
);
width = 775;
},
{
anchors = (
{
name = bottom;
pos = (379,0);
},
{
name = top;
pos = (405,764);
}
);
layerId = m002;
name = Regular;
shapes = (
{
closed = 1;
nodes = (
(603,743,o),
(508,780,o),
(410,780,cs),
(206,780,o),
(69,619,o),
(69,367,cs),
(69,120,o),
(185,-22,o),
(389,-22,cs),
(496,-22,o),
(600,22,o),
(670,96,cs),
(692,119,o),
(702,136,o),
(702,152,cs),
(702,174,o),
(687,190,o),
(667,190,cs),
(653,190,o),
(642,185,o),
(632,173,cs),
(573,102,o),
(477,56,o),
(388,56,cs),
(249,56,o),
(151,182,o),
(151,362,cs),
(151,573,o),
(250,702,o),
(402,702,cs),
(491,702,o),
(539,684,o),
(618,629,cs),
(629,622,o),
(638,612,o),
(652,612,cs),
(672,611,o),
(691,631,o),
(691,654,cs),
(691,663,o),
(687,673,o),
(679,679,cs)
);
}
);
width = 775;
},
{
anchors = (
{
name = bottom;
pos = (379,0);
},
{
name = top;
pos = (405,764);
}
);
layerId = m003;
name = Regular;
shapes = (
{
closed = 1;
nodes = (
(603,743,o),
(508,780,o),
(410,780,cs),
(206,780,o),
(69,619,o),
(69,367,cs),
(69,120,o),
(185,-22,o),
(389,-22,cs),
(496,-22,o),
(600,22,o),
(670,96,cs),
(692,119,o),
(702,136,o),
(702,152,cs),
(702,174,o),
(687,190,o),
(667,190,cs),
(653,190,o),
(642,185,o),
(632,173,cs),
(573,102,o),
(477,56,o),
(388,56,cs),
(249,56,o),
(151,182,o),
(151,362,cs),
(151,573,o),
(250,702,o),
(402,702,cs),
(491,702,o),
(539,684,o),
(618,629,cs),
(629,622,o),
(638,612,o),
(652,612,cs),
(672,611,o),
(691,631,o),
(691,654,cs),
(691,663,o),
(687,673,o),
(679,679,cs)
);
}
);
width = 775;
}
);
unicode = 67;
},
{
color = 6;
glyphname = C.alt1;
lastChange = "2023-01-19 20:04:04 +0000";
layers = (
{
anchors = (
{
name = bottom;
pos = (374,0);
},
{
name = top;
pos = (400,764);
}
);
layerId = m01;
shapes = (
{
closed = 1;
nodes = (
(519,-14,o),
(587,17,o),
(641,63,cs),
(683,99,o),
(691,117,o),
(691,136,cs),
(691,158,o),
(675,174,o),
(655,174,cs),
(645,174,o),
(629,170,o),
(614,152,cs),
(565,93,o),
(496,64,o),
(427,64,cs),
(230,64,o),
(151,240,o),
(151,368,cs),
(151,535,o),
(282,694,o),
(437,694,cs),
(498,694,o),
(554,669,o),
(606,622,cs),
(614,614,o),
(624,610,o),
(633,610,cs),
(655,610,o),
(675,630,o),
(675,652,cs),
(675,661,o),
(672,670,o),
(663,679,cs),
(593,744,o),
(517,772,o),
(443,772,cs),
(248,772,o),
(69,580,o),
(69,369,cs),
(69,150,o),
(219,-14,o),
(431,-14,cs)
);
}
);
width = 765;
},
{
anchors = (
{
name = bottom;
pos = (374,0);
},
{
name = top;
pos = (400,764);
}
);
layerId = m002;
shapes = (
{
closed = 1;
nodes = (
(519,-14,o),
(587,17,o),
(641,63,cs),
(683,99,o),
(691,117,o),
(691,136,cs),
(691,158,o),
(675,174,o),
(655,174,cs),
(645,174,o),
(629,170,o),
(614,152,cs),
(565,93,o),
(496,64,o),
(427,64,cs),
(230,64,o),
(151,240,o),
(151,368,cs),
(151,535,o),
(282,694,o),
(437,694,cs),
(498,694,o),
(554,669,o),
(606,622,cs),
(614,614,o),
(624,610,o),
(633,610,cs),
(655,610,o),
(675,630,o),
(675,652,cs),
(675,661,o),
(672,670,o),
(663,679,cs),
(593,744,o),
(517,772,o),
(443,772,cs),
(248,772,o),
(69,580,o),
(69,369,cs),
(69,150,o),
(219,-14,o),
(431,-14,cs)
);
}
);
width = 765;
},
{
anchors = (
{
name = bottom;
pos = (374,0);
},
{
name = top;
pos = (400,764);
}
);
layerId = m003;
shapes = (
{
closed = 1;
nodes = (
(519,-14,o),
(587,17,o),
(641,63,cs),
(683,99,o),
(691,117,o),
(691,136,cs),
(691,158,o),
(675,174,o),
(655,174,cs),
(645,174,o),
(629,170,o),
(614,152,cs),
(565,93,o),
(496,64,o),
(427,64,cs),
(230,64,o),
(151,240,o),
(151,368,cs),
(151,535,o),
(282,694,o),
(437,694,cs),
(498,694,o),
(554,669,o),
(606,622,cs),
(614,614,o),
(624,610,o),
(633,610,cs),
(655,610,o),
(675,630,o),
(675,652,cs),
(675,661,o),
(672,670,o),
(663,679,cs),
(593,744,o),
(517,772,o),
(443,772,cs),
(248,772,o),
(69,580,o),
(69,369,cs),
(69,150,o),
(219,-14,o),
(431,-14,cs)
);
}
);
width = 765;
}
);
metricLeft = C;
metricRight = C;
},
{
color = 6;
glyphname = C.alt2;
lastChange = "2023-01-19 20:04:04 +0000";
layers = (
{
anchors = (
{
name = bottom;
pos = (378,0);
},
{
name = top;
pos = (404,764);
}
);
layerId = m01;
shapes = (
{
closed = 1;
nodes = (
(615,741,o),
(531,769,o),
(446,769,cs),
(276,769,o),
(68,664,o),
(68,345,cs),
(68,101,o),
(221,-20,o),
(415,-20,cs),
(507,-20,o),
(600,12,o),
(666,81,cs),
(688,104,o),
(700,121,o),
(700,139,cs),
(700,161,o),
(685,177,o),
(664,177,cs),
(654,177,o),
(642,176,o),
(633,165,cs),
(591,111,o),
(515,58,o),
(411,58,cs),
(262,58,o),
(150,151,o),
(150,345,cs),
(150,579,o),
(273,691,o),
(449,691,cs),
(546,691,o),
(604,639,o),
(622,623,cs),
(630,615,o),
(640,611,o),
(649,611,cs),
(671,611,o),
(691,631,o),
(691,653,cs),
(691,662,o),
(688,671,o),
(679,680,cs)
);
}
);
width = 774;
},
{
anchors = (
{
name = bottom;
pos = (378,0);
},
{
name = top;
pos = (404,764);
}
);
layerId = m002;
shapes = (
{
closed = 1;
nodes = (
(615,741,o),
(531,769,o),
(446,769,cs),
(276,769,o),
(68,664,o),
(68,345,cs),
(68,101,o),
(221,-20,o),
(415,-20,cs),
(507,-20,o),
(600,12,o),
(666,81,cs),
(688,104,o),
(700,121,o),
(700,139,cs),
(700,161,o),
(685,177,o),
(664,177,cs),
(654,177,o),
(642,176,o),
(633,165,cs),
(591,111,o),
(515,58,o),
(411,58,cs),
(262,58,o),
(150,151,o),
(150,345,cs),
(150,579,o),
(273,691,o),
(449,691,cs),
(546,691,o),
(604,639,o),
(622,623,cs),
(630,615,o),
(640,611,o),
(649,611,cs),
(671,611,o),
(691,631,o),
(691,653,cs),
(691,662,o),
(688,671,o),
(679,680,cs)
);
}
);
width = 774;
},
{
anchors = (
{
name = bottom;
pos = (378,0);
},
{
name = top;
pos = (404,764);
}
);
layerId = m003;
shapes = (
{
closed = 1;
nodes = (
(615,741,o),
(531,769,o),
(446,769,cs),
(276,769,o),
(68,664,o),
(68,345,cs),
(68,101,o),
(221,-20,o),
(415,-20,cs),
(507,-20,o),
(600,12,o),
(666,81,cs),
(688,104,o),
(700,121,o),
(700,139,cs),
(700,161,o),
(685,177,o),
(664,177,cs),
(654,177,o),
(642,176,o),
(633,165,cs),
(591,111,o),
(515,58,o),
(411,58,cs),
(262,58,o),
(150,151,o),
(150,345,cs),
(150,579,o),
(273,691,o),
(449,691,cs),
(546,691,o),
(604,639,o),
(622,623,cs),
(630,615,o),
(640,611,o),
(649,611,cs),
(671,611,o),
(691,631,o),
(691,653,cs),
(691,662,o),
(688,671,o),
(679,680,cs)
);
}
);
width = 774;
}
);
metricLeft = C;
metricRight = C;
},
{
color = 6;
glyphname = C.alt3;
lastChange = "2023-01-19 20:04:04 +0000";
layers = (
{
anchors = (
{
name = bottom;
pos = (376,0);
},
{
name = top;
pos = (402,764);
}
);
layerId = m01;
shapes = (
{
closed = 1;
nodes = (
(624,735,o),
(536,771,o),
(447,771,cs),
(230,771,o),
(69,594,o),
(69,365,cs),
(69,167,o),
(193,-20,o),
(387,-20,cs),
(504,-20,o),
(625,39,o),
(690,130,cs),
(695,137,o),
(696,145,o),
(696,152,cs),
(696,174,o),
(676,190,o),
(654,190,cs),
(640,190,o),
(631,183,o),
(618,166,cs),
(570,103,o),
(475,58,o),
(388,58,cs),
(240,58,o),
(150,215,o),
(150,379,cs),
(150,605,o),
(327,693,o),
(449,693,cs),
(524,693,o),
(588,655,o),
(626,609,cs),
(634,600,o),
(644,597,o),
(653,597,cs),
(675,597,o),
(695,617,o),
(695,640,cs),
(695,649,o),
(691,658,o),
(683,667,cs)
);
}
);
width = 769;
},
{
anchors = (
{
name = bottom;
pos = (376,0);
},
{
name = top;
pos = (402,764);
}
);
layerId = m002;
shapes = (
{
closed = 1;
nodes = (
(624,735,o),
(536,771,o),
(447,771,cs),
(230,771,o),
(69,594,o),
(69,365,cs),
(69,167,o),
(193,-20,o),
(387,-20,cs),
(504,-20,o),
(625,39,o),
(690,130,cs),
(695,137,o),
(696,145,o),
(696,152,cs),
(696,174,o),
(676,190,o),
(654,190,cs),
(640,190,o),
(631,183,o),
(618,166,cs),
(570,103,o),
(475,58,o),
(388,58,cs),
(240,58,o),
(150,215,o),
(150,379,cs),
(150,605,o),
(327,693,o),
(449,693,cs),
(524,693,o),
(588,655,o),
(626,609,cs),
(634,600,o),
(644,597,o),
(653,597,cs),
(675,597,o),
(695,617,o),
(695,640,cs),
(695,649,o),
(691,658,o),
(683,667,cs)
);
}
);
width = 769;
},
{
anchors = (
{
name = bottom;
pos = (376,0);
},
{
name = top;
pos = (402,764);
}
);
layerId = m003;
shapes = (
{
closed = 1;
nodes = (
(624,735,o),
(536,771,o),
(447,771,cs),
(230,771,o),
(69,594,o),
(69,365,cs),
(69,167,o),
(193,-20,o),
(387,-20,cs),
(504,-20,o),
(625,39,o),
(690,130,cs),
(695,137,o),
(696,145,o),
(696,152,cs),
(696,174,o),
(676,190,o),
(654,190,cs),
(640,190,o),
(631,183,o),
(618,166,cs),
(570,103,o),
(475,58,o),
(388,58,cs),
(240,58,o),
(150,215,o),
(150,379,cs),
(150,605,o),
(327,693,o),
(449,693,cs),
(524,693,o),
(588,655,o),
(626,609,cs),
(634,600,o),
(644,597,o),
(653,597,cs),
(675,597,o),
(695,617,o),
(695,640,cs),
(695,649,o),
(691,658,o),
(683,667,cs)
);
}
);
width = 769;
}
);
metricLeft = C;
metricRight = C;
},
{
color = 6;
glyphname = C.alt4;
lastChange = "2023-01-19 20:04:04 +0000";
layers = (
{
anchors = (
{
name = bottom;
pos = (368,0);
},
{
name = top;
pos = (394,764);
}
);
layerId = m01;
shapes = (
{
closed = 1;
nodes = (
(588,743,o),
(508,773,o),
(433,773,cs),
(235,773,o),
(68,569,o),
(68,350,cs),
(68,164,o),
(185,-15,o),
(385,-15,cs),
(471,-15,o),
(562,20,o),
(651,97,cs),
(669,112,o),
(681,129,o),
(681,148,cs),
(681,169,o),
(666,184,o),
(645,184,cs),
(635,184,o),
(623,181,o),
(613,171,cs),
(556,114,o),
(473,63,o),
(384,63,cs),
(236,63,o),
(151,198,o),
(151,356,cs),
(151,593,o),
(323,695,o),
(434,695,cs),
(497,695,o),
(569,659,o),
(608,618,cs),
(616,609,o),
(626,606,o),
(635,606,cs),
(657,606,o),
(677,624,o),
(677,646,cs),
(677,655,o),
(673,665,o),
(665,673,cs)
);
}
);
width = 754;
},
{
anchors = (
{
name = bottom;
pos = (368,0);
},
{
name = top;
pos = (394,764);
}
);
layerId = m002;
shapes = (
{
closed = 1;
nodes = (
(588,743,o),
(508,773,o),
(433,773,cs),
(235,773,o),
(68,569,o),
(68,350,cs),
(68,164,o),
(185,-15,o),
(385,-15,cs),
(471,-15,o),
(562,20,o),
(651,97,cs),
(669,112,o),
(681,129,o),
(681,148,cs),
(681,169,o),
(666,184,o),
(645,184,cs),
(635,184,o),
(623,181,o),
(613,171,cs),
(556,114,o),
(473,63,o),
(384,63,cs),
(236,63,o),
(151,198,o),
(151,356,cs),
(151,593,o),
(323,695,o),
(434,695,cs),
(497,695,o),
(569,659,o),
(608,618,cs),
(616,609,o),
(626,606,o),
(635,606,cs),
(657,606,o),
(677,624,o),
(677,646,cs),
(677,655,o),
(673,665,o),
(665,673,cs)
);
}
);
width = 754;
},
{
anchors = (
{
name = bottom;
pos = (368,0);
},
{
name = top;
pos = (394,764);
}
);
layerId = m003;
shapes = (
{
closed = 1;
nodes = (
(588,743,o),
(508,773,o),
(433,773,cs),
(235,773,o),
(68,569,o),
(68,350,cs),
(68,164,o),
(185,-15,o),
(385,-15,cs),
(471,-15,o),
(562,20,o),
(651,97,cs),
(669,112,o),
(681,129,o),
(681,148,cs),
(681,169,o),
(666,184,o),
(645,184,cs),
(635,184,o),
(623,181,o),
(613,171,cs),
(556,114,o),
(473,63,o),
(384,63,cs),
(236,63,o),
(151,198,o),
(151,356,cs),
(151,593,o),
(323,695,o),
(434,695,cs),
(497,695,o),
(569,659,o),
(608,618,cs),
(616,609,o),
(626,606,o),
(635,606,cs),
(657,606,o),
(677,624,o),
(677,646,cs),
(677,655,o),
(673,665,o),
(665,673,cs)
);
}
);
width = 754;
}
);
metricLeft = C;
metricRight = C;
},
{
color = 6;
glyphname = D;
lastChange = "2023-01-20 16:32:10 +0000";
layers = (
{
anchors = (
{
name = bottom;
pos = (384,0);
},
{
name = center;
pos = (397,382);
},
{
name = top;
pos = (410,764);
}
);
layerId = m01;
shapes = (
{
closed = 1;
nodes = (
(86,-6,o),
(106,-19,o),
(126,-19,cs),
(133,-19,o),
(143,-17,o),
(151,-12,c),
(196,-21,o),
(239,-25,o),
(279,-25,cs),
(568,-25,o),
(721,189,o),
(721,394,cs),
(721,583,o),
(592,764,o),
(321,764,cs),
(271,764,o),
(216,757,o),
(156,744,cs),
(138,740,o),
(126,722,o),
(126,705,cs),
(124,616,o),
(119,528,o),
(113,440,cs),
(104,300,o),
(93,160,o),
(86,20,cs)
);
},
{
closed = 1;
nodes = (
(181,267,o),
(198,473,o),
(204,675,c),
(235,681,o),
(292,686,o),
(334,686,cs),
(473,686,o),
(642,600,o),
(642,397,cs),
(642,181,o),
(472,53,o),
(279,53,cs),
(253,53,o),
(192,58,o),
(169,65,c)
);
}
);
width = 786;
},
{
anchors = (
{
name = bottom;
pos = (321,0);
},
{
name = center;
pos = (397,382);
},
{
name = top;
pos = (365,764);
}
);
layerId = m002;
shapes = (
{
closed = 1;
nodes = (
(86,-6,o),
(106,-19,o),
(126,-19,cs),
(133,-19,o),
(143,-17,o),
(151,-12,c),
(196,-21,o),
(239,-25,o),
(279,-25,cs),
(568,-25,o),
(721,189,o),
(721,394,cs),
(721,583,o),
(592,764,o),
(321,764,cs),
(271,764,o),
(216,757,o),
(156,744,cs),
(138,740,o),
(126,722,o),
(126,705,cs),
(124,616,o),
(119,528,o),
(113,440,cs),
(104,300,o),
(93,160,o),
(86,20,cs)
);
},
{
closed = 1;
nodes = (
(181,267,o),
(198,473,o),
(204,675,c),
(235,681,o),
(292,686,o),
(334,686,cs),
(473,686,o),
(642,600,o),
(642,397,cs),
(642,181,o),
(472,53,o),
(279,53,cs),
(253,53,o),
(192,58,o),
(169,65,c)
);
}
);
width = 786;
},
{
anchors = (
{
name = bottom;
pos = (384,0);
},
{
name = center;
pos = (397,382);
},
{
name = top;
pos = (410,764);
}
);
layerId = m003;
shapes = (
{
closed = 1;
nodes = (
(86,-6,o),
(106,-19,o),
(126,-19,cs),
(133,-19,o),
(143,-17,o),
(151,-12,c),
(196,-21,o),
(239,-25,o),
(279,-25,cs),
(568,-25,o),
(721,189,o),
(721,394,cs),
(721,583,o),
(592,764,o),
(321,764,cs),
(271,764,o),
(216,757,o),
(156,744,cs),
(138,740,o),
(126,722,o),
(126,705,cs),
(124,616,o),
(119,528,o),
(113,440,cs),
(104,300,o),
(93,160,o),
(86,20,cs)
);
},
{
closed = 1;
nodes = (
(181,267,o),
(198,473,o),
(204,675,c),
(235,681,o),
(292,686,o),
(334,686,cs),
(473,686,o),
(642,600,o),
(642,397,cs),
(642,181,o),
(472,53,o),
(279,53,cs),
(253,53,o),
(192,58,o),
(169,65,c)
);
}
);
width = 786;
}
);
unicode = 68;
},
{
color = 6;
glyphname = D.alt1;
lastChange = "2023-01-19 20:04:04 +0000";
layers = (
{
anchors = (
{
name = bottom;
pos = (406,0);
},
{
name = center;
pos = (419,382);
},
{
name = top;
pos = (432,764);
}
);
layerId = m01;
shapes = (
{
closed = 1;
nodes = (
(111,688,o),
(125,669,o),
(151,670,c),
(143,548,o),
(161,303,o),
(161,184,cs),
(161,153,o),
(160,122,o),
(158,87,c),
(148,89,o),
(138,91,o),
(128,92,cs),
(99,94,o),
(88,76,o),
(88,56,cs),
(88,38,o),
(97,19,o),
(123,14,cs),
(163,6,o),
(215,-1,o),
(266,-1,cs),
(500,-1,o),
(750,117,o),
(765,371,cs),
(772,647,o),
(628,764,o),
(352,764,cs),
(306,764,o),
(260,761,o),
(170,751,cs),
(134,748,o),
(111,740,o),
(111,709,cs)
);
},
{
closed = 1;
nodes = (
(242,427,o),
(222,443,o),
(234,681,c),
(270,684,o),
(305,686,o),
(340,686,cs),
(563,686,o),
(685,612,o),
(685,396,cs),
(685,169,o),
(456,68,o),
(239,78,c),
(241,117,o),
(242,152,o),
(242,188,cs)
);
}
);
width = 830;
},
{
anchors = (
{
name = bottom;
pos = (406,0);
},
{
name = center;
pos = (419,382);
},
{
name = top;
pos = (432,764);
}
);
layerId = m002;
shapes = (
{
closed = 1;
nodes = (
(111,688,o),
(125,669,o),
(151,670,c),
(143,548,o),
(161,303,o),
(161,184,cs),
(161,153,o),
(160,122,o),
(158,87,c),
(148,89,o),
(138,91,o),
(128,92,cs),
(99,94,o),
(88,76,o),
(88,56,cs),
(88,38,o),
(97,19,o),
(123,14,cs),
(163,6,o),
(215,-1,o),
(266,-1,cs),
(500,-1,o),
(750,117,o),
(765,371,cs),
(772,647,o),
(628,764,o),
(352,764,cs),
(306,764,o),
(260,761,o),
(170,751,cs),
(134,748,o),
(111,740,o),
(111,709,cs)
);
},
{
closed = 1;
nodes = (
(242,427,o),
(222,443,o),
(234,681,c),
(270,684,o),
(305,686,o),
(340,686,cs),
(563,686,o),
(685,612,o),
(685,396,cs),
(685,169,o),
(456,68,o),
(239,78,c),
(241,117,o),
(242,152,o),
(242,188,cs)
);
}
);
width = 830;
},
{
anchors = (
{
name = bottom;
pos = (406,0);
},
{
name = center;
pos = (419,382);
},
{
name = top;
pos = (432,764);
}
);
layerId = m003;
shapes = (
{
closed = 1;
nodes = (
(111,688,o),
(125,669,o),
(151,670,c),
(143,548,o),
(161,303,o),
(161,184,cs),
(161,153,o),
(160,122,o),
(158,87,c),
(148,89,o),
(138,91,o),
(128,92,cs),
(99,94,o),
(88,76,o),
(88,56,cs),
(88,38,o),
(97,19,o),
(123,14,cs),
(163,6,o),
(215,-1,o),
(266,-1,cs),
(500,-1,o),
(750,117,o),
(765,371,cs),
(772,647,o),
(628,764,o),
(352,764,cs),
(306,764,o),
(260,761,o),
(170,751,cs),
(134,748,o),
(111,740,o),
(111,709,cs)
);
},
{
closed = 1;
nodes = (
(242,427,o),
(222,443,o),
(234,681,c),
(270,684,o),
(305,686,o),
(340,686,cs),
(563,686,o),
(685,612,o),
(685,396,cs),
(685,169,o),
(456,68,o),
(239,78,c),
(241,117,o),
(242,152,o),
(242,188,cs)
);
}
);
width = 830;
}
);
metricLeft = D;
metricRight = D;
},
{
color = 6;
glyphname = D.alt2;
lastChange = "2023-01-19 20:04:04 +0000";
layers = (
{
anchors = (
{
name = bottom;
pos = (385,0);
},
{
name = center;
pos = (398,382);
},
{
name = top;
pos = (411,764);
}
);
layerId = m01;
shapes = (
{
closed = 1;
nodes = (
(111,95,o),
(92,78,o),
(92,55,cs),
(92,37,o),
(108,24,o),
(135,16,cs),
(167,6,o),
(216,3,o),
(305,3,cs),
(550,3,o),
(722,146,o),
(722,391,cs),
(722,624,o),
(547,774,o),
(284,774,cs),
(237,774,o),
(191,769,o),
(147,759,cs),
(120,753,o),
(110,735,o),
(111,710,cs),
(117,471,o),
(128,331,o),
(122,128,cs),
(121,103,o),
(139,87,o),
(160,87,cs),
(179,87,o),
(201,96,o),
(203,128,cs),
(208,238,o),
(196,574,o),
(193,686,c),
(232,691,o),
(261,693,o),
(290,693,cs),
(499,693,o),
(640,586,o),
(640,387,cs),
(640,209,o),
(529,81,o),
(303,81,cs),
(247,81,o),
(195,87,o),
(132,93,cs)
);
}
);
width = 787;
},
{
anchors = (
{
name = bottom;
pos = (385,0);
},
{
name = center;
pos = (398,382);
},
{
name = top;
pos = (411,764);
}
);
layerId = m002;
shapes = (
{
closed = 1;
nodes = (
(111,95,o),
(92,78,o),
(92,55,cs),
(92,37,o),
(108,24,o),
(135,16,cs),
(167,6,o),
(216,3,o),
(305,3,cs),
(550,3,o),
(722,146,o),
(722,391,cs),
(722,624,o),
(547,774,o),
(284,774,cs),
(237,774,o),
(191,769,o),
(147,759,cs),
(120,753,o),
(110,735,o),
(111,710,cs),
(117,471,o),
(128,331,o),
(122,128,cs),
(121,103,o),
(139,87,o),
(160,87,cs),
(179,87,o),
(201,96,o),
(203,128,cs),
(208,238,o),
(196,574,o),
(193,686,c),
(232,691,o),
(261,693,o),
(290,693,cs),
(499,693,o),
(640,586,o),
(640,387,cs),
(640,209,o),
(529,81,o),
(303,81,cs),
(247,81,o),
(195,87,o),
(132,93,cs)
);
}
);
width = 787;
},
{
anchors = (
{
name = bottom;
pos = (385,0);
},
{
name = center;
pos = (398,382);
},
{
name = top;
pos = (411,764);
}
);
layerId = m003;
shapes = (
{
closed = 1;
nodes = (
(111,95,o),
(92,78,o),
(92,55,cs),
(92,37,o),
(108,24,o),
(135,16,cs),
(167,6,o),
(216,3,o),
(305,3,cs),
(550,3,o),
(722,146,o),
(722,391,cs),
(722,624,o),
(547,774,o),
(284,774,cs),
(237,774,o),
(191,769,o),
(147,759,cs),
(120,753,o),
(110,735,o),
(111,710,cs),
(117,471,o),
(128,331,o),
(122,128,cs),
(121,103,o),
(139,87,o),
(160,87,cs),
(179,87,o),
(201,96,o),
(203,128,cs),
(208,238,o),
(196,574,o),
(193,686,c),
(232,691,o),
(261,693,o),
(290,693,cs),
(499,693,o),
(640,586,o),
(640,387,cs),
(640,209,o),
(529,81,o),
(303,81,cs),
(247,81,o),
(195,87,o),
(132,93,cs)
);
}
);
width = 787;
}
);
metricLeft = D;
metricRight = D;
},
{
color = 6;
glyphname = D.alt3;
lastChange = "2023-01-19 20:04:04 +0000";
layers = (
{
anchors = (
{
name = bottom;
pos = (373,0);
},
{
name = center;
pos = (386,382);
},
{
name = top;
pos = (399,764);
}
);
layerId = m01;
shapes = (
{
closed = 1;
nodes = (
(109,483,o),
(103,248,o),
(91,13,cs),
(90,-13,o),
(111,-26,o),
(131,-26,cs),
(152,-26,o),
(172,-13,o),
(172,13,cs),
(184,248,o),
(190,483,o),
(192,718,cs),
(193,744,o),
(172,757,o),
(152,757,cs),
(132,757,o),
(111,744,o),
(111,718,cs)
);
},
{
closed = 1;
nodes = (
(196,675,o),
(228,677,o),
(260,677,cs),
(530,677,o),
(616,525,o),
(616,366,cs),
(616,195,o),
(501,68,o),
(253,68,cs),
(211,68,o),
(180,71,o),
(139,74,cs),
(124,75,o),
(99,65,o),
(99,38,cs),
(99,17,o),
(115,-1,o),
(139,-4,cs),
(182,-9,o),
(216,-10,o),
(277,-10,cs),
(515,-10,o),
(697,124,o),
(697,367,cs),
(697,578,o),
(557,755,o),
(257,755,cs),
(225,755,o),
(194,754,o),
(164,749,cs),
(138,745,o),
(125,729,o),
(125,708,cs),
(125,688,o),
(138,668,o),
(164,671,cs)
);
}
);
width = 763;
},
{
anchors = (
{
name = bottom;
pos = (373,0);
},
{
name = center;
pos = (386,382);
},
{
name = top;
pos = (399,764);
}
);
layerId = m002;
shapes = (
{
closed = 1;
nodes = (
(109,483,o),
(103,248,o),
(91,13,cs),
(90,-13,o),
(111,-26,o),
(131,-26,cs),
(152,-26,o),
(172,-13,o),
(172,13,cs),
(184,248,o),
(190,483,o),
(192,718,cs),
(193,744,o),
(172,757,o),
(152,757,cs),
(132,757,o),
(111,744,o),
(111,718,cs)
);
},
{
closed = 1;
nodes = (
(196,675,o),
(228,677,o),
(260,677,cs),
(530,677,o),
(616,525,o),
(616,366,cs),
(616,195,o),
(501,68,o),
(253,68,cs),
(211,68,o),
(180,71,o),
(139,74,cs),
(124,75,o),
(99,65,o),
(99,38,cs),
(99,17,o),
(115,-1,o),
(139,-4,cs),
(182,-9,o),
(216,-10,o),
(277,-10,cs),
(515,-10,o),
(697,124,o),
(697,367,cs),
(697,578,o),
(557,755,o),
(257,755,cs),
(225,755,o),
(194,754,o),
(164,749,cs),
(138,745,o),
(125,729,o),
(125,708,cs),
(125,688,o),
(138,668,o),
(164,671,cs)
);
}
);
width = 763;
},
{
anchors = (
{
name = bottom;
pos = (373,0);
},
{
name = center;
pos = (386,382);
},
{
name = top;
pos = (399,764);
}
);
layerId = m003;
shapes = (
{
closed = 1;
nodes = (
(109,483,o),
(103,248,o),
(91,13,cs),
(90,-13,o),
(111,-26,o),
(131,-26,cs),
(152,-26,o),
(172,-13,o),
(172,13,cs),
(184,248,o),
(190,483,o),
(192,718,cs),
(193,744,o),
(172,757,o),
(152,757,cs),
(132,757,o),
(111,744,o),
(111,718,cs)
);
},
{
closed = 1;
nodes = (
(196,675,o),
(228,677,o),
(260,677,cs),
(530,677,o),
(616,525,o),
(616,366,cs),
(616,195,o),
(501,68,o),
(253,68,cs),
(211,68,o),
(180,71,o),
(139,74,cs),
(124,75,o),
(99,65,o),
(99,38,cs),
(99,17,o),
(115,-1,o),
(139,-4,cs),
(182,-9,o),
(216,-10,o),
(277,-10,cs),
(515,-10,o),
(697,124,o),
(697,367,cs),
(697,578,o),
(557,755,o),
(257,755,cs),
(225,755,o),
(194,754,o),
(164,749,cs),
(138,745,o),
(125,729,o),
(125,708,cs),
(125,688,o),
(138,668,o),
(164,671,cs)
);
}
);
width = 763;
}
);
metricLeft = D;
metricRight = D;
},
{
color = 6;
glyphname = D.alt4;
lastChange = "2023-01-19 20:04:04 +0000";
layers = (
{
anchors = (
{
name = bottom;
pos = (421,0);
},
{
name = center;
pos = (434,382);
},
{
name = top;
pos = (447,764);
}
);
layerId = m01;
shapes = (
{
closed = 1;
nodes = (
(181,681,l),
(167,599,o),
(164,514,o),
(164,432,cs),
(164,334,o),
(170,121,o),
(158,26,cs),
(153,-12,o),
(178,-24,o),
(213,-21,cs),
(250,-18,o),
(300,-17,o),
(364,-17,cs),
(677,-17,o),
(795,232,o),
(795,386,cs),
(795,665,o),
(554,768,o),
(306,768,cs),
(238,768,o),
(195,763,o),
(162,756,cs),
(132,750,o),
(111,743,o),
(111,715,cs),
(111,685,o),
(133,673,o),
(162,678,cs)
);
},
{
closed = 1;
nodes = (
(251,175,o),
(245,310,o),
(245,425,cs),
(245,516,o),
(248,606,o),
(265,688,c),
(280,689,o),
(294,690,o),
(304,690,cs),
(592,690,o),
(715,550,o),
(715,380,cs),
(715,263,o),
(600,61,o),
(376,61,cs),
(342,61,o),
(256,60,o),
(242,58,c)
);
}
);
width = 860;
},
{
anchors = (
{
name = bottom;
pos = (421,0);
},
{
name = center;
pos = (434,382);
},
{
name = top;
pos = (447,764);
}
);
layerId = m002;
shapes = (
{
closed = 1;
nodes = (
(181,681,l),
(167,599,o),
(164,514,o),
(164,432,cs),
(164,334,o),
(170,121,o),
(158,26,cs),
(153,-12,o),
(178,-24,o),
(213,-21,cs),
(250,-18,o),
(300,-17,o),
(364,-17,cs),
(677,-17,o),
(795,232,o),
(795,386,cs),
(795,665,o),
(554,768,o),
(306,768,cs),
(238,768,o),
(195,763,o),
(162,756,cs),
(132,750,o),
(111,743,o),
(111,715,cs),
(111,685,o),
(133,673,o),
(162,678,cs)
);
},
{
closed = 1;
nodes = (
(251,175,o),
(245,310,o),
(245,425,cs),
(245,516,o),
(248,606,o),
(265,688,c),
(280,689,o),
(294,690,o),
(304,690,cs),
(592,690,o),
(715,550,o),
(715,380,cs),
(715,263,o),
(600,61,o),
(376,61,cs),
(342,61,o),
(256,60,o),
(242,58,c)
);
}
);
width = 860;
},
{
anchors = (
{
name = bottom;
pos = (421,0);
},
{
name = center;
pos = (434,382);
},
{
name = top;
pos = (447,764);
}
);
layerId = m003;
shapes = (
{
closed = 1;
nodes = (
(181,681,l),
(167,599,o),
(164,514,o),
(164,432,cs),
(164,334,o),
(170,121,o),
(158,26,cs),
(153,-12,o),
(178,-24,o),
(213,-21,cs),
(250,-18,o),
(300,-17,o),
(364,-17,cs),
(677,-17,o),
(795,232,o),
(795,386,cs),
(795,665,o),
(554,768,o),
(306,768,cs),
(238,768,o),
(195,763,o),
(162,756,cs),
(132,750,o),
(111,743,o),
(111,715,cs),
(111,685,o),
(133,673,o),
(162,678,cs)
);
},
{
closed = 1;
nodes = (
(251,175,o),
(245,310,o),
(245,425,cs),
(245,516,o),
(248,606,o),
(265,688,c),
(280,689,o),
(294,690,o),
(304,690,cs),
(592,690,o),
(715,550,o),
(715,380,cs),
(715,263,o),
(600,61,o),
(376,61,cs),
(342,61,o),
(256,60,o),
(242,58,c)
);
}
);
width = 860;
}
);
metricLeft = D;
metricRight = D;
},
{
color = 6;
glyphname = D.alt5;
lastChange = "2023-01-19 20:04:04 +0000";
layers = (
{
anchors = (
{
name = bottom;
pos = (379,0);
},
{
name = center;
pos = (392,382);
},
{
name = top;
pos = (405,764);
}
);
layerId = m01;
shapes = (
{
closed = 1;
nodes = (
(118,534,o),
(106,240,o),
(87,33,cs),
(85,12,o),
(102,-6,o),
(124,-6,cs),
(125,-6,ls),
(408,-6,o),
(710,32,o),
(710,398,cs),
(710,634,o),
(501,762,o),
(288,762,cs),
(262,762,o),
(214,759,o),
(178,752,c),
(170,757,o),
(162,759,o),
(153,759,cs),
(133,759,o),
(113,746,o),
(113,720,cs)
);
},
{
closed = 1;
nodes = (
(187,258,o),
(197,502,o),
(195,676,c),
(227,682,o),
(255,684,o),
(284,684,cs),
(488,684,o),
(627,563,o),
(627,394,cs),
(627,161,o),
(493,79,o),
(172,72,c)
);
}
);
width = 775;
},
{
anchors = (
{
name = bottom;
pos = (379,0);
},
{
name = center;
pos = (392,382);
},
{
name = top;
pos = (405,764);
}
);
layerId = m002;
shapes = (
{
closed = 1;
nodes = (
(118,534,o),
(106,240,o),
(87,33,cs),
(85,12,o),
(102,-6,o),
(124,-6,cs),
(125,-6,ls),
(408,-6,o),
(710,32,o),
(710,398,cs),
(710,634,o),
(501,762,o),
(288,762,cs),
(262,762,o),
(214,759,o),
(178,752,c),
(170,757,o),
(162,759,o),
(153,759,cs),
(133,759,o),
(113,746,o),
(113,720,cs)
);
},
{
closed = 1;
nodes = (
(187,258,o),
(197,502,o),
(195,676,c),
(227,682,o),
(255,684,o),
(284,684,cs),
(488,684,o),
(627,563,o),
(627,394,cs),
(627,161,o),
(493,79,o),
(172,72,c)
);
}
);
width = 775;
},
{
anchors = (
{
name = bottom;
pos = (379,0);
},
{
name = center;
pos = (392,382);
},
{
name = top;
pos = (405,764);
}
);
layerId = m003;
shapes = (
{
closed = 1;
nodes = (
(118,534,o),
(106,240,o),
(87,33,cs),
(85,12,o),
(102,-6,o),
(124,-6,cs),
(125,-6,ls),
(408,-6,o),
(710,32,o),
(710,398,cs),
(710,634,o),
(501,762,o),
(288,762,cs),
(262,762,o),
(214,759,o),
(178,752,c),
(170,757,o),
(162,759,o),
(153,759,cs),
(133,759,o),
(113,746,o),
(113,720,cs)
);
},
{
closed = 1;
nodes = (
(187,258,o),
(197,502,o),
(195,676,c),
(227,682,o),
(255,684,o),
(284,684,cs),
(488,684,o),
(627,563,o),
(627,394,cs),
(627,161,o),
(493,79,o),
(172,72,c)
);
}
);
width = 775;
}
);
metricLeft = D;
metricRight = D;
},
{
color = 6;
glyphname = E;
lastChange = "2023-01-20 16:31:13 +0000";
layers = (
{
anchors = (
{
name = bottom;
pos = (304,0);
},
{
name = ogonek;
pos = (554,10);
},
{
name = top;
pos = (330,764);
},
{
name = topleft;
pos = (37,764);
}
);
layerId = m01;
shapes = (
{
closed = 1;
nodes = (
(241,-5,o),
(334,2,o),
(428,5,cs),
(455,6,o),
(482,6,o),
(509,6,cs),
(535,6,o),
(548,25,o),
(548,46,cs),
(548,66,o),
(535,84,o),
(509,84,cs),
(417,83,o),
(263,73,o),
(171,67,c),
(178,160,o),
(184,260,o),
(190,354,c),
(293,368,o),
(420,370,o),
(471,367,cs),
(492,367,o),
(513,384,o),
(512,406,cs),
(511,428,o),
(494,445,o),
(471,445,cs),
(409,448,o),
(282,444,o),
(195,433,c),
(200,512,o),
(204,610,o),
(208,689,c),
(303,696,o),
(398,699,o),
(527,699,cs),
(559,699,o),
(571,717,o),
(571,738,cs),
(571,760,o),
(559,777,o),
(527,777,cs),
(387,777,o),
(281,773,o),
(176,765,cs),
(143,763,o),
(131,745,o),
(129,714,cs),
(118,489,o),
(104,250,o),
(87,25,cs),
(86,-13,o),
(126,-16,o),
(148,-15,cs)
);
}
);
width = 626;
},
{
anchors = (
{
name = bottom;
pos = (322,0);
},
{
name = ogonek;
pos = (554,10);
},
{
name = top;
pos = (350,764);
},
{
name = topleft;
pos = (37,764);
}
);
layerId = m002;
shapes = (
{
closed = 1;
nodes = (
(241,-5,o),
(334,2,o),
(428,5,cs),
(455,6,o),
(482,6,o),
(509,6,cs),
(535,6,o),
(548,25,o),
(548,46,cs),
(548,66,o),
(535,84,o),
(509,84,cs),
(417,83,o),
(263,73,o),
(171,67,c),
(178,160,o),
(184,260,o),
(190,354,c),
(293,368,o),
(420,370,o),
(471,367,cs),
(492,367,o),
(513,384,o),
(512,406,cs),
(511,428,o),
(494,445,o),
(471,445,cs),
(409,448,o),
(282,444,o),
(195,433,c),
(200,512,o),
(204,610,o),
(208,689,c),
(303,696,o),
(398,699,o),
(527,699,cs),
(559,699,o),
(571,717,o),
(571,738,cs),
(571,760,o),
(559,777,o),
(527,777,cs),
(387,777,o),
(281,773,o),
(176,765,cs),
(143,763,o),
(131,745,o),
(129,714,cs),
(118,489,o),
(104,250,o),
(87,25,cs),
(86,-13,o),
(126,-16,o),
(148,-15,cs)
);
}
);
width = 626;
},
{
anchors = (
{
name = bottom;
pos = (304,0);
},
{
name = ogonek;
pos = (554,10);
},
{
name = top;
pos = (330,764);
},
{
name = topleft;
pos = (37,764);
}
);
layerId = m003;
shapes = (
{
closed = 1;
nodes = (
(241,-5,o),
(334,2,o),
(428,5,cs),
(455,6,o),
(482,6,o),
(509,6,cs),
(535,6,o),
(548,25,o),
(548,46,cs),
(548,66,o),
(535,84,o),
(509,84,cs),
(417,83,o),
(263,73,o),
(171,67,c),
(178,160,o),
(184,260,o),
(190,354,c),
(293,368,o),
(420,370,o),
(471,367,cs),
(492,367,o),
(513,384,o),
(512,406,cs),
(511,428,o),
(494,445,o),
(471,445,cs),
(409,448,o),
(282,444,o),
(195,433,c),
(200,512,o),
(204,610,o),
(208,689,c),
(303,696,o),
(398,699,o),
(527,699,cs),
(559,699,o),
(571,717,o),
(571,738,cs),
(571,760,o),
(559,777,o),
(527,777,cs),
(387,777,o),
(281,773,o),
(176,765,cs),
(143,763,o),
(131,745,o),
(129,714,cs),
(118,489,o),
(104,250,o),
(87,25,cs),
(86,-13,o),
(126,-16,o),
(148,-15,cs)
);
}
);
width = 626;
}
);
unicode = 69;
},
{
color = 6;
glyphname = E.alt1;
lastChange = "2023-01-19 20:04:04 +0000";
layers = (
{
anchors = (
{
name = bottom;
pos = (309,0);
},
{
name = ogonek;
pos = (563,10);
},
{
name = top;
pos = (335,764);
},
{
name = topleft;
pos = (37,764);
}
);
layerId = m01;
shapes = (
{
closed = 1;
nodes = (
(272,-9,o),
(383,-6,o),
(495,-3,cs),
(516,-3,o),
(536,15,o),
(535,37,cs),
(534,59,o),
(517,75,o),
(495,75,cs),
(387,72,o),
(279,70,o),
(172,69,c),
(173,159,o),
(175,253,o),
(180,343,c),
(265,352,o),
(379,356,o),
(441,353,cs),
(467,353,o),
(480,370,o),
(480,391,cs),
(480,408,o),
(467,431,o),
(441,431,cs),
(379,434,o),
(269,430,o),
(184,421,c),
(188,503,o),
(195,607,o),
(202,689,c),
(319,697,o),
(418,697,o),
(534,694,cs),
(566,693,o),
(581,707,o),
(581,731,cs),
(581,755,o),
(566,770,o),
(534,771,cs),
(418,774,o),
(319,774,o),
(199,766,c),
(192,775,o),
(180,779,o),
(169,779,cs),
(148,779,o),
(128,766,o),
(128,739,c),
(104,507,o),
(91,274,o),
(91,40,cs),
(91,15,o),
(104,-9,o),
(135,-9,cs)
);
}
);
width = 635;
},
{
anchors = (
{
name = bottom;
pos = (309,0);
},
{
name = ogonek;
pos = (563,10);
},
{
name = top;
pos = (335,764);
},
{
name = topleft;
pos = (37,764);
}
);
layerId = m002;
shapes = (
{
closed = 1;
nodes = (
(272,-9,o),
(383,-6,o),
(495,-3,cs),
(516,-3,o),
(536,15,o),
(535,37,cs),
(534,59,o),
(517,75,o),
(495,75,cs),
(387,72,o),
(279,70,o),
(172,69,c),
(173,159,o),
(175,253,o),
(180,343,c),
(265,352,o),
(379,356,o),
(441,353,cs),
(467,353,o),
(480,370,o),
(480,391,cs),
(480,408,o),
(467,431,o),
(441,431,cs),
(379,434,o),
(269,430,o),
(184,421,c),
(188,503,o),
(195,607,o),
(202,689,c),
(319,697,o),
(418,697,o),
(534,694,cs),
(566,693,o),
(581,707,o),
(581,731,cs),
(581,755,o),
(566,770,o),
(534,771,cs),
(418,774,o),
(319,774,o),
(199,766,c),
(192,775,o),
(180,779,o),
(169,779,cs),
(148,779,o),
(128,766,o),
(128,739,c),
(104,507,o),
(91,274,o),
(91,40,cs),
(91,15,o),
(104,-9,o),
(135,-9,cs)
);
}
);
width = 635;
},
{
anchors = (
{
name = bottom;
pos = (309,0);
},
{
name = ogonek;
pos = (563,10);
},
{
name = top;
pos = (335,764);
},
{
name = topleft;
pos = (37,764);
}
);
layerId = m003;
shapes = (
{
closed = 1;
nodes = (
(272,-9,o),
(383,-6,o),
(495,-3,cs),
(516,-3,o),
(536,15,o),
(535,37,cs),
(534,59,o),
(517,75,o),
(495,75,cs),
(387,72,o),
(279,70,o),
(172,69,c),
(173,159,o),
(175,253,o),
(180,343,c),
(265,352,o),
(379,356,o),
(441,353,cs),
(467,353,o),
(480,370,o),
(480,391,cs),
(480,408,o),
(467,431,o),
(441,431,cs),
(379,434,o),
(269,430,o),
(184,421,c),
(188,503,o),
(195,607,o),
(202,689,c),
(319,697,o),
(418,697,o),
(534,694,cs),
(566,693,o),
(581,707,o),
(581,731,cs),
(581,755,o),
(566,770,o),
(534,771,cs),
(418,774,o),
(319,774,o),
(199,766,c),
(192,775,o),
(180,779,o),
(169,779,cs),
(148,779,o),
(128,766,o),
(128,739,c),
(104,507,o),
(91,274,o),
(91,40,cs),
(91,15,o),
(104,-9,o),
(135,-9,cs)
);
}
);
width = 635;
}
);
metricLeft = E;
metricRight = E;
},
{
color = 6;
glyphname = E.alt2;
lastChange = "2023-01-19 20:04:04 +0000";
layers = (
{
anchors = (
{
name = bottom;
pos = (312,0);
},
{
name = ogonek;
pos = (568,10);
},
{
name = top;
pos = (338,764);
},
{
name = topleft;
pos = (37,764);
}
);
layerId = m01;
shapes = (
{
closed = 1;
nodes = (
(121,511,o),
(102,274,o),
(87,36,cs),
(84,-10,o),
(117,-18,o),
(153,-14,cs),
(245,-3,o),
(338,4,o),
(510,-3,cs),
(536,-4,o),
(549,17,o),
(549,37,cs),
(549,58,o),
(536,76,o),
(510,76,cs),
(416,81,o),
(268,76,o),
(170,67,c),
(177,166,o),
(184,268,o),
(192,368,c),
(278,375,o),
(385,373,o),
(477,363,cs),
(503,360,o),
(518,382,o),
(518,403,cs),
(518,422,o),
(504,436,o),
(476,441,cs),
(410,453,o),
(265,449,o),
(198,445,c),
(220,700,l),
(277,706,o),
(334,709,o),
(390,709,cs),
(429,709,o),
(504,704,o),
(541,700,cs),
(573,697,o),
(587,716,o),
(587,740,cs),
(587,759,o),
(578,774,o),
(540,779,cs),
(510,783,o),
(444,787,o),
(362,787,cs),
(313,787,o),
(251,784,o),
(216,775,c),
(209,782,o),
(199,788,o),
(185,788,cs),
(164,788,o),
(147,775,o),
(144,749,cs)
);
}
);
width = 641;
},
{
anchors = (
{
name = bottom;
pos = (312,0);
},
{
name = ogonek;
pos = (568,10);
},
{
name = top;
pos = (338,764);
},
{
name = topleft;
pos = (37,764);
}
);
layerId = m002;
shapes = (
{
closed = 1;
nodes = (
(121,511,o),
(102,274,o),
(87,36,cs),
(84,-10,o),
(117,-18,o),
(153,-14,cs),
(245,-3,o),
(338,4,o),
(510,-3,cs),
(536,-4,o),
(549,17,o),
(549,37,cs),
(549,58,o),
(536,76,o),
(510,76,cs),
(416,81,o),
(268,76,o),
(170,67,c),
(177,166,o),
(184,268,o),
(192,368,c),
(278,375,o),
(385,373,o),
(477,363,cs),
(503,360,o),
(518,382,o),
(518,403,cs),
(518,422,o),
(504,436,o),
(476,441,cs),
(410,453,o),
(265,449,o),
(198,445,c),
(220,700,l),
(277,706,o),
(334,709,o),
(390,709,cs),
(429,709,o),
(504,704,o),
(541,700,cs),
(573,697,o),
(587,716,o),
(587,740,cs),
(587,759,o),
(578,774,o),
(540,779,cs),
(510,783,o),
(444,787,o),
(362,787,cs),
(313,787,o),
(251,784,o),
(216,775,c),
(209,782,o),
(199,788,o),
(185,788,cs),
(164,788,o),
(147,775,o),
(144,749,cs)
);
}
);
width = 641;
},
{
anchors = (
{
name = bottom;
pos = (312,0);
},
{
name = ogonek;
pos = (568,10);
},
{
name = top;
pos = (338,764);
},
{
name = topleft;
pos = (37,764);
}
);
layerId = m003;
shapes = (
{
closed = 1;
nodes = (
(121,511,o),
(102,274,o),
(87,36,cs),
(84,-10,o),
(117,-18,o),
(153,-14,cs),
(245,-3,o),
(338,4,o),
(510,-3,cs),
(536,-4,o),
(549,17,o),
(549,37,cs),
(549,58,o),
(536,76,o),
(510,76,cs),
(416,81,o),
(268,76,o),
(170,67,c),
(177,166,o),
(184,268,o),
(192,368,c),
(278,375,o),
(385,373,o),
(477,363,cs),
(503,360,o),
(518,382,o),
(518,403,cs),
(518,422,o),
(504,436,o),
(476,441,cs),
(410,453,o),
(265,449,o),
(198,445,c),
(220,700,l),
(277,706,o),
(334,709,o),
(390,709,cs),
(429,709,o),
(504,704,o),
(541,700,cs),
(573,697,o),
(587,716,o),
(587,740,cs),
(587,759,o),
(578,774,o),
(540,779,cs),
(510,783,o),
(444,787,o),
(362,787,cs),
(313,787,o),
(251,784,o),
(216,775,c),
(209,782,o),
(199,788,o),
(185,788,cs),
(164,788,o),
(147,775,o),
(144,749,cs)
);
}
);
width = 641;
}
);
metricLeft = E;
metricRight = E;
},
{
color = 6;
glyphname = E.alt3;
lastChange = "2023-01-19 20:04:04 +0000";
layers = (
{
anchors = (
{
name = bottom;
pos = (296,0);
},
{
name = ogonek;
pos = (540,10);
},
{
name = top;
pos = (322,764);
},
{
name = topleft;
pos = (37,764);
}
);
layerId = m01;
shapes = (
{
closed = 1;
nodes = (
(110,492,o),
(99,254,o),
(86,18,cs),
(85,-8,o),
(106,-21,o),
(126,-21,cs),
(147,-21,o),
(166,-8,o),
(167,18,cs),
(180,254,o),
(191,492,o),
(198,729,cs),
(199,755,o),
(178,768,o),
(158,768,cs),
(138,768,o),
(117,755,o),
(117,729,cs)
);
},
{
closed = 1;
nodes = (
(323,698,o),
(416,696,o),
(509,693,cs),
(541,692,o),
(556,710,o),
(556,734,cs),
(556,759,o),
(541,770,o),
(509,771,cs),
(416,775,o),
(322,777,o),
(173,777,cs),
(142,777,o),
(126,762,o),
(126,738,cs),
(126,713,o),
(142,698,o),
(173,698,cs)
);
},
{
closed = 1;
nodes = (
(263,361,o),
(387,362,o),
(441,360,cs),
(467,360,o),
(480,380,o),
(480,400,cs),
(480,421,o),
(467,438,o),
(441,438,cs),
(387,440,o),
(263,439,o),
(165,429,cs),
(143,428,o),
(124,413,o),
(124,391,cs),
(125,371,o),
(142,349,o),
(165,351,cs)
);
},
{
closed = 1;
nodes = (
(253,-6,o),
(366,-3,o),
(478,-3,cs),
(504,-3,o),
(517,17,o),
(517,38,cs),
(517,58,o),
(504,75,o),
(478,75,cs),
(366,75,o),
(253,72,o),
(141,66,cs),
(120,65,o),
(100,51,o),
(101,28,cs),
(102,7,o),
(119,-13,o),
(141,-12,cs)
);
}
);
width = 610;
},
{
anchors = (
{
name = bottom;
pos = (296,0);
},
{
name = ogonek;
pos = (540,10);
},
{
name = top;
pos = (322,764);
},
{
name = topleft;
pos = (37,764);
}
);
layerId = m002;
shapes = (
{
closed = 1;
nodes = (
(110,492,o),
(99,254,o),
(86,18,cs),
(85,-8,o),
(106,-21,o),
(126,-21,cs),
(147,-21,o),
(166,-8,o),
(167,18,cs),
(180,254,o),
(191,492,o),
(198,729,cs),
(199,755,o),
(178,768,o),
(158,768,cs),
(138,768,o),
(117,755,o),
(117,729,cs)
);
},
{
closed = 1;
nodes = (
(323,698,o),
(416,696,o),
(509,693,cs),
(541,692,o),
(556,710,o),
(556,734,cs),
(556,759,o),
(541,770,o),
(509,771,cs),
(416,775,o),
(322,777,o),
(173,777,cs),
(142,777,o),
(126,762,o),
(126,738,cs),
(126,713,o),
(142,698,o),
(173,698,cs)
);
},
{
closed = 1;
nodes = (
(263,361,o),
(387,362,o),
(441,360,cs),
(467,360,o),
(480,380,o),
(480,400,cs),
(480,421,o),
(467,438,o),
(441,438,cs),
(387,440,o),
(263,439,o),
(165,429,cs),
(143,428,o),
(124,413,o),
(124,391,cs),
(125,371,o),
(142,349,o),
(165,351,cs)
);
},
{
closed = 1;
nodes = (
(253,-6,o),
(366,-3,o),
(478,-3,cs),
(504,-3,o),
(517,17,o),
(517,38,cs),
(517,58,o),
(504,75,o),
(478,75,cs),
(366,75,o),
(253,72,o),
(141,66,cs),
(120,65,o),
(100,51,o),
(101,28,cs),
(102,7,o),
(119,-13,o),
(141,-12,cs)
);
}
);
width = 610;
},
{
anchors = (
{
name = bottom;
pos = (296,0);
},
{
name = ogonek;
pos = (540,10);
},
{
name = top;
pos = (322,764);
},
{
name = topleft;
pos = (37,764);
}
);
layerId = m003;
shapes = (
{
closed = 1;
nodes = (
(110,492,o),
(99,254,o),
(86,18,cs),
(85,-8,o),
(106,-21,o),
(126,-21,cs),
(147,-21,o),
(166,-8,o),
(167,18,cs),
(180,254,o),
(191,492,o),
(198,729,cs),
(199,755,o),
(178,768,o),
(158,768,cs),
(138,768,o),
(117,755,o),
(117,729,cs)
);
},
{
closed = 1;
nodes = (
(323,698,o),
(416,696,o),
(509,693,cs),
(541,692,o),
(556,710,o),
(556,734,cs),
(556,759,o),
(541,770,o),
(509,771,cs),
(416,775,o),
(322,777,o),
(173,777,cs),
(142,777,o),
(126,762,o),
(126,738,cs),
(126,713,o),
(142,698,o),
(173,698,cs)
);
},
{
closed = 1;
nodes = (
(263,361,o),
(387,362,o),
(441,360,cs),
(467,360,o),
(480,380,o),
(480,400,cs),
(480,421,o),
(467,438,o),
(441,438,cs),
(387,440,o),
(263,439,o),
(165,429,cs),
(143,428,o),
(124,413,o),
(124,391,cs),
(125,371,o),
(142,349,o),
(165,351,cs)
);
},
{
closed = 1;
nodes = (
(253,-6,o),
(366,-3,o),
(478,-3,cs),
(504,-3,o),
(517,17,o),
(517,38,cs),
(517,58,o),
(504,75,o),
(478,75,cs),
(366,75,o),
(253,72,o),
(141,66,cs),
(120,65,o),
(100,51,o),
(101,28,cs),
(102,7,o),
(119,-13,o),
(141,-12,cs)
);
}
);
width = 610;
}
);
metricLeft = E;
metricRight = E;
},
{
color = 6;
glyphname = E.alt4;
lastChange = "2023-01-19 20:04:04 +0000";
layers = (
{
anchors = (
{
name = bottom;
pos = (299,0);
},
{
name = ogonek;
pos = (545,10);
},
{
name = top;
pos = (325,764);
},
{
name = topleft;
pos = (37,764);
}
);
layerId = m01;
shapes = (
{
closed = 1;
nodes = (
(103,514,o),
(93,317,o),
(93,42,cs),
(93,21,o),
(112,0,o),
(134,1,cs),
(235,6,o),
(376,8,o),
(492,3,cs),
(520,2,o),
(537,17,o),
(537,44,cs),
(537,67,o),
(520,80,o),
(497,81,cs),
(389,83,o),
(289,85,o),
(174,78,c),
(174,191,o),
(176,278,o),
(179,357,c),
(234,362,o),
(288,364,o),
(343,364,cs),
(374,364,o),
(404,363,o),
(435,362,cs),
(456,361,o),
(476,379,o),
(475,401,cs),
(474,423,o),
(460,438,o),
(435,440,cs),
(404,442,o),
(374,442,o),
(343,442,cs),
(290,442,o),
(236,440,o),
(183,436,c),
(187,515,o),
(194,588,o),
(201,687,c),
(518,687,ls),
(549,687,o),
(561,702,o),
(561,727,cs),
(561,751,o),
(548,765,o),
(517,765,cs),
(178,765,ls),
(149,765,o),
(127,746,o),
(124,715,cs)
);
}
);
width = 615;
},
{
anchors = (
{
name = bottom;
pos = (299,0);
},
{
name = ogonek;
pos = (545,10);
},
{
name = top;
pos = (325,764);
},
{
name = topleft;
pos = (37,764);
}
);
layerId = m002;
shapes = (
{
closed = 1;
nodes = (
(103,514,o),
(93,317,o),
(93,42,cs),
(93,21,o),
(112,0,o),
(134,1,cs),
(235,6,o),
(376,8,o),
(492,3,cs),
(520,2,o),
(537,17,o),
(537,44,cs),
(537,67,o),
(520,80,o),
(497,81,cs),
(389,83,o),
(289,85,o),
(174,78,c),
(174,191,o),
(176,278,o),
(179,357,c),
(234,362,o),
(288,364,o),
(343,364,cs),
(374,364,o),
(404,363,o),
(435,362,cs),
(456,361,o),
(476,379,o),
(475,401,cs),
(474,423,o),
(460,438,o),
(435,440,cs),
(404,442,o),
(374,442,o),
(343,442,cs),
(290,442,o),
(236,440,o),
(183,436,c),
(187,515,o),
(194,588,o),
(201,687,c),
(518,687,ls),
(549,687,o),
(561,702,o),
(561,727,cs),
(561,751,o),
(548,765,o),
(517,765,cs),
(178,765,ls),
(149,765,o),
(127,746,o),
(124,715,cs)
);
}
);
width = 615;
},
{
anchors = (
{
name = bottom;
pos = (299,0);
},
{
name = ogonek;
pos = (545,10);
},
{
name = top;
pos = (325,764);
},
{
name = topleft;
pos = (37,764);
}
);
layerId = m003;
shapes = (
{
closed = 1;
nodes = (
(103,514,o),
(93,317,o),
(93,42,cs),
(93,21,o),
(112,0,o),
(134,1,cs),
(235,6,o),
(376,8,o),
(492,3,cs),
(520,2,o),
(537,17,o),
(537,44,cs),
(537,67,o),
(520,80,o),
(497,81,cs),
(389,83,o),
(289,85,o),
(174,78,c),
(174,191,o),
(176,278,o),
(179,357,c),
(234,362,o),
(288,364,o),
(343,364,cs),
(374,364,o),
(404,363,o),
(435,362,cs),
(456,361,o),
(476,379,o),
(475,401,cs),
(474,423,o),
(460,438,o),
(435,440,cs),
(404,442,o),
(374,442,o),
(343,442,cs),
(290,442,o),
(236,440,o),
(183,436,c),
(187,515,o),
(194,588,o),
(201,687,c),
(518,687,ls),
(549,687,o),
(561,702,o),
(561,727,cs),
(561,751,o),
(548,765,o),
(517,765,cs),
(178,765,ls),
(149,765,o),
(127,746,o),
(124,715,cs)
);
}
);
width = 615;
}
);
metricLeft = E;
metricRight = E;
},
